<svg xmlns="http://www.w3.org/2000/svg" xmlns:xlink="http://www.w3.org/1999/xlink" width="1366" zoomAndPan="magnify" viewBox="0 0 1024.5 576" height="768" preserveAspectRatio="xMidYMid meet" version="1.0"><defs><clipPath id="27326179cd"><path d="M 332.894531 410.511719 L 738.132812 410.511719 L 738.132812 496.847656 L 332.894531 496.847656 Z M 332.894531 410.511719 " clip-rule="nonzero"/></clipPath><clipPath id="0477f79c4b"><path d="M 428 92.796875 L 656 92.796875 L 656 133 L 428 133 Z M 428 92.796875 " clip-rule="nonzero"/></clipPath></defs><g clip-path="url(#27326179cd)"><path fill="#e4e6e9" d="M 681.464844 435.410156 C 691.027344 432.070312 701.324219 431.234375 711.085938 428.609375 C 716.738281 427.085938 727.925781 423.769531 728.492188 417.21875 C 728.664062 415.1875 713.503906 412.398438 711.59375 412.125 C 701.289062 410.628906 690.742188 410.796875 680.355469 410.964844 C 663.207031 411.234375 646.039062 411.503906 628.925781 412.714844 C 614.925781 413.707031 600.9375 415.402344 586.964844 416.78125 C 572.886719 418.171875 559.5625 419.878906 545.480469 418.882812 C 529.15625 417.730469 513 415.183594 496.757812 413.296875 C 478.292969 411.15625 460.441406 412.636719 442.015625 414.25 C 426.121094 415.652344 410.195312 415.179688 394.320312 416.414062 C 378.023438 417.683594 359.566406 418.867188 344.074219 424.34375 C 338.984375 426.144531 332.273438 429.488281 332.941406 435.90625 C 333.558594 441.839844 337.957031 446.15625 342.433594 449.601562 C 354.679688 459.042969 371.078125 462.226562 385.871094 465.324219 C 381.355469 468.464844 376.824219 471.617188 372.570312 475.109375 C 369.9375 477.273438 367.46875 479.59375 365.113281 482.0625 C 364.179688 483.042969 365.945312 484.261719 365.472656 485.050781 C 366.167969 483.886719 380.15625 488.640625 382.40625 489.199219 C 392.53125 491.6875 402.714844 493.679688 413.035156 495.160156 C 423.316406 496.636719 433.792969 497.648438 444.128906 496.09375 C 448.820312 495.390625 453.734375 494.390625 457.816406 491.867188 C 458.660156 491.347656 463.023438 487.519531 463.023438 487.738281 C 463.042969 483.3125 455.546875 482.308594 452.382812 481.28125 C 445.105469 478.917969 437.433594 477.320312 430.453125 474.128906 C 441.054688 470.425781 452.785156 470.472656 463.875 470.15625 C 477.867188 469.761719 491.316406 467.480469 505.160156 465.742188 C 518.65625 464.054688 532.234375 466.164062 545.753906 465.5 C 558.945312 464.855469 571.886719 461.570312 585.105469 461.359375 C 581.808594 463.566406 578.175781 465.480469 575.476562 468.453125 C 573.320312 470.828125 576.023438 471.128906 575.035156 472.648438 C 575.5 471.933594 584.128906 473.945312 585.710938 474.039062 C 594.027344 474.523438 602.316406 473.386719 610.621094 473.144531 C 628.125 472.640625 645.628906 474.085938 663.09375 472.328125 C 679.105469 470.71875 694.378906 466.046875 710.109375 462.953125 C 716.609375 461.675781 737.996094 458.421875 738.132812 450.617188 C 721.925781 436.117188 698.742188 446.363281 681.464844 435.410156 " fill-opacity="1" fill-rule="nonzero"/></g><path fill="#de8a4f" d="M 439.683594 374.582031 L 379.34375 385.210938 C 379.34375 385.210938 387.167969 398.636719 387.167969 403.113281 C 387.167969 407.585938 381.207031 415.046875 381.207031 415.046875 C 381.207031 415.046875 376.554688 414.300781 377.113281 415.976562 C 377.671875 417.65625 441.917969 454.019531 447.507812 454.582031 C 453.089844 455.136719 689.726562 431.4375 693.074219 428.082031 C 696.425781 424.722656 693.617188 403.492188 690.285156 401.230469 C 652.320312 375.46875 439.683594 374.582031 439.683594 374.582031 " fill-opacity="1" fill-rule="nonzero"/><path fill="#c67637" d="M 692.523438 405.667969 C 691.859375 403.433594 691.089844 401.773438 690.285156 401.230469 C 652.320312 375.46875 439.683594 374.582031 439.683594 374.582031 L 379.34375 385.210938 C 379.34375 385.210938 379.753906 385.914062 380.378906 387.039062 C 397.605469 394.21875 415.582031 395.003906 432.402344 402.726562 C 445.164062 408.691406 458.773438 409.542969 472.386719 412.945312 C 466.429688 413.800781 460.472656 416.355469 454.519531 417.207031 C 506.417969 429.988281 559.160156 413.800781 611.90625 415.503906 C 609.457031 423.476562 613.179688 430.566406 615.777344 438.042969 C 636.882812 435.738281 655.902344 433.558594 669.800781 431.800781 C 666.820312 424.683594 665.867188 417.113281 663.800781 409.542969 C 673.621094 409.542969 683.125 407.828125 692.523438 405.667969 " fill-opacity="1" fill-rule="nonzero"/><path fill="#c84d50" d="M 647.644531 410.75 C 646.761719 410.894531 645.914062 411.171875 645.011719 411.386719 C 646.289062 417.8125 645.835938 423.765625 645.703125 430.128906 C 646.589844 430.042969 647.46875 429.957031 648.339844 429.875 C 649.125 423.644531 648.273438 417.207031 647.644531 410.75 " fill-opacity="1" fill-rule="nonzero"/><path fill="#af6128" d="M 406.027344 411.242188 C 421.339844 427.429688 440.058594 408.691406 454.519531 400.171875 C 449.667969 400.171875 445.386719 400.167969 441.203125 397.867188 C 433.996094 403.984375 425.464844 409.703125 416.234375 411.242188 C 410.28125 411.242188 404.324219 406.988281 400.070312 401.019531 C 408.953125 398.597656 417.84375 394.652344 427.457031 392.070312 C 424.414062 391.117188 421.210938 390.699219 418.15625 390.050781 C 408.355469 392.628906 397.84375 392.441406 387.992188 395.203125 C 394.5 399.789062 400.511719 405.265625 406.027344 411.242188 " fill-opacity="1" fill-rule="nonzero"/><path fill="#c84d50" d="M 659.144531 409.832031 C 658.257812 409.972656 657.410156 410.25 656.507812 410.464844 C 657.785156 416.890625 657.335938 422.847656 657.199219 429.207031 C 658.085938 429.125 658.964844 429.035156 659.835938 428.949219 C 660.625 422.722656 659.769531 416.28125 659.144531 409.832031 " fill-opacity="1" fill-rule="nonzero"/><path fill="#c84d50" d="M 633.488281 412.09375 C 632.136719 412.277344 630.78125 412.515625 629.484375 412.664062 C 630.503906 419.382812 630.230469 426.105469 629.660156 432.828125 C 630.824219 432.714844 631.984375 432.609375 633.128906 432.496094 C 634.636719 425.679688 635.15625 418.765625 633.488281 412.09375 " fill-opacity="1" fill-rule="nonzero"/><path fill="#c84d50" d="M 485.132812 423.339844 C 482.511719 423.339844 480.175781 424.507812 477.5 424.148438 C 478.253906 432.316406 478.472656 440.949219 476.796875 449.105469 C 479.039062 448.921875 482.144531 448.636719 485.902344 448.269531 C 486.835938 440.683594 486.085938 431.042969 485.132812 423.339844 " fill-opacity="1" fill-rule="nonzero"/><path fill="#eecab3" d="M 683.0625 401.804688 C 683.050781 401.632812 631.558594 404.664062 568.125 409.414062 C 504.6875 414.171875 453.332031 418.84375 453.34375 418.976562 C 453.355469 419.160156 504.839844 416.058594 568.273438 411.308594 C 631.707031 406.550781 683.070312 401.9375 683.0625 401.804688 " fill-opacity="1" fill-rule="nonzero"/><path fill="#f6f2cb" d="M 379.34375 385.210938 C 379.34375 385.210938 442.289062 415.792969 445.269531 418.773438 C 448.25 421.757812 447.507812 449.359375 445.269531 449.359375 C 443.039062 449.359375 381.207031 415.046875 381.207031 415.046875 C 381.207031 415.046875 381.582031 403.859375 379.34375 385.210938 " fill-opacity="1" fill-rule="nonzero"/><path fill="#b2af89" d="M 444.152344 422.503906 C 444.214844 422.394531 430.359375 414.984375 413.074219 406.253906 C 395.78125 397.515625 381.605469 390.753906 381.582031 390.804688 C 381.546875 390.875 395.429688 398.214844 412.71875 406.949219 C 430.007812 415.683594 444.152344 422.503906 444.152344 422.503906 " fill-opacity="1" fill-rule="nonzero"/><path fill="#b2af89" d="M 444.152344 429.589844 C 444.179688 429.539062 430.738281 422.476562 413.972656 414.136719 C 397.210938 405.792969 383.46875 399.332031 383.445312 399.382812 C 383.410156 399.449219 396.863281 406.496094 413.625 414.839844 C 430.386719 423.179688 444.121094 429.652344 444.152344 429.589844 " fill-opacity="1" fill-rule="nonzero"/><path fill="#b2af89" d="M 444.152344 435.183594 C 444.179688 435.132812 430.648438 428.238281 413.78125 420.101562 C 396.914062 411.964844 383.09375 405.671875 383.070312 405.722656 C 383.039062 405.789062 396.574219 412.671875 413.441406 420.808594 C 430.308594 428.941406 444.125 435.25 444.152344 435.183594 " fill-opacity="1" fill-rule="nonzero"/><path fill="#b2af89" d="M 442.292969 441.527344 C 442.316406 441.476562 429.289062 434.746094 413.039062 426.8125 C 396.789062 418.886719 383.46875 412.757812 383.445312 412.808594 C 383.410156 412.875 396.445312 419.589844 412.695312 427.519531 C 428.945312 435.453125 442.261719 441.589844 442.292969 441.527344 " fill-opacity="1" fill-rule="nonzero"/><path fill="#c84d50" d="M 503.109375 429.546875 L 503.417969 439.0625 C 503.417969 439.0625 560.132812 436.300781 561.667969 435.074219 C 563.199219 433.847656 563.503906 428.011719 562.28125 427.398438 C 561.054688 426.785156 503.109375 429.546875 503.109375 429.546875 " fill-opacity="1" fill-rule="nonzero"/><path fill="#2370b1" d="M 492.953125 366.386719 C 496.027344 366.078125 660.863281 349.03125 688.773438 347.136719 C 688.847656 346.960938 688.894531 346.863281 688.894531 346.863281 C 688.894531 346.863281 532.894531 329.074219 522.582031 328.902344 C 512.273438 328.726562 366.179688 337.441406 366.179688 337.441406 C 365.976562 337.5625 365.808594 337.847656 365.65625 338.25 C 385.230469 339.195312 489.703125 366.714844 492.953125 366.386719 " fill-opacity="1" fill-rule="nonzero"/><path fill="#1e8ed1" d="M 492.808594 366.394531 C 487.78125 366.621094 385.035156 339.1875 365.65625 338.25 C 363.722656 343.433594 367.671875 373.453125 369.566406 374.539062 C 371.613281 375.699219 487 414.203125 492.496094 414.296875 C 493.027344 414.300781 494.351562 414.25 496.316406 414.140625 C 494.683594 410.738281 493.953125 404.351562 492.855469 392.816406 C 491.386719 377.371094 492.085938 369.851562 492.808594 366.394531 " fill-opacity="1" fill-rule="nonzero"/><path fill="#2370b1" d="M 445.828125 355.484375 C 443.164062 354.832031 440.449219 354.171875 437.710938 353.507812 C 438.210938 368.441406 438.710938 383.132812 439.207031 397.917969 C 441.957031 398.816406 444.679688 399.703125 447.363281 400.570312 C 446.261719 385.542969 445.636719 370.511719 445.828125 355.484375 " fill-opacity="1" fill-rule="nonzero"/><path fill="#2370b1" d="M 411.011719 347.144531 C 410.929688 361.03125 411.707031 375.085938 412.449219 389.109375 C 415.542969 390.136719 418.703125 391.183594 421.898438 392.238281 C 420.660156 377.769531 418.894531 363.125 418.128906 348.8125 C 415.734375 348.246094 413.355469 347.6875 411.011719 347.144531 " fill-opacity="1" fill-rule="nonzero"/><path fill="#24aadf" d="M 365.65625 338.25 C 365.785156 337.679688 394.140625 344.277344 429.054688 352.949219 C 463.996094 361.421875 492.664062 367.234375 492.808594 366.394531 C 492.730469 366.742188 464.734375 358.535156 429.75 350.054688 C 394.816406 341.371094 365.757812 337.1875 365.65625 338.25 " fill-opacity="1" fill-rule="nonzero"/><path fill="#f1e8c0" d="M 687.84375 349.4375 L 504.730469 366.878906 L 510.75 412.988281 C 557.753906 408.867188 692.210938 395.542969 692.210938 395.542969 C 676.308594 383.933594 684.667969 357.726562 687.84375 349.4375 " fill-opacity="1" fill-rule="nonzero"/><path fill="#e5dcb5" d="M 596.15625 355.890625 C 597.960938 372.164062 597.3125 388.4375 598.605469 404.710938 C 601.253906 404.453125 603.902344 404.199219 606.53125 403.941406 C 605.636719 387.703125 604.394531 371.464844 602.8125 355.226562 C 600.597656 355.445312 598.378906 355.667969 596.15625 355.890625 " fill-opacity="1" fill-rule="nonzero"/><path fill="#e5dcb5" d="M 639.789062 351.582031 C 637.417969 351.8125 634.996094 352.046875 632.539062 352.289062 C 634.003906 368.871094 632.914062 385.097656 631.824219 401.480469 C 635.316406 401.136719 638.730469 400.804688 642.042969 400.476562 C 642.671875 384.355469 639.378906 367.820312 639.789062 351.582031 " fill-opacity="1" fill-rule="nonzero"/><path fill="#d8d1aa" d="M 686.46875 353.335938 C 687.511719 350.144531 688.453125 347.878906 688.773438 347.136719 C 660.863281 349.03125 496.027344 366.078125 492.953125 366.386719 C 492.917969 366.390625 492.859375 366.394531 492.808594 366.394531 C 492.085938 369.851562 491.386719 377.371094 492.855469 392.816406 C 493.953125 404.351562 494.683594 410.738281 496.316406 414.140625 C 501.582031 413.851562 519.703125 412.21875 542.941406 410.035156 C 541.710938 402.058594 527.585938 407.824219 520.878906 406.988281 C 525.980469 404.429688 531.941406 402.726562 537.042969 399.316406 C 531.085938 395.058594 524.28125 399.316406 517.472656 397.613281 C 523.429688 391.648438 532.789062 392.503906 538.742188 386.539062 C 530.234375 383.984375 520.878906 386.539062 512.371094 386.539062 C 521.726562 383.132812 531.941406 383.132812 541.296875 378.875 C 531.085938 373.765625 513.21875 380.578125 508.117188 371.207031 C 538.199219 362.839844 569.097656 358.589844 598.402344 364.089844 C 604.914062 362.8125 611.480469 362.128906 618.0625 361.683594 C 617.714844 360.320312 632.328125 354.167969 636.578125 358.429688 C 637.214844 359.160156 650.285156 358.894531 650.191406 358.429688 C 662.40625 356.496094 674.621094 356.023438 686.46875 353.335938 " fill-opacity="1" fill-rule="nonzero"/><path fill="#b2af89" d="M 655.78125 359.269531 C 655.859375 359.085938 619.570312 360.289062 576.039062 365.476562 C 532.542969 370.359375 496.507812 372.425781 496.695312 372.964844 C 496.546875 372.519531 532.675781 370.949219 576.3125 366.050781 C 619.785156 360.871094 655.761719 359.1875 655.78125 359.269531 " fill-opacity="1" fill-rule="nonzero"/><path fill="#b2af89" d="M 659.804688 366.160156 C 659.804688 366.097656 624.984375 368.535156 582.363281 372.464844 C 560.996094 374.1875 541.730469 376.277344 527.832031 377.535156 C 513.832031 378.808594 505.113281 378.433594 505.117188 378.53125 C 505.078125 378.480469 513.785156 379.011719 527.921875 377.863281 C 542.007812 376.726562 561.140625 374.769531 582.566406 373.046875 C 625.195312 369.117188 659.804688 366.195312 659.804688 366.160156 " fill-opacity="1" fill-rule="nonzero"/><path fill="#b2af89" d="M 666.082031 373.515625 C 666.105469 373.335938 631.203125 375.089844 588.894531 379.457031 C 567.691406 381.351562 548.421875 383.179688 534.558594 384.378906 C 520.511719 385.5625 512.074219 384.640625 512.082031 384.722656 C 512 384.6875 520.410156 385.769531 534.625 384.707031 C 548.660156 383.632812 567.824219 381.9375 589.113281 380.042969 C 631.417969 375.671875 666.042969 373.4375 666.082031 373.515625 " fill-opacity="1" fill-rule="nonzero"/><path fill="#b2af89" d="M 637.644531 385.273438 C 637.625 385.15625 608.234375 387.785156 572.492188 391.867188 C 554.480469 393.5 538.242188 395.578125 526.574219 396.796875 C 514.714844 398.070312 507.449219 397.273438 507.453125 397.378906 C 507.375 397.320312 514.636719 398.277344 526.6875 397.125 C 538.621094 396.015625 554.621094 394.089844 572.761719 392.441406 C 608.570312 388.355469 637.601562 385.257812 637.644531 385.273438 " fill-opacity="1" fill-rule="nonzero"/><path fill="#b2af89" d="M 677.175781 388.859375 C 677.136719 388.804688 668.25 390.085938 653.503906 391.28125 C 638.820312 392.582031 618.179688 393.5 595.863281 396.109375 C 573.65625 398.75 553.828125 401.519531 539.113281 402.824219 C 524.425781 404.164062 515.191406 404.285156 515.199219 404.386719 C 515.175781 404.335938 524.414062 404.367188 539.226562 403.148438 C 554.058594 401.972656 574.050781 399.308594 596.167969 396.679688 C 618.316406 394.089844 638.90625 393.042969 653.617188 391.609375 C 668.375 390.273438 677.179688 388.84375 677.175781 388.859375 " fill-opacity="1" fill-rule="nonzero"/><path fill="#177b73" d="M 491.601562 317.332031 C 494.375 317.019531 642.925781 299.703125 668.074219 297.757812 C 668.144531 297.582031 668.183594 297.488281 668.183594 297.488281 C 668.183594 297.488281 527.652344 279.957031 518.363281 279.800781 C 509.074219 279.644531 377.429688 297.96875 377.429688 297.96875 C 377.246094 298.089844 377.09375 298.375 376.957031 298.777344 C 394.589844 299.691406 488.675781 317.667969 491.601562 317.332031 " fill-opacity="1" fill-rule="nonzero"/><path fill="#1a928e" d="M 491.476562 317.34375 C 486.941406 317.574219 394.417969 299.679688 376.957031 298.777344 C 375.207031 303.964844 378.714844 333.980469 380.417969 335.058594 C 382.261719 336.21875 486.160156 365.160156 491.117188 365.242188 C 491.589844 365.25 492.785156 365.191406 494.554688 365.082031 C 493.089844 361.679688 492.441406 355.300781 491.476562 343.761719 C 490.175781 328.320312 490.820312 320.800781 491.476562 317.34375 " fill-opacity="1" fill-rule="nonzero"/><path fill="#177b73" d="M 494.554688 365.082031 C 493.089844 361.679688 492.441406 355.300781 491.476562 343.761719 C 490.175781 328.320312 490.820312 320.800781 491.476562 317.34375 C 486.941406 317.574219 394.417969 299.679688 376.957031 298.777344 C 376.628906 299.746094 376.484375 301.578125 376.480469 303.925781 C 392.710938 309.03125 409.496094 313.105469 425.59375 319.242188 C 428.148438 320.09375 430.695312 322.652344 433.25 323.5 C 450.265625 332.871094 486.847656 320.945312 479.191406 347.355469 C 476.640625 356.722656 457.070312 349.910156 445.164062 349.058594 C 438.890625 348.238281 432.710938 348.125 426.585938 348.339844 C 455.730469 356.421875 488.390625 365.195312 491.117188 365.242188 C 491.589844 365.25 492.785156 365.191406 494.554688 365.082031 " fill-opacity="1" fill-rule="nonzero"/><path fill="#27a1a2" d="M 376.957031 298.777344 C 377.015625 298.53125 402.492188 303.425781 434.019531 309.117188 C 465.5625 314.691406 491.402344 318.011719 491.476562 317.34375 C 491.441406 317.511719 466.101562 311.761719 434.535156 306.179688 C 402.996094 300.484375 377.007812 298.046875 376.957031 298.777344 " fill-opacity="1" fill-rule="nonzero"/><path fill="#226a7e" d="M 397.097656 336.160156 C 393.9375 324.011719 394.707031 307.574219 395.179688 305.242188 C 394.335938 305.28125 389.992188 303.328125 383.226562 303.035156 C 381.890625 313.46875 382.597656 322.617188 384.972656 332.796875 C 390.503906 334.6875 395.824219 336.234375 397.097656 336.160156 " fill-opacity="1" fill-rule="nonzero"/><path fill="#f6f2cb" d="M 667.425781 299.519531 L 498.695312 320.484375 L 501.679688 364.472656 C 537.128906 361.136719 671.089844 346.160156 671.089844 346.160156 C 656.449219 334.308594 664.722656 307.132812 667.425781 299.519531 " fill-opacity="1" fill-rule="nonzero"/><path fill="#d8d1aa" d="M 628.292969 301.808594 C 625.664062 302.097656 622.964844 302.394531 620.207031 302.695312 C 618.789062 319.226562 621.308594 335.359375 624.070312 351.378906 C 626.308594 351.132812 628.5 350.890625 630.640625 350.652344 C 628.957031 334.398438 627.273438 318.214844 628.292969 301.808594 " fill-opacity="1" fill-rule="nonzero"/><path fill="#d8d1aa" d="M 586.484375 306.457031 C 589.3125 322.621094 590.363281 338.78125 591.65625 354.941406 C 594.875 354.59375 598.078125 354.238281 601.242188 353.894531 C 599.339844 337.824219 598.382812 321.558594 596.949219 305.28125 C 593.484375 305.667969 589.992188 306.0625 586.484375 306.457031 " fill-opacity="1" fill-rule="nonzero"/><path fill="#d8d1aa" d="M 645.089844 305.609375 C 651.890625 305.085938 659.023438 304.242188 666.070312 303.667969 C 666.984375 300.628906 667.796875 298.480469 668.074219 297.757812 C 642.925781 299.703125 494.375 317.019531 491.601562 317.332031 C 491.574219 317.335938 491.519531 317.339844 491.476562 317.34375 C 490.820312 320.800781 490.175781 328.320312 491.476562 343.761719 C 492.441406 355.300781 493.089844 361.679688 494.554688 365.082031 C 498.886719 364.808594 512.859375 363.402344 531.175781 361.46875 C 534.589844 360.007812 537.984375 358.476562 541.296875 356.722656 C 531.085938 352.464844 520.027344 356.722656 509.820312 355.019531 C 518.328125 348.203125 531.085938 348.203125 538.742188 340.539062 C 531.941406 337.984375 524.28125 341.390625 517.472656 338.835938 C 527.6875 332.871094 539.59375 330.316406 550.65625 327.761719 C 534.488281 321.796875 516.625 331.167969 502.160156 321.796875 C 529.402344 316.179688 556.644531 318.875 583.886719 315.648438 C 590.222656 314.320312 637.710938 307.632812 645.164062 306.902344 C 645.140625 306.46875 645.113281 306.039062 645.089844 305.609375 " fill-opacity="1" fill-rule="nonzero"/><path fill="#b2af89" d="M 641.023438 310.464844 C 641.101562 310.28125 607.523438 311.359375 567.261719 316.394531 C 527.027344 321.125 493.699219 323.066406 493.875 323.609375 C 493.730469 323.164062 527.15625 321.714844 567.515625 316.96875 C 607.71875 311.945312 641.007812 310.386719 641.023438 310.464844 " fill-opacity="1" fill-rule="nonzero"/><path fill="#b2af89" d="M 644.773438 317.375 C 644.769531 317.308594 612.558594 319.625 573.136719 323.402344 C 553.371094 325.050781 535.554688 327.074219 522.699219 328.285156 C 509.746094 329.511719 501.679688 329.101562 501.683594 329.199219 C 501.644531 329.152344 509.703125 329.714844 522.777344 328.613281 C 535.808594 327.523438 553.507812 325.640625 573.324219 323.988281 C 612.753906 320.207031 644.769531 317.402344 644.773438 317.375 " fill-opacity="1" fill-rule="nonzero"/><path fill="#b2af89" d="M 650.601562 324.75 C 650.617188 324.566406 618.332031 326.203125 579.199219 330.421875 C 559.589844 332.238281 541.765625 334 528.941406 335.148438 C 515.949219 336.285156 508.140625 335.339844 508.148438 335.414062 C 508.074219 335.382812 515.859375 336.492188 529.007812 335.484375 C 541.984375 334.453125 559.71875 332.824219 579.410156 331 C 618.535156 326.78125 650.566406 324.667969 650.601562 324.75 " fill-opacity="1" fill-rule="nonzero"/><path fill="#b2af89" d="M 624.328125 336.402344 C 624.3125 336.289062 597.125 338.8125 564.066406 342.773438 C 547.410156 344.34375 532.390625 346.359375 521.597656 347.539062 C 510.628906 348.769531 503.898438 347.953125 503.90625 348.054688 C 503.832031 347.996094 510.554688 348.976562 521.699219 347.867188 C 532.742188 346.796875 547.539062 344.929688 564.320312 343.347656 C 597.433594 339.382812 624.289062 336.382812 624.328125 336.402344 " fill-opacity="1" fill-rule="nonzero"/><path fill="#b2af89" d="M 660.914062 340.128906 C 660.882812 340.066406 652.664062 341.320312 639.023438 342.46875 C 625.441406 343.710938 606.347656 344.5625 585.703125 347.089844 C 565.160156 349.65625 546.828125 352.351562 533.21875 353.609375 C 519.628906 354.898438 511.089844 354.988281 511.09375 355.089844 C 511.074219 355.039062 519.621094 355.101562 533.324219 353.933594 C 547.039062 352.808594 565.527344 350.21875 585.988281 347.660156 C 606.46875 345.152344 625.523438 344.179688 639.128906 342.792969 C 652.777344 341.511719 660.917969 340.113281 660.914062 340.128906 " fill-opacity="1" fill-rule="nonzero"/><path fill="#f6f2cb" d="M 445.730469 289.425781 C 444.707031 287.378906 390.660156 259.328125 373.78125 255.449219 C 374.761719 256.644531 384.570312 269.296875 375.402344 286.585938 C 375.402344 286.585938 433.261719 317.382812 446.941406 318.910156 C 450.398438 311.902344 446.679688 291.324219 445.730469 289.425781 " fill-opacity="1" fill-rule="nonzero"/><path fill="#d8d1aa" d="M 445.730469 289.425781 C 444.707031 287.378906 390.660156 259.328125 373.78125 255.449219 C 374.109375 255.851562 375.429688 257.542969 376.695312 260.257812 C 391.015625 267.414062 405.433594 274.425781 421.339844 279.203125 C 428.996094 281.757812 434.101562 288.574219 440.910156 291.128906 C 434.949219 291.980469 429.847656 287.722656 423.890625 287.722656 C 427.296875 291.980469 434.949219 291.980469 436.65625 297.945312 C 433.25 297.09375 429.847656 297.09375 426.445312 297.09375 C 430.695312 298.796875 434.949219 300.5 437.503906 303.90625 C 434.101562 304.761719 431.550781 303.054688 428.148438 302.203125 C 430.695312 304.761719 434.101562 305.609375 437.503906 307.316406 C 434.949219 307.316406 432.402344 306.464844 429.847656 308.167969 C 431.550781 309.019531 433.25 309.019531 433.25 311.574219 C 431.015625 311.574219 428.609375 311.574219 426.1875 311.574219 C 435.179688 315.519531 442.945312 318.460938 446.941406 318.910156 C 450.398438 311.902344 446.679688 291.324219 445.730469 289.425781 " fill-opacity="1" fill-rule="nonzero"/><path fill="#ac6f52" d="M 672.027344 263.300781 C 668.625 260.457031 425.878906 251.945312 425.878906 251.945312 L 373.699219 255.347656 C 373.699219 255.347656 373.730469 255.390625 373.78125 255.449219 C 390.660156 259.328125 444.707031 287.378906 445.730469 289.425781 C 446.679688 291.324219 450.398438 311.902344 446.941406 318.910156 C 447.75 319 448.308594 319.019531 448.566406 318.957031 C 453.101562 317.820312 672.59375 293.402344 674.296875 291.128906 C 675.996094 288.859375 675.429688 266.140625 672.027344 263.300781 " fill-opacity="1" fill-rule="nonzero"/><path fill="#955939" d="M 672.027344 263.300781 C 668.625 260.457031 425.878906 251.945312 425.878906 251.945312 L 395.265625 253.941406 C 410.257812 262.207031 425.464844 270.355469 441.757812 275.796875 C 446.011719 277.5 453.667969 279.203125 454.519531 285.164062 C 454.519531 286.867188 449.417969 286.019531 448.566406 289.425781 C 491.953125 286.019531 534.488281 282.613281 577.878906 283.460938 C 580.429688 283.460938 583.832031 292.835938 582.132812 293.683594 C 565.269531 302.125 546.925781 304.992188 528.808594 309.402344 C 593.285156 301.894531 673.273438 292.496094 674.296875 291.128906 C 675.996094 288.859375 675.429688 266.140625 672.027344 263.300781 " fill-opacity="1" fill-rule="nonzero"/><path fill="#7d9371" d="M 452.851562 209.617188 L 397.039062 219.449219 C 397.039062 219.449219 404.273438 231.871094 404.273438 236.007812 C 404.273438 240.148438 398.765625 247.050781 398.765625 247.050781 C 398.765625 247.050781 394.457031 246.359375 394.976562 247.910156 C 395.492188 249.464844 454.921875 283.097656 460.085938 283.613281 C 465.257812 284.132812 684.132812 262.210938 687.234375 259.105469 C 690.335938 256.003906 687.75 236.339844 684.652344 234.269531 C 681.550781 232.199219 452.851562 209.617188 452.851562 209.617188 " fill-opacity="1" fill-rule="nonzero"/><path fill="#667d59" d="M 684.652344 234.269531 C 681.550781 232.199219 452.851562 209.617188 452.851562 209.617188 L 417.675781 215.816406 C 433.441406 230.78125 456.542969 237.199219 475.789062 246.832031 C 472.386719 250.242188 467.28125 246.832031 464.726562 251.089844 C 537.894531 253.644531 607.65625 229.796875 682.519531 244.273438 C 685.074219 245.128906 679.96875 252.796875 675.714844 253.644531 C 660.398438 257.90625 645.089844 246.832031 631.476562 251.945312 C 576.179688 270.683594 517.472656 266.425781 461.324219 275.796875 C 461.765625 278.007812 461.515625 281.125 460.34375 283.625 C 470.027344 283.65625 684.171875 262.175781 687.234375 259.105469 C 690.335938 256.003906 687.75 236.339844 684.652344 234.269531 " fill-opacity="1" fill-rule="nonzero"/><path fill="#3b514c" d="M 645.214844 243.074219 C 644.394531 243.207031 643.609375 243.464844 642.773438 243.660156 C 643.957031 249.605469 643.539062 255.117188 643.414062 261 C 644.234375 260.921875 645.046875 260.84375 645.851562 260.761719 C 646.582031 255.003906 645.796875 249.042969 645.214844 243.074219 " fill-opacity="1" fill-rule="nonzero"/><path fill="#3b514c" d="M 655.847656 242.21875 C 655.03125 242.351562 654.246094 242.613281 653.40625 242.8125 C 654.59375 248.757812 654.175781 254.265625 654.050781 260.148438 C 654.867188 260.070312 655.683594 259.988281 656.488281 259.910156 C 657.21875 254.152344 656.429688 248.191406 655.847656 242.21875 " fill-opacity="1" fill-rule="nonzero"/><path fill="#3b514c" d="M 632.121094 244.316406 C 630.867188 244.488281 629.613281 244.707031 628.414062 244.84375 C 629.355469 251.0625 629.105469 257.277344 628.574219 263.496094 C 629.65625 263.394531 630.722656 263.292969 631.785156 263.191406 C 633.183594 256.886719 633.664062 250.488281 632.121094 244.316406 " fill-opacity="1" fill-rule="nonzero"/><path fill="#3b514c" d="M 494.894531 254.71875 C 492.464844 254.71875 490.308594 255.800781 487.832031 255.472656 C 488.527344 263.027344 488.730469 271.003906 487.179688 278.550781 C 489.257812 278.382812 492.128906 278.121094 495.605469 277.777344 C 496.46875 270.757812 495.773438 261.847656 494.894531 254.71875 " fill-opacity="1" fill-rule="nonzero"/><path fill="#b6c2b4" d="M 677.972656 234.800781 C 677.960938 234.640625 630.332031 237.445312 571.660156 241.84375 C 512.980469 246.238281 465.480469 250.5625 465.488281 250.683594 C 465.5 250.851562 513.121094 247.988281 571.796875 243.589844 C 630.472656 239.191406 677.980469 234.921875 677.972656 234.800781 " fill-opacity="1" fill-rule="nonzero"/><path fill="#f6f2cb" d="M 397.523438 223.746094 C 399.050781 238.398438 398.765625 247.050781 398.765625 247.050781 C 398.765625 247.050781 444.757812 272.574219 455.738281 277.835938 L 455.554688 250.851562 L 397.523438 223.746094 " fill-opacity="1" fill-rule="nonzero"/><path fill="#d8d1aa" d="M 458.023438 250.5 C 455.261719 247.738281 397.039062 219.449219 397.039062 219.449219 C 397.320312 221.78125 397.550781 223.980469 397.75 226.046875 C 415.769531 234.738281 435.746094 241.578125 451.117188 255.347656 C 449.417969 255.347656 446.863281 255.347656 445.164062 254.5 C 447.714844 257.050781 450.265625 258.757812 452.816406 261.316406 C 451.117188 263.867188 448.566406 261.316406 446.011719 262.164062 C 447.714844 263.867188 451.964844 264.722656 451.117188 267.277344 C 450.265625 269.835938 447.714844 264.722656 445.164062 266.425781 C 446.863281 268.128906 449.417969 268.980469 450.265625 270.683594 C 447.175781 270.0625 443.976562 270.011719 440.746094 270.027344 C 450 274.992188 457.308594 278.785156 458.023438 278.785156 C 460.085938 278.785156 460.777344 253.257812 458.023438 250.5 " fill-opacity="1" fill-rule="nonzero"/><path fill="#b2af89" d="M 456.988281 253.945312 C 457.042969 253.84375 444.230469 246.992188 428.234375 238.910156 C 412.242188 230.835938 399.132812 224.578125 399.109375 224.625 C 399.078125 224.6875 411.917969 231.480469 427.910156 239.558594 C 443.902344 247.636719 456.988281 253.949219 456.988281 253.945312 " fill-opacity="1" fill-rule="nonzero"/><path fill="#b2af89" d="M 456.988281 260.503906 C 457.011719 260.457031 444.578125 253.921875 429.070312 246.207031 C 413.5625 238.492188 400.855469 232.511719 400.832031 232.558594 C 400.800781 232.621094 413.242188 239.136719 428.746094 246.855469 C 444.257812 254.574219 456.957031 260.558594 456.988281 260.503906 " fill-opacity="1" fill-rule="nonzero"/><path fill="#b2af89" d="M 456.988281 265.675781 C 457.007812 265.632812 444.496094 259.25 428.894531 251.722656 C 413.292969 244.199219 400.507812 238.378906 400.484375 238.425781 C 400.457031 238.488281 412.976562 244.851562 428.578125 252.378906 C 444.183594 259.902344 456.960938 265.734375 456.988281 265.675781 " fill-opacity="1" fill-rule="nonzero"/><path fill="#b2af89" d="M 455.265625 271.539062 C 455.285156 271.496094 443.238281 265.273438 428.207031 257.9375 C 413.171875 250.597656 400.851562 244.933594 400.832031 244.980469 C 400.800781 245.039062 412.855469 251.253906 427.890625 258.585938 C 442.917969 265.921875 455.238281 271.601562 455.265625 271.539062 " fill-opacity="1" fill-rule="nonzero"/><path fill="#3b514c" d="M 511.519531 260.460938 L 511.800781 269.265625 C 511.800781 269.265625 564.265625 266.707031 565.683594 265.570312 C 567.101562 264.4375 567.386719 259.042969 566.25 258.476562 C 565.117188 257.90625 511.519531 260.460938 511.519531 260.460938 " fill-opacity="1" fill-rule="nonzero"/><path fill="#c84d50" d="M 473.234375 184.21875 L 427.296875 192.3125 C 427.296875 192.3125 433.25 202.53125 433.25 205.941406 C 433.25 209.347656 428.714844 215.027344 428.714844 215.027344 C 428.714844 215.027344 425.167969 214.460938 425.59375 215.738281 C 426.019531 217.015625 474.9375 244.703125 479.191406 245.128906 C 483.445312 245.550781 663.378906 234.050781 665.929688 231.5 C 668.484375 228.941406 666.359375 212.757812 663.800781 211.050781 C 661.253906 209.347656 473.234375 184.21875 473.234375 184.21875 " fill-opacity="1" fill-rule="nonzero"/><path fill="#b1363a" d="M 663.800781 211.050781 C 661.253906 209.347656 473.234375 184.21875 473.234375 184.21875 L 454.703125 187.484375 C 465.222656 191.40625 476.921875 191.886719 486.847656 198.273438 C 492.804688 203.386719 484.296875 203.386719 482.59375 207.644531 C 490.25 211.050781 496.207031 200.828125 503.863281 203.386719 C 505.566406 204.238281 507.265625 204.238281 508.964844 205.089844 C 512.371094 208.5 504.710938 211.90625 506.417969 211.90625 C 518.328125 211.050781 530.234375 207.644531 542.144531 214.460938 C 534.488281 216.164062 527.6875 216.164062 520.027344 216.164062 C 520.878906 216.164062 521.726562 216.164062 522.582031 216.164062 C 514.074219 217.015625 504.710938 214.460938 496.207031 217.867188 C 548.953125 221.277344 601.699219 216.164062 654.445312 219.570312 C 655.296875 220.425781 656.148438 222.128906 657.851562 222.976562 C 596.679688 233.308594 534.238281 234.058594 472.726562 242.378906 C 476.039062 244.015625 478.394531 245.050781 479.191406 245.128906 C 483.445312 245.550781 663.378906 234.050781 665.929688 231.5 C 668.484375 228.941406 666.359375 212.757812 663.800781 211.050781 " fill-opacity="1" fill-rule="nonzero"/><path fill="#9b2a25" d="M 523.964844 219.097656 C 527.164062 212.054688 531.40625 203.429688 528.464844 196.699219 C 524.015625 194.859375 519.035156 196.027344 514.492188 195.351562 C 514.105469 203.007812 514.886719 210.664062 510.773438 218.320312 C 506.457031 226.234375 510.128906 234.8125 511.3125 243.445312 C 515.976562 243.160156 521.003906 242.851562 526.296875 242.515625 C 525.6875 234.210938 520.503906 226.035156 523.964844 219.097656 " fill-opacity="1" fill-rule="nonzero"/><path fill="#7f262f" d="M 660.125 214.082031 C 657.019531 214.835938 653.769531 214.730469 650.585938 214.875 C 651.683594 219.921875 652.035156 225.296875 651.367188 230.453125 C 656.925781 229.820312 660.34375 229.300781 660.632812 228.96875 C 662.082031 227.265625 661.394531 218.273438 660.125 214.082031 " fill-opacity="1" fill-rule="nonzero"/><path fill="#7f262f" d="M 498.476562 220.992188 C 494.351562 220.992188 490.695312 221.960938 486.492188 221.664062 C 487.671875 228.441406 488.015625 235.597656 485.382812 242.363281 C 488.90625 242.210938 493.78125 241.972656 499.675781 241.667969 C 501.144531 235.375 499.964844 227.382812 498.476562 220.992188 " fill-opacity="1" fill-rule="nonzero"/><path fill="#df9499" d="M 653.597656 210.625 C 653.589844 210.492188 615.476562 211.28125 568.488281 213.050781 C 521.503906 214.824219 483.441406 216.910156 483.445312 217.015625 C 483.449219 217.160156 521.558594 216.316406 568.546875 214.542969 C 615.53125 212.769531 653.597656 210.730469 653.597656 210.625 " fill-opacity="1" fill-rule="nonzero"/><path fill="#f6f2cb" d="M 427.296875 192.3125 C 427.296875 192.3125 475.222656 215.59375 477.488281 217.867188 C 479.757812 220.140625 479.191406 241.15625 477.488281 241.15625 C 475.789062 241.15625 428.714844 215.027344 428.714844 215.027344 C 428.714844 215.027344 428.996094 206.507812 427.296875 192.3125 " fill-opacity="1" fill-rule="nonzero"/><path fill="#d8d1aa" d="M 477.488281 217.867188 C 475.222656 215.59375 427.296875 192.3125 427.296875 192.3125 C 427.476562 193.84375 427.640625 195.308594 427.78125 196.707031 C 443.992188 204.050781 459.429688 211.492188 474.085938 221.277344 C 471.300781 222.671875 469.082031 222.902344 466.507812 222.015625 C 468.425781 222.972656 470.230469 224.425781 471.535156 226.386719 C 469.832031 226.386719 468.132812 226.386719 466.429688 226.386719 C 467.28125 228.09375 469.832031 228.941406 468.984375 230.644531 C 468.132812 231.5 466.429688 229.796875 466.429688 231.5 C 468.984375 231.5 469.832031 234.050781 468.984375 234.050781 C 467.421875 234.398438 465.898438 234.527344 464.398438 234.546875 C 471.472656 238.332031 476.929688 241.15625 477.488281 241.15625 C 479.191406 241.15625 479.757812 220.140625 477.488281 217.867188 " fill-opacity="1" fill-rule="nonzero"/><path fill="#b2af89" d="M 476.640625 220.707031 C 476.683594 220.621094 466.136719 214.980469 452.972656 208.332031 C 439.8125 201.683594 429.015625 196.53125 428.996094 196.570312 C 428.972656 196.621094 439.542969 202.210938 452.703125 208.863281 C 465.871094 215.511719 476.640625 220.707031 476.640625 220.707031 " fill-opacity="1" fill-rule="nonzero"/><path fill="#b2af89" d="M 476.640625 226.101562 C 476.65625 226.0625 466.421875 220.6875 453.660156 214.335938 C 440.894531 207.984375 430.433594 203.0625 430.414062 203.101562 C 430.390625 203.152344 440.628906 208.515625 453.394531 214.871094 C 466.160156 221.21875 476.613281 226.152344 476.640625 226.101562 " fill-opacity="1" fill-rule="nonzero"/><path fill="#b2af89" d="M 476.640625 230.363281 C 476.65625 230.320312 466.359375 225.070312 453.515625 218.875 C 440.671875 212.683594 430.148438 207.890625 430.132812 207.929688 C 430.105469 207.980469 440.414062 213.21875 453.257812 219.414062 C 466.097656 225.609375 476.617188 230.410156 476.640625 230.363281 " fill-opacity="1" fill-rule="nonzero"/><path fill="#b2af89" d="M 475.222656 235.191406 C 475.238281 235.152344 465.320312 230.027344 452.949219 223.988281 C 440.574219 217.953125 430.433594 213.285156 430.414062 213.324219 C 430.390625 213.375 440.316406 218.488281 452.6875 224.523438 C 465.0625 230.566406 475.199219 235.234375 475.222656 235.191406 " fill-opacity="1" fill-rule="nonzero"/><path fill="#f4b53d" d="M 673.941406 182.070312 C 668.738281 179.152344 531.792969 145.316406 532.113281 144.480469 C 532.554688 143.363281 437.738281 152.441406 436.113281 154.109375 C 434.484375 155.78125 433.183594 179.984375 435.785156 184.160156 C 438.390625 188.332031 550.960938 229.648438 559.742188 228.8125 C 568.527344 227.976562 664.183594 224.222656 669.386719 220.464844 C 674.59375 216.710938 679.148438 184.992188 673.941406 182.070312 " fill-opacity="1" fill-rule="nonzero"/><path fill="#d49625" d="M 482.960938 149.101562 C 483.199219 148.5 469.921875 149.527344 457.4375 150.863281 C 462.355469 169.800781 483.617188 162.414062 495.59375 170.605469 C 501.851562 175.058594 501.054688 187.171875 501.671875 198.785156 C 508.378906 201.945312 515.785156 204.957031 523.203125 206.015625 C 521.480469 197.199219 521.425781 187.328125 521.421875 178.4375 C 534.03125 178.019531 545.050781 195.480469 555.261719 190.023438 C 576.015625 176.714844 611.847656 176.269531 634.328125 171.09375 C 568.210938 144.09375 482.746094 149.65625 482.960938 149.101562 " fill-opacity="1" fill-rule="nonzero"/><path fill="#f6f2cb" d="M 666.785156 218.796875 C 672.316406 215.875 673.941406 187.078125 669.0625 185.828125 C 664.183594 184.578125 560.394531 196.679688 556.488281 197.511719 C 552.890625 198.28125 451.597656 161.171875 435.621094 155.308594 C 434.472656 159.730469 433.71875 174.515625 434.90625 181.304688 C 451.632812 187.640625 554.894531 224.011719 558.769531 224.011719 C 563 224.011719 661.253906 221.714844 666.785156 218.796875 " fill-opacity="1" fill-rule="nonzero"/><path fill="#d8d1aa" d="M 669.0625 185.828125 C 664.183594 184.578125 560.394531 196.679688 556.488281 197.511719 C 552.890625 198.28125 451.597656 161.171875 435.621094 155.308594 C 435.277344 156.632812 434.972656 158.902344 434.738281 161.605469 C 454.167969 168.183594 474.367188 170.886719 493.699219 179.152344 C 511.265625 186.660156 527.859375 200.433594 546.402344 201.6875 C 538.59375 205.441406 531.765625 199.179688 523.953125 199.179688 C 530.789062 202.9375 537.621094 205.441406 545.425781 206.695312 C 536.644531 209.195312 528.835938 204.1875 520.050781 205.441406 C 526.882812 209.195312 536.644531 204.1875 540.546875 216.710938 C 539.78125 217.039062 538.992188 217.320312 538.195312 217.582031 C 549.449219 221.363281 557.335938 223.878906 558.664062 224 C 559.359375 216.625 559.6875 208.746094 558.117188 201.6875 C 591.300781 202.9375 622.535156 191.671875 655.722656 191.671875 C 650.839844 194.171875 646.9375 195.425781 642.058594 196.679688 C 648.890625 197.929688 656.699219 195.425781 663.53125 197.929688 C 652.792969 202.9375 642.058594 200.433594 631.324219 205.441406 C 640.105469 206.695312 648.890625 202.9375 657.675781 206.695312 C 649.867188 209.195312 641.082031 209.195312 633.273438 212.953125 C 642.058594 212.953125 649.867188 212.953125 658.652344 212.953125 C 654.335938 217.378906 649.597656 219.734375 644.636719 221.054688 C 656.515625 220.375 665.246094 219.609375 666.785156 218.796875 C 672.316406 215.875 673.941406 187.078125 669.0625 185.828125 " fill-opacity="1" fill-rule="nonzero"/><path fill="#cbc69f" d="M 489.316406 174.816406 C 487.792969 174.269531 486.273438 173.726562 484.761719 173.179688 C 484.804688 182.128906 485.5625 190.910156 486.425781 199.710938 C 487.820312 200.203125 489.222656 200.691406 490.628906 201.183594 C 489.710938 192.53125 489.074219 183.773438 489.316406 174.816406 " fill-opacity="1" fill-rule="nonzero"/><path fill="#cbc69f" d="M 516.46875 184.492188 C 516.792969 193.253906 517.019531 201.855469 517.34375 210.46875 C 519.191406 211.105469 521.011719 211.734375 522.796875 212.34375 C 521.953125 203.582031 521.007812 194.816406 520.914062 186.054688 C 519.453125 185.542969 517.972656 185.023438 516.46875 184.492188 " fill-opacity="1" fill-rule="nonzero"/><path fill="#b2af89" d="M 557.386719 222.34375 C 557.363281 222.3125 557.855469 217.25 558.3125 210.851562 C 558.746094 204.144531 555.875 199.667969 555.921875 199.808594 C 555.820312 199.847656 558.066406 204.40625 557.628906 210.820312 C 557.179688 217.113281 557.253906 222.363281 557.386719 222.34375 " fill-opacity="1" fill-rule="nonzero"/><path fill="#b2af89" d="M 659.382812 194.171875 C 659.378906 194.171875 638.636719 196.820312 612.964844 198.828125 C 587.273438 200.839844 566.636719 205.035156 566.65625 205.125 C 566.667969 205.171875 587.335938 201.714844 613.011719 199.699219 C 638.691406 197.691406 659.402344 194.3125 659.382812 194.171875 " fill-opacity="1" fill-rule="nonzero"/><path fill="#b2af89" d="M 662.800781 203.25 C 662.789062 202.957031 641.652344 205.40625 615.539062 206.679688 C 589.351562 207.257812 568.316406 211.421875 568.363281 211.703125 C 568.359375 211.5625 589.390625 208.132812 615.5625 207.558594 C 641.71875 206.28125 662.789062 203.097656 662.800781 203.25 " fill-opacity="1" fill-rule="nonzero"/><path fill="#b2af89" d="M 666.457031 210.761719 C 666.4375 210.164062 644.496094 212.800781 617.445312 214.933594 C 590.335938 216.132812 568.351562 217.71875 568.363281 217.957031 C 568.367188 217.863281 590.339844 217.015625 617.476562 215.808594 C 644.59375 213.671875 666.417969 210.304688 666.457031 210.761719 " fill-opacity="1" fill-rule="nonzero"/><path fill="#b2af89" d="M 538.835938 198.867188 C 538.859375 198.777344 533.09375 197.304688 524.046875 193.679688 C 514.980469 190.167969 502.730469 184.152344 488.832031 178.929688 C 461.203125 167.601562 437.8125 163.59375 437.816406 163.8125 C 437.820312 163.742188 461.042969 168.453125 488.636719 179.769531 C 502.511719 184.980469 514.804688 190.824219 523.9375 194.148438 C 533.042969 197.589844 538.847656 198.847656 538.835938 198.867188 " fill-opacity="1" fill-rule="nonzero"/><path fill="#b2af89" d="M 549.578125 215.144531 C 549.589844 215.210938 544.042969 211.144531 534.082031 208.671875 C 524.203125 206.089844 510.746094 201.492188 495.925781 196.179688 C 481.015625 191.203125 467.777344 185.8125 458.089844 182.097656 C 448.328125 178.425781 441.921875 179.242188 441.964844 179.152344 C 441.9375 179.3125 448.3125 178.722656 457.988281 182.578125 C 467.578125 186.460938 480.855469 192.050781 495.742188 197.023438 C 510.5625 202.335938 524.082031 206.765625 534.003906 209.152344 C 543.964844 211.417969 549.554688 215.265625 549.578125 215.144531 " fill-opacity="1" fill-rule="nonzero"/><path fill="#b2af89" d="M 549.332031 208.257812 C 549.257812 208.621094 526.039062 201.628906 498.285156 188.957031 C 470.46875 175.976562 446.320312 173.871094 446.359375 174.457031 C 446.363281 174.023438 470.304688 176.832031 498.070312 189.789062 C 525.828125 202.457031 549.273438 208.769531 549.332031 208.257812 " fill-opacity="1" fill-rule="nonzero"/><path fill="#b2af89" d="M 441.757812 291.558594 C 441.777344 291.515625 428.367188 284.707031 411.6875 276.59375 C 395.007812 268.476562 381.371094 262.128906 381.355469 262.164062 C 381.328125 262.214844 394.746094 269.011719 411.429688 277.128906 C 428.105469 285.242188 441.734375 291.605469 441.757812 291.558594 " fill-opacity="1" fill-rule="nonzero"/><path fill="#b2af89" d="M 442.609375 298.796875 C 442.625 298.757812 429.214844 292.234375 412.535156 284.472656 C 395.851562 276.707031 382.226562 270.648438 382.203125 270.683594 C 382.179688 270.738281 395.601562 277.246094 412.28125 285.011719 C 428.960938 292.773438 442.585938 298.84375 442.609375 298.796875 " fill-opacity="1" fill-rule="nonzero"/><path fill="#b2af89" d="M 444.3125 313.277344 C 444.328125 313.242188 430.246094 306.429688 412.746094 298.316406 C 395.242188 290.199219 380.949219 283.851562 380.929688 283.886719 C 380.90625 283.941406 394.992188 290.738281 412.496094 298.855469 C 429.996094 306.96875 444.289062 313.328125 444.3125 313.277344 " fill-opacity="1" fill-rule="nonzero"/><path fill="#b2af89" d="M 444.734375 305.609375 C 444.75 305.574219 431.050781 299.234375 414.015625 291.707031 C 396.984375 284.179688 383.074219 278.3125 383.054688 278.351562 C 383.03125 278.402344 396.746094 284.726562 413.777344 292.253906 C 430.808594 299.78125 444.714844 305.660156 444.734375 305.609375 " fill-opacity="1" fill-rule="nonzero"/><path fill="#b8aa69" d="M 471.816406 293.402344 L 471.816406 304.195312 L 525.980469 299.363281 L 525.132812 289.140625 L 471.816406 293.402344 " fill-opacity="1" fill-rule="nonzero"/><path fill="#c9a091" d="M 667.847656 265.429688 C 667.828125 265.222656 618.863281 269.449219 558.574219 275.910156 C 498.285156 282.367188 449.503906 288.609375 449.519531 288.773438 C 449.542969 288.992188 498.503906 284.683594 558.789062 278.222656 C 619.074219 271.761719 667.863281 265.59375 667.847656 265.429688 " fill-opacity="1" fill-rule="nonzero"/><path fill="#3c3b42" d="M 620.167969 266.148438 C 622.222656 265.875 624.3125 267.234375 624.828125 269.1875 L 674.160156 454.648438 C 674.679688 456.597656 673.4375 458.402344 671.378906 458.675781 C 669.324219 458.949219 667.238281 457.589844 666.71875 455.636719 L 617.386719 270.175781 C 616.867188 268.226562 618.113281 266.421875 620.167969 266.148438 " fill-opacity="1" fill-rule="nonzero"/><path fill="#53555c" d="M 632.660156 450.992188 C 632.996094 452.257812 634.363281 453.136719 635.710938 452.957031 L 665.722656 448.964844 C 667.074219 448.785156 667.894531 447.617188 667.554688 446.351562 C 667.21875 445.085938 665.855469 444.207031 664.503906 444.386719 L 634.492188 448.378906 C 633.144531 448.558594 632.328125 449.726562 632.660156 450.992188 " fill-opacity="1" fill-rule="nonzero"/><path fill="#53555c" d="M 627.613281 432.011719 C 627.953125 433.277344 629.316406 434.15625 630.664062 433.976562 L 660.675781 429.988281 C 662.027344 429.808594 662.84375 428.636719 662.507812 427.371094 C 662.171875 426.105469 660.808594 425.226562 659.460938 425.40625 L 629.449219 429.398438 C 628.097656 429.578125 627.273438 430.746094 627.613281 432.011719 " fill-opacity="1" fill-rule="nonzero"/><path fill="#53555c" d="M 622.566406 413.035156 C 622.898438 414.300781 624.265625 415.179688 625.617188 414.996094 L 655.625 411.007812 C 656.972656 410.828125 657.796875 409.660156 657.460938 408.394531 C 657.125 407.125 655.757812 406.246094 654.40625 406.425781 L 624.398438 410.417969 C 623.046875 410.597656 622.226562 411.769531 622.566406 413.035156 " fill-opacity="1" fill-rule="nonzero"/><path fill="#53555c" d="M 617.515625 394.054688 C 617.851562 395.320312 619.21875 396.199219 620.570312 396.015625 L 650.578125 392.03125 C 651.929688 391.847656 652.746094 390.675781 652.410156 389.414062 C 652.078125 388.144531 650.710938 387.265625 649.359375 387.445312 L 619.351562 391.4375 C 618 391.617188 617.179688 392.789062 617.515625 394.054688 " fill-opacity="1" fill-rule="nonzero"/><path fill="#53555c" d="M 612.46875 375.074219 C 612.800781 376.339844 614.171875 377.21875 615.519531 377.039062 L 645.53125 373.046875 C 646.878906 372.867188 647.699219 371.699219 647.363281 370.433594 C 647.027344 369.167969 645.65625 368.289062 644.3125 368.464844 L 614.300781 372.460938 C 612.949219 372.636719 612.128906 373.808594 612.46875 375.074219 " fill-opacity="1" fill-rule="nonzero"/><path fill="#53555c" d="M 607.417969 356.09375 C 607.757812 357.359375 609.121094 358.238281 610.46875 358.058594 L 640.484375 354.070312 C 641.832031 353.886719 642.652344 352.71875 642.3125 351.453125 C 641.980469 350.1875 640.613281 349.308594 639.265625 349.484375 L 609.253906 353.476562 C 607.90625 353.65625 607.082031 354.828125 607.417969 356.09375 " fill-opacity="1" fill-rule="nonzero"/><path fill="#53555c" d="M 602.367188 337.113281 C 602.707031 338.378906 604.074219 339.257812 605.421875 339.078125 L 635.433594 335.089844 C 636.78125 334.910156 637.605469 333.738281 637.269531 332.472656 C 636.929688 331.207031 635.5625 330.328125 634.214844 330.507812 L 604.203125 334.496094 C 602.851562 334.675781 602.035156 335.847656 602.367188 337.113281 " fill-opacity="1" fill-rule="nonzero"/><path fill="#53555c" d="M 597.324219 318.136719 C 597.65625 319.398438 599.023438 320.277344 600.375 320.097656 L 630.382812 316.109375 C 631.734375 315.925781 632.554688 314.757812 632.21875 313.492188 C 631.882812 312.230469 630.515625 311.347656 629.167969 311.523438 L 599.15625 315.519531 C 597.808594 315.695312 596.988281 316.867188 597.324219 318.136719 " fill-opacity="1" fill-rule="nonzero"/><path fill="#53555c" d="M 592.269531 299.15625 C 592.609375 300.417969 593.976562 301.300781 595.324219 301.121094 L 625.339844 297.128906 C 626.683594 296.949219 627.507812 295.777344 627.171875 294.515625 C 626.832031 293.25 625.464844 292.367188 624.117188 292.546875 L 594.105469 296.539062 C 592.757812 296.71875 591.9375 297.890625 592.269531 299.15625 " fill-opacity="1" fill-rule="nonzero"/><path fill="#53555c" d="M 587.226562 280.175781 C 587.5625 281.4375 588.925781 282.320312 590.277344 282.140625 L 620.289062 278.148438 C 621.636719 277.96875 622.457031 276.796875 622.121094 275.535156 C 621.785156 274.269531 620.417969 273.390625 619.070312 273.566406 L 589.058594 277.558594 C 587.710938 277.734375 586.890625 278.910156 587.226562 280.175781 " fill-opacity="1" fill-rule="nonzero"/><path fill="#3c3b42" d="M 585.078125 270.296875 C 587.136719 270.019531 589.222656 271.382812 589.742188 273.332031 L 639.070312 458.792969 C 639.589844 460.746094 638.34375 462.546875 636.289062 462.820312 C 634.234375 463.09375 632.144531 461.734375 631.625 459.78125 L 582.296875 274.324219 C 581.78125 272.375 583.023438 270.570312 585.078125 270.296875 " fill-opacity="1" fill-rule="nonzero"/><path fill="#3c3b42" d="M 417.257812 336.601562 C 418.636719 337.070312 419.441406 338.371094 419.054688 339.515625 L 382.394531 448.085938 C 382.003906 449.226562 380.578125 449.773438 379.199219 449.304688 C 377.824219 448.839844 377.019531 447.539062 377.40625 446.394531 L 414.070312 337.824219 C 414.453125 336.679688 415.882812 336.132812 417.257812 336.601562 " fill-opacity="1" fill-rule="nonzero"/><path fill="#53555c" d="M 381.238281 442.238281 C 380.988281 442.980469 381.515625 443.828125 382.421875 444.136719 L 402.523438 450.941406 C 403.425781 451.25 404.363281 450.894531 404.613281 450.15625 C 404.859375 449.414062 404.332031 448.566406 403.429688 448.261719 L 383.324219 441.449219 C 382.421875 441.148438 381.492188 441.5 381.238281 442.238281 " fill-opacity="1" fill-rule="nonzero"/><path fill="#53555c" d="M 384.988281 431.132812 C 384.742188 431.871094 385.269531 432.71875 386.175781 433.023438 L 406.277344 439.828125 C 407.179688 440.136719 408.113281 439.78125 408.363281 439.042969 C 408.613281 438.304688 408.085938 437.453125 407.183594 437.152344 L 387.082031 430.34375 C 386.175781 430.035156 385.238281 430.390625 384.988281 431.132812 " fill-opacity="1" fill-rule="nonzero"/><path fill="#53555c" d="M 388.746094 420.019531 C 388.492188 420.757812 389.019531 421.605469 389.925781 421.914062 L 410.027344 428.71875 C 410.929688 429.027344 411.867188 428.671875 412.117188 427.933594 C 412.367188 427.191406 411.835938 426.34375 410.933594 426.039062 L 390.832031 419.234375 C 389.925781 418.925781 388.996094 419.277344 388.746094 420.019531 " fill-opacity="1" fill-rule="nonzero"/><path fill="#53555c" d="M 392.492188 408.90625 C 392.246094 409.648438 392.773438 410.496094 393.679688 410.800781 L 413.78125 417.609375 C 414.683594 417.917969 415.617188 417.5625 415.867188 416.824219 C 416.121094 416.078125 415.589844 415.234375 414.6875 414.925781 L 394.585938 408.121094 C 393.679688 407.816406 392.746094 408.167969 392.492188 408.90625 " fill-opacity="1" fill-rule="nonzero"/><path fill="#53555c" d="M 396.246094 397.796875 C 395.996094 398.535156 396.523438 399.386719 397.429688 399.691406 L 417.53125 406.5 C 418.4375 406.804688 419.371094 406.453125 419.625 405.710938 C 419.871094 404.96875 419.339844 404.121094 418.4375 403.8125 L 398.335938 397.007812 C 397.429688 396.703125 396.496094 397.054688 396.246094 397.796875 " fill-opacity="1" fill-rule="nonzero"/><path fill="#53555c" d="M 400 386.683594 C 399.75 387.425781 400.28125 388.273438 401.183594 388.582031 L 421.285156 395.386719 C 422.191406 395.691406 423.121094 395.34375 423.375 394.601562 C 423.625 393.859375 423.09375 393.011719 422.191406 392.707031 L 402.089844 385.898438 C 401.1875 385.59375 400.25 385.945312 400 386.683594 " fill-opacity="1" fill-rule="nonzero"/><path fill="#53555c" d="M 403.75 375.574219 C 403.503906 376.316406 404.027344 377.160156 404.933594 377.46875 L 425.035156 384.277344 C 425.9375 384.582031 426.875 384.230469 427.125 383.488281 C 427.375 382.75 426.847656 381.898438 425.941406 381.59375 L 405.839844 374.785156 C 404.933594 374.480469 404.003906 374.832031 403.75 375.574219 " fill-opacity="1" fill-rule="nonzero"/><path fill="#53555c" d="M 407.503906 364.464844 C 407.253906 365.207031 407.785156 366.050781 408.6875 366.359375 L 428.789062 373.164062 C 429.695312 373.472656 430.625 373.121094 430.875 372.378906 C 431.128906 371.636719 430.597656 370.785156 429.695312 370.484375 L 409.59375 363.679688 C 408.691406 363.371094 407.753906 363.726562 407.503906 364.464844 " fill-opacity="1" fill-rule="nonzero"/><path fill="#53555c" d="M 411.257812 353.355469 C 411.003906 354.09375 411.535156 354.941406 412.4375 355.246094 L 432.539062 362.054688 C 433.445312 362.363281 434.378906 362.007812 434.632812 361.269531 C 434.878906 360.523438 434.351562 359.679688 433.445312 359.371094 L 413.34375 352.566406 C 412.441406 352.257812 411.507812 352.613281 411.257812 353.355469 " fill-opacity="1" fill-rule="nonzero"/><path fill="#53555c" d="M 415.007812 342.242188 C 414.757812 342.984375 415.289062 343.832031 416.191406 344.136719 L 436.292969 350.941406 C 437.195312 351.25 438.128906 350.894531 438.378906 350.152344 C 438.632812 349.414062 438.101562 348.566406 437.199219 348.261719 L 417.097656 341.457031 C 416.191406 341.148438 415.257812 341.503906 415.007812 342.242188 " fill-opacity="1" fill-rule="nonzero"/><path fill="#3c3b42" d="M 441.570312 344.832031 C 442.945312 345.296875 443.75 346.601562 443.363281 347.742188 L 406.699219 456.3125 C 406.316406 457.453125 404.882812 458.003906 403.507812 457.539062 C 402.132812 457.070312 401.328125 455.765625 401.714844 454.625 L 438.378906 346.054688 C 438.761719 344.914062 440.191406 344.367188 441.570312 344.832031 " fill-opacity="1" fill-rule="nonzero"/><path fill="#3c3b42" d="M 478.988281 168.558594 C 480.6875 168.808594 481.363281 169.78125 480.488281 170.734375 L 397.644531 261.289062 C 396.769531 262.238281 394.6875 262.808594 392.984375 262.5625 C 391.285156 262.308594 390.609375 261.339844 391.484375 260.382812 L 474.328125 169.828125 C 475.203125 168.878906 477.285156 168.308594 478.988281 168.558594 " fill-opacity="1" fill-rule="nonzero"/><path fill="#53555c" d="M 397.914062 256.703125 C 397.347656 257.320312 397.792969 257.949219 398.910156 258.113281 L 423.75 261.753906 C 424.863281 261.914062 426.226562 261.546875 426.789062 260.929688 C 427.355469 260.3125 426.910156 259.679688 425.792969 259.519531 L 400.957031 255.875 C 399.839844 255.714844 398.480469 256.082031 397.914062 256.703125 " fill-opacity="1" fill-rule="nonzero"/><path fill="#53555c" d="M 406.390625 247.429688 C 405.824219 248.050781 406.273438 248.683594 407.390625 248.847656 L 432.230469 252.488281 C 433.34375 252.648438 434.707031 252.28125 435.269531 251.664062 C 435.835938 251.046875 435.390625 250.414062 434.273438 250.25 L 409.433594 246.609375 C 408.316406 246.445312 406.953125 246.8125 406.390625 247.429688 " fill-opacity="1" fill-rule="nonzero"/><path fill="#53555c" d="M 414.867188 238.164062 C 414.304688 238.78125 414.75 239.414062 415.863281 239.578125 L 440.703125 243.21875 C 441.820312 243.382812 443.183594 243.011719 443.75 242.394531 C 444.3125 241.777344 443.871094 241.144531 442.75 240.984375 L 417.914062 237.34375 C 416.796875 237.179688 415.429688 237.546875 414.867188 238.164062 " fill-opacity="1" fill-rule="nonzero"/><path fill="#53555c" d="M 423.34375 228.898438 C 422.78125 229.515625 423.226562 230.148438 424.339844 230.3125 L 449.179688 233.949219 C 450.300781 234.117188 451.664062 233.746094 452.226562 233.132812 C 452.792969 232.511719 452.347656 231.878906 451.230469 231.714844 L 426.394531 228.074219 C 425.273438 227.910156 423.914062 228.28125 423.34375 228.898438 " fill-opacity="1" fill-rule="nonzero"/><path fill="#53555c" d="M 431.824219 219.632812 C 431.257812 220.25 431.707031 220.882812 432.824219 221.042969 L 457.660156 224.6875 C 458.777344 224.847656 460.136719 224.480469 460.707031 223.859375 C 461.273438 223.242188 460.824219 222.613281 459.707031 222.449219 L 434.867188 218.808594 C 433.753906 218.644531 432.386719 219.015625 431.824219 219.632812 " fill-opacity="1" fill-rule="nonzero"/><path fill="#53555c" d="M 440.304688 210.363281 C 439.742188 210.980469 440.183594 211.613281 441.300781 211.777344 L 466.140625 215.414062 C 467.257812 215.582031 468.621094 215.214844 469.183594 214.59375 C 469.753906 213.980469 469.300781 213.34375 468.1875 213.179688 L 443.347656 209.539062 C 442.234375 209.378906 440.867188 209.746094 440.304688 210.363281 " fill-opacity="1" fill-rule="nonzero"/><path fill="#53555c" d="M 448.78125 201.097656 C 448.21875 201.714844 448.664062 202.347656 449.78125 202.511719 L 474.617188 206.152344 C 475.734375 206.3125 477.097656 205.945312 477.664062 205.328125 C 478.230469 204.710938 477.78125 204.078125 476.664062 203.914062 L 451.828125 200.273438 C 450.710938 200.113281 449.347656 200.480469 448.78125 201.097656 " fill-opacity="1" fill-rule="nonzero"/><path fill="#53555c" d="M 457.261719 191.828125 C 456.695312 192.445312 457.144531 193.078125 458.257812 193.242188 L 483.097656 196.882812 C 484.210938 197.046875 485.574219 196.679688 486.140625 196.0625 C 486.707031 195.445312 486.261719 194.808594 485.140625 194.644531 L 460.304688 191.003906 C 459.191406 190.84375 457.828125 191.210938 457.261719 191.828125 " fill-opacity="1" fill-rule="nonzero"/><path fill="#53555c" d="M 465.738281 182.5625 C 465.171875 183.179688 465.621094 183.816406 466.734375 183.976562 L 491.574219 187.617188 C 492.691406 187.78125 494.054688 187.410156 494.617188 186.792969 C 495.183594 186.175781 494.738281 185.542969 493.621094 185.375 L 468.785156 181.742188 C 467.664062 181.574219 466.304688 181.945312 465.738281 182.5625 " fill-opacity="1" fill-rule="nonzero"/><path fill="#53555c" d="M 474.214844 173.292969 C 473.652344 173.910156 474.097656 174.542969 475.214844 174.710938 L 500.054688 178.347656 C 501.167969 178.511719 502.535156 178.144531 503.097656 177.527344 C 503.660156 176.910156 503.214844 176.273438 502.097656 176.113281 L 477.261719 172.472656 C 476.144531 172.308594 474.78125 172.675781 474.214844 173.292969 " fill-opacity="1" fill-rule="nonzero"/><path fill="#3c3b42" d="M 509.019531 172.960938 C 510.726562 173.203125 511.386719 174.191406 510.5 175.167969 L 425.628906 267.933594 C 424.734375 268.90625 422.628906 269.5 420.917969 269.257812 C 419.214844 269.015625 418.550781 268.027344 419.449219 267.050781 L 504.316406 174.289062 C 505.207031 173.308594 507.316406 172.714844 509.019531 172.960938 " fill-opacity="1" fill-rule="nonzero"/><path fill="#d7d6d9" d="M 590.722656 144.480469 C 590.722656 144.480469 642.46875 140.597656 653.078125 140.597656 C 663.6875 140.597656 664.304688 162.101562 662.648438 170.128906 C 660.996094 178.164062 649.972656 183.601562 649.972656 183.601562 L 587.875 169.09375 L 472.996094 153.03125 C 472.996094 153.03125 465.234375 138.261719 467.558594 133.34375 C 469.890625 128.417969 480.230469 123.828125 485.054688 124.644531 C 489.875 125.457031 590.722656 144.480469 590.722656 144.480469 " fill-opacity="1" fill-rule="nonzero"/><path fill="#bebfc3" d="M 615.4375 142.707031 C 602.191406 143.621094 590.722656 144.480469 590.722656 144.480469 C 590.722656 144.480469 489.875 125.457031 485.054688 124.644531 C 480.230469 123.828125 469.890625 128.417969 467.558594 133.34375 C 465.234375 138.261719 472.996094 153.03125 472.996094 153.03125 L 587.875 169.09375 L 648.277344 183.207031 C 638.769531 176.347656 627.976562 171.371094 618.664062 163.914062 C 612.453125 159.074219 614.832031 150.550781 615.4375 142.707031 " fill-opacity="1" fill-rule="nonzero"/><path fill="#a5a8ad" d="M 628.855469 178.667969 C 615.398438 170.1875 602.667969 160.296875 607.941406 143.234375 C 598.144531 143.925781 590.722656 144.480469 590.722656 144.480469 C 590.722656 144.480469 489.875 125.457031 485.054688 124.644531 C 482.40625 124.195312 478.09375 125.378906 474.359375 127.351562 C 476.132812 135.859375 477.207031 144.4375 476.675781 153.546875 L 587.875 169.09375 L 628.855469 178.667969 " fill-opacity="1" fill-rule="nonzero"/><path fill="#bebfc3" d="M 656.203125 140.554688 C 653.34375 140.25 650.597656 140.972656 648.160156 142.925781 C 638.847656 153.808594 641.949219 168.574219 648.9375 180.234375 C 649.332031 181.027344 650.335938 181.617188 651.636719 181.902344 C 654.777344 180.027344 661.398438 175.433594 662.648438 169.355469 C 664.125 162.199219 663.789062 144.375 656.203125 140.554688 " fill-opacity="1" fill-rule="nonzero"/><path fill="#8a9495" d="M 655.726562 163.136719 C 655.773438 163.128906 655.882812 164.609375 654.914062 167.039062 C 654.65625 167.632812 654.347656 168.3125 653.816406 168.933594 C 653.59375 169.578125 652.105469 170.46875 651.234375 169.53125 C 649.714844 168.113281 649.117188 166.035156 648.628906 163.753906 C 647.996094 161.425781 648.929688 158.535156 650.726562 156.433594 C 652.292969 154.242188 656.335938 152.53125 659.074219 155.335938 C 661.027344 158.484375 659.855469 161.914062 659.183594 165.058594 C 658.160156 168.242188 657.582031 171.496094 655.660156 174.75 C 653.898438 177.527344 649.976562 180.832031 646.363281 178.410156 C 643.429688 175.636719 643.96875 172.027344 643.605469 169.105469 C 643.453125 163.015625 644.066406 157.582031 645.007812 153.078125 C 645.742188 148.398438 648.964844 145.371094 651.425781 144.628906 C 653.871094 143.722656 655.351562 143.828125 655.339844 143.898438 C 655.359375 144.011719 653.917969 144.097656 651.636719 145.121094 C 649.304688 146.058594 646.574219 148.75 645.949219 153.273438 C 645.140625 157.691406 644.640625 163.113281 644.855469 169.054688 C 645.105469 171.816406 645.089844 175.621094 647.136719 177.328125 C 649.421875 179.101562 652.929688 176.617188 654.527344 174.003906 C 656.933594 168.285156 660.128906 160.875 658.09375 156.121094 C 653.511719 152.441406 648.292969 159.929688 649.574219 163.601562 C 649.9375 165.726562 650.578125 167.832031 651.710938 168.9375 C 652.863281 169.941406 653.925781 167.628906 654.429688 166.816406 C 655.503906 164.566406 655.597656 163.105469 655.726562 163.136719 " fill-opacity="1" fill-rule="nonzero"/><path fill="#383723" d="M 474.542969 116.042969 C 474.542969 116.042969 484.847656 170.128906 487.058594 174.742188 C 489.265625 179.355469 521.308594 177.054688 531.519531 180.019531 C 541.726562 182.988281 550.617188 187.277344 553.582031 187.277344 C 556.546875 187.277344 580.585938 176.0625 596.066406 180.347656 C 602.734375 182.195312 609.242188 112.085938 609.242188 112.085938 C 609.242188 112.085938 479.484375 108.460938 474.542969 116.042969 " fill-opacity="1" fill-rule="nonzero"/><path fill="#424431" d="M 504.183594 162.210938 C 494.714844 156.945312 489.277344 143.011719 484.863281 133.851562 C 486.433594 141.511719 492.898438 164.101562 494.960938 171.664062 C 510.25 178.511719 528.300781 171.851562 547.878906 184.636719 C 546.882812 184.023438 544.449219 173.796875 543.699219 173.425781 C 531.027344 165.59375 515.28125 168.382812 504.183594 162.210938 " fill-opacity="1" fill-rule="nonzero"/><path fill="#2b2912" d="M 474.542969 116.042969 C 474.542969 116.042969 475.234375 119.671875 476.292969 125.121094 C 476.871094 124.804688 477.457031 124.492188 478.046875 124.191406 C 506.429688 128.570312 532.371094 146.289062 561.488281 141.105469 C 568.128906 152.632812 569.707031 165.648438 570.230469 178.75 C 571.328125 179.601562 572.421875 180.480469 573.539062 181.332031 C 581.050781 179.546875 589.359375 178.492188 596.066406 180.347656 C 602.734375 182.195312 609.242188 112.085938 609.242188 112.085938 C 609.242188 112.085938 479.484375 108.460938 474.542969 116.042969 " fill-opacity="1" fill-rule="nonzero"/><path fill="#251f19" d="M 474.542969 116.042969 C 474.542969 116.042969 475.078125 118.859375 475.933594 123.257812 C 502.726562 126.972656 529.222656 134.035156 556.492188 136.5625 C 567.824219 134.601562 578.957031 131.054688 590.46875 130.554688 C 598.261719 130.164062 603.292969 135.320312 605.824219 142.050781 C 607.90625 126.480469 609.242188 112.085938 609.242188 112.085938 C 609.242188 112.085938 479.484375 108.460938 474.542969 116.042969 " fill-opacity="1" fill-rule="nonzero"/><g clip-path="url(#0477f79c4b)"><path fill="#383723" d="M 532.164062 92.796875 L 428.914062 113.5625 L 552.425781 132.882812 L 655.675781 112.117188 L 532.164062 92.796875 " fill-opacity="1" fill-rule="nonzero"/></g><path fill="#424431" d="M 553.09375 128.617188 L 452.75 113.105469 L 530.589844 97.21875 L 496.28125 111.996094 L 553.09375 128.617188 " fill-opacity="1" fill-rule="nonzero"/><path fill="#6b7068" d="M 535.25 105.269531 C 535.25 103.933594 537.5625 102.851562 540.410156 102.851562 C 543.257812 102.851562 545.570312 103.933594 545.570312 105.269531 C 545.570312 106.605469 543.257812 107.6875 540.410156 107.6875 C 537.5625 107.6875 535.25 106.605469 535.25 105.269531 " fill-opacity="1" fill-rule="nonzero"/><path fill="#6b7068" d="M 518.917969 127.746094 C 518.917969 128.664062 518.667969 139.796875 518.441406 149.621094 C 518.242188 158.367188 518.070312 165.921875 518.070312 166.488281 L 519.386719 166.488281 C 519.386719 165.933594 519.566406 158.027344 519.757812 149.652344 C 519.988281 139.492188 520.230469 129.015625 520.234375 127.816406 C 520.769531 126.1875 533.164062 113.421875 540.875 105.738281 L 539.945312 104.800781 C 532.089844 112.632812 518.917969 126.019531 518.917969 127.746094 " fill-opacity="1" fill-rule="nonzero"/><path fill="#2b2912" d="M 524.753906 203.800781 C 523.433594 195.144531 525.898438 186.402344 524.621094 177.867188 C 524.378906 176.230469 523.957031 174.445312 522.964844 173.085938 C 521.308594 170.824219 522.195312 171.460938 522.574219 169.019531 C 523.03125 166.050781 517.726562 164.546875 517.667969 165.285156 C 517.777344 165.632812 518.003906 165.800781 518.34375 165.785156 C 515.941406 166.445312 514.734375 169.546875 515.324219 171.769531 C 516.078125 174.613281 515.125 176.3125 514.898438 179.144531 C 514.40625 185.25 515.148438 191.746094 515.570312 197.847656 C 515.804688 201.191406 516.132812 204.808594 515.316406 208.101562 C 514.667969 210.722656 513.277344 213.128906 513.003906 215.851562 C 512.808594 217.773438 512.507812 236.503906 513.589844 236.46875 C 513.804688 236.464844 515.199219 226.480469 515.558594 225.359375 C 515.644531 226.113281 516.003906 233.816406 516.195312 233.800781 C 517.347656 233.699219 516.347656 227.851562 517.085938 227.179688 C 516.550781 227.660156 517.683594 233.054688 517.648438 233.289062 C 517.808594 232.269531 518.046875 231.152344 518.109375 230.054688 C 518.179688 232.242188 518.222656 235.558594 518.476562 235.632812 C 519.15625 235.824219 519.402344 228.546875 519.417969 227.878906 C 519.613281 228.867188 520.035156 236.453125 520.777344 236.523438 C 523.121094 236.742188 521.503906 221.242188 521.277344 219.402344 C 520.488281 213.070312 525.707031 210.007812 524.753906 203.800781 " fill-opacity="1" fill-rule="nonzero"/></svg>