<svg xmlns="http://www.w3.org/2000/svg" xmlns:xlink="http://www.w3.org/1999/xlink" width="1366" zoomAndPan="magnify" viewBox="0 0 1024.5 576" height="768" preserveAspectRatio="xMidYMid meet" version="1.0"><defs><clipPath id="e3c50001cf"><path d="M 512 194 L 703.667969 194 L 703.667969 482 L 512 482 Z M 512 194 " clip-rule="nonzero"/></clipPath><clipPath id="0ba522cb0e"><path d="M 451 477 L 550 477 L 550 538.640625 L 451 538.640625 Z M 451 477 " clip-rule="nonzero"/></clipPath><clipPath id="2987d511a6"><path d="M 561 477 L 654 477 L 654 538.640625 L 561 538.640625 Z M 561 477 " clip-rule="nonzero"/></clipPath><clipPath id="73ac1a5af2"><path d="M 334.847656 145.085938 L 532 145.085938 L 532 342 L 334.847656 342 Z M 334.847656 145.085938 " clip-rule="nonzero"/></clipPath></defs><g clip-path="url(#e3c50001cf)"><path fill="#000000" d="M 592.59375 481.074219 C 592.21875 481.078125 591.84375 481.046875 591.472656 480.980469 C 591.105469 480.914062 590.742188 480.8125 590.390625 480.679688 C 590.039062 480.546875 589.703125 480.382812 589.378906 480.1875 C 589.058594 479.992188 588.757812 479.769531 588.476562 479.519531 C 588.195312 479.269531 587.941406 478.996094 587.710938 478.699219 C 587.480469 478.402344 587.277344 478.085938 587.105469 477.75 C 586.933594 477.417969 586.792969 477.070312 586.683594 476.710938 C 586.574219 476.347656 586.5 475.980469 586.457031 475.609375 C 586.410156 475.207031 586.402344 474.808594 586.433594 474.40625 C 586.464844 474.007812 586.535156 473.613281 586.640625 473.226562 C 586.75 472.839844 586.894531 472.464844 587.078125 472.109375 C 587.257812 471.75 587.472656 471.410156 587.722656 471.09375 C 587.96875 470.777344 588.246094 470.488281 588.550781 470.226562 C 588.855469 469.964844 589.179688 469.734375 589.53125 469.539062 C 589.878906 469.339844 590.246094 469.175781 590.625 469.050781 C 591.007812 468.925781 591.398438 468.835938 591.796875 468.789062 C 649.175781 462.09375 690.78125 439.730469 690.78125 415.585938 C 691.019531 406.441406 690.144531 397.40625 688.160156 388.476562 C 686.179688 379.550781 683.144531 370.996094 679.0625 362.8125 C 674.601562 353.84375 671.285156 344.472656 669.117188 334.691406 C 666.949219 324.914062 665.988281 315.015625 666.234375 305.003906 L 666.234375 292.714844 C 666.234375 273.363281 662 246.882812 641.6875 230.542969 C 639.542969 228.757812 637.265625 227.160156 634.855469 225.757812 C 632.441406 224.351562 629.929688 223.160156 627.320312 222.175781 C 624.707031 221.191406 622.035156 220.433594 619.296875 219.898438 C 616.558594 219.367188 613.792969 219.0625 611.003906 218.992188 C 607.222656 219.097656 603.5 219.621094 599.835938 220.550781 C 596.171875 221.484375 592.652344 222.808594 589.28125 224.523438 C 588.710938 224.792969 588.117188 224.96875 587.492188 225.058594 C 586.871094 225.144531 586.25 225.136719 585.628906 225.03125 C 585.007812 224.925781 584.417969 224.730469 583.859375 224.445312 C 583.296875 224.160156 582.792969 223.796875 582.34375 223.355469 C 579.285156 220.617188 575.996094 218.1875 572.480469 216.070312 C 568.964844 213.949219 565.28125 212.179688 561.433594 210.753906 C 557.582031 209.328125 553.636719 208.277344 549.589844 207.597656 C 545.542969 206.914062 541.464844 206.617188 537.363281 206.707031 C 531.546875 206.714844 525.777344 207.246094 520.058594 208.304688 C 519.65625 208.375 519.25 208.40625 518.839844 208.398438 C 518.429688 208.390625 518.023438 208.34375 517.625 208.257812 C 517.226562 208.171875 516.839844 208.042969 516.460938 207.878906 C 516.085938 207.71875 515.730469 207.519531 515.394531 207.285156 C 515.058594 207.050781 514.75 206.785156 514.464844 206.492188 C 514.183594 206.195312 513.929688 205.875 513.707031 205.53125 C 513.488281 205.1875 513.300781 204.824219 513.152344 204.441406 C 513.003906 204.058594 512.890625 203.667969 512.820312 203.265625 C 512.746094 202.863281 512.714844 202.453125 512.722656 202.046875 C 512.730469 201.636719 512.777344 201.230469 512.863281 200.832031 C 512.949219 200.429688 513.074219 200.042969 513.238281 199.667969 C 513.402344 199.289062 513.601562 198.933594 513.835938 198.597656 C 514.066406 198.261719 514.332031 197.949219 514.625 197.667969 C 514.921875 197.382812 515.242188 197.128906 515.585938 196.90625 C 515.929688 196.6875 516.292969 196.5 516.671875 196.351562 C 517.054688 196.199219 517.445312 196.089844 517.847656 196.015625 C 524.304688 194.894531 530.808594 194.363281 537.363281 194.417969 C 541.890625 194.382812 546.386719 194.730469 550.855469 195.460938 C 555.324219 196.1875 559.695312 197.292969 563.976562 198.765625 C 568.257812 200.242188 572.382812 202.070312 576.351562 204.246094 C 580.320312 206.425781 584.078125 208.925781 587.621094 211.742188 C 595.085938 208.523438 602.878906 206.84375 611.003906 206.707031 C 614.484375 206.777344 617.9375 207.136719 621.355469 207.789062 C 624.777344 208.441406 628.121094 209.375 631.386719 210.585938 C 634.648438 211.800781 637.789062 213.277344 640.808594 215.015625 C 643.824219 216.757812 646.675781 218.738281 649.359375 220.957031 C 668.136719 236.070312 678.507812 261.566406 678.507812 292.714844 L 678.507812 305.003906 C 678.273438 314.144531 679.148438 323.179688 681.128906 332.109375 C 683.113281 341.039062 686.144531 349.59375 690.230469 357.773438 C 694.691406 366.742188 698.003906 376.117188 700.175781 385.894531 C 702.34375 395.675781 703.304688 405.570312 703.054688 415.585938 C 703.054688 447.039062 658.933594 473.335938 593.332031 481.015625 Z M 592.59375 481.074219 " fill-opacity="1" fill-rule="nonzero"/></g><path fill="#000000" d="M 518.953125 481.074219 L 518.214844 481.074219 C 452.613281 473.335938 408.492188 447.039062 408.492188 415.585938 C 408.242188 405.570312 409.203125 395.675781 411.371094 385.894531 C 413.542969 376.117188 416.855469 366.742188 421.316406 357.773438 C 424.929688 350.207031 427.792969 342.363281 429.90625 334.246094 C 429.996094 333.847656 430.121094 333.457031 430.285156 333.085938 C 430.449219 332.710938 430.648438 332.355469 430.882812 332.019531 C 431.117188 331.6875 431.382812 331.378906 431.679688 331.097656 C 431.972656 330.816406 432.292969 330.566406 432.640625 330.347656 C 432.984375 330.132812 433.351562 329.949219 433.730469 329.804688 C 434.113281 329.660156 434.507812 329.554688 434.910156 329.488281 C 435.3125 329.421875 435.71875 329.398438 436.125 329.410156 C 436.535156 329.425781 436.9375 329.480469 437.332031 329.574219 C 437.722656 329.671875 438.101562 329.808594 438.464844 329.980469 C 438.832031 330.148438 439.175781 330.355469 439.5 330.59375 C 439.824219 330.835938 440.121094 331.101562 440.390625 331.402344 C 440.664062 331.699219 440.902344 332.019531 441.109375 332.363281 C 441.316406 332.710938 441.488281 333.070312 441.625 333.453125 C 441.761719 333.832031 441.863281 334.21875 441.921875 334.617188 C 441.984375 335.015625 442.003906 335.417969 441.984375 335.820312 C 441.96875 336.222656 441.910156 336.617188 441.8125 337.007812 C 439.519531 345.847656 436.410156 354.386719 432.484375 362.628906 C 428.386719 370.835938 425.347656 379.421875 423.363281 388.382812 C 421.378906 397.34375 420.511719 406.410156 420.765625 415.585938 C 420.765625 439.730469 462.371094 462.09375 519.6875 468.789062 C 520.089844 468.835938 520.484375 468.917969 520.867188 469.042969 C 521.253906 469.164062 521.621094 469.324219 521.972656 469.519531 C 522.328125 469.71875 522.65625 469.945312 522.964844 470.207031 C 523.273438 470.46875 523.550781 470.757812 523.804688 471.074219 C 524.054688 471.390625 524.273438 471.730469 524.457031 472.089844 C 524.640625 472.449219 524.785156 472.824219 524.898438 473.214844 C 525.007812 473.601562 525.078125 473.996094 525.113281 474.402344 C 525.144531 474.804688 525.136719 475.207031 525.089844 475.609375 C 525.046875 475.980469 524.972656 476.347656 524.863281 476.710938 C 524.753906 477.070312 524.613281 477.417969 524.441406 477.75 C 524.269531 478.085938 524.066406 478.402344 523.835938 478.699219 C 523.605469 478.996094 523.351562 479.269531 523.070312 479.519531 C 522.789062 479.769531 522.488281 479.992188 522.164062 480.1875 C 521.84375 480.382812 521.507812 480.546875 521.15625 480.679688 C 520.804688 480.8125 520.441406 480.914062 520.070312 480.980469 C 519.703125 481.046875 519.328125 481.078125 518.953125 481.074219 Z M 518.953125 481.074219 " fill-opacity="1" fill-rule="nonzero"/><path fill="#000000" d="M 555.773438 489.308594 C 554.265625 489.308594 552.761719 489.269531 551.257812 489.195312 C 549.75 489.121094 548.25 489.011719 546.75 488.863281 C 545.25 488.714844 543.757812 488.53125 542.265625 488.308594 C 540.777344 488.089844 539.292969 487.832031 537.816406 487.535156 C 536.335938 487.242188 534.867188 486.914062 533.40625 486.546875 C 531.945312 486.179688 530.492188 485.777344 529.050781 485.339844 C 527.609375 484.902344 526.179688 484.429688 524.761719 483.921875 C 523.34375 483.414062 521.9375 482.871094 520.546875 482.292969 C 519.15625 481.714844 517.777344 481.105469 516.417969 480.460938 C 515.054688 479.816406 513.707031 479.136719 512.378906 478.425781 C 511.050781 477.714844 509.742188 476.972656 508.449219 476.195312 C 507.15625 475.421875 505.882812 474.613281 504.632812 473.777344 C 503.378906 472.9375 502.148438 472.070312 500.9375 471.171875 C 499.726562 470.273438 498.539062 469.347656 497.375 468.390625 C 496.210938 467.433594 495.070312 466.449219 493.957031 465.433594 C 492.839844 464.421875 491.75 463.382812 490.683594 462.316406 C 489.617188 461.25 488.578125 460.160156 487.566406 459.039062 C 486.554688 457.921875 485.570312 456.78125 484.617188 455.617188 C 483.660156 454.449219 482.734375 453.261719 481.835938 452.050781 C 480.9375 450.839844 480.070312 449.605469 479.234375 448.351562 C 478.398438 447.097656 477.59375 445.824219 476.816406 444.53125 C 476.042969 443.238281 475.300781 441.925781 474.589844 440.59375 C 473.878906 439.265625 473.203125 437.917969 472.558594 436.554688 C 471.914062 435.191406 471.304688 433.8125 470.730469 432.421875 C 470.152344 431.027344 469.609375 429.621094 469.101562 428.199219 C 468.59375 426.78125 468.121094 425.347656 467.683594 423.90625 C 467.246094 422.460938 466.847656 421.007812 466.480469 419.546875 C 466.113281 418.082031 465.785156 416.613281 465.492188 415.132812 C 465.195312 413.652344 464.9375 412.167969 464.71875 410.675781 C 464.496094 409.183594 464.3125 407.6875 464.164062 406.1875 C 464.015625 404.6875 463.90625 403.183594 463.832031 401.675781 C 463.757812 400.171875 463.722656 398.664062 463.722656 397.15625 L 463.722656 366.4375 C 463.722656 366.035156 463.761719 365.632812 463.839844 365.238281 C 463.917969 364.84375 464.035156 364.457031 464.1875 364.085938 C 464.34375 363.714844 464.53125 363.359375 464.753906 363.023438 C 464.980469 362.6875 465.234375 362.378906 465.519531 362.09375 C 465.804688 361.808594 466.113281 361.554688 466.449219 361.328125 C 466.785156 361.105469 467.136719 360.914062 467.511719 360.761719 C 467.882812 360.605469 468.265625 360.492188 468.660156 360.410156 C 469.054688 360.332031 469.457031 360.292969 469.859375 360.292969 C 470.261719 360.292969 470.660156 360.332031 471.054688 360.410156 C 471.449219 360.492188 471.835938 360.605469 472.207031 360.761719 C 472.578125 360.914062 472.933594 361.105469 473.269531 361.328125 C 473.601562 361.554688 473.914062 361.808594 474.199219 362.09375 C 474.484375 362.378906 474.738281 362.6875 474.960938 363.023438 C 475.183594 363.359375 475.375 363.714844 475.527344 364.085938 C 475.683594 364.457031 475.796875 364.84375 475.878906 365.238281 C 475.957031 365.632812 475.996094 366.035156 475.996094 366.4375 L 475.996094 397.15625 C 475.996094 398.460938 476.027344 399.769531 476.089844 401.074219 C 476.15625 402.378906 476.25 403.683594 476.378906 404.984375 C 476.507812 406.285156 476.667969 407.582031 476.859375 408.875 C 477.050781 410.167969 477.273438 411.453125 477.527344 412.734375 C 477.78125 414.019531 478.070312 415.292969 478.386719 416.5625 C 478.703125 417.828125 479.050781 419.085938 479.429688 420.339844 C 479.808594 421.589844 480.21875 422.832031 480.660156 424.0625 C 481.097656 425.292969 481.566406 426.511719 482.066406 427.71875 C 482.566406 428.925781 483.097656 430.121094 483.65625 431.300781 C 484.214844 432.484375 484.800781 433.652344 485.414062 434.804688 C 486.03125 435.957031 486.675781 437.09375 487.34375 438.214844 C 488.015625 439.335938 488.714844 440.4375 489.441406 441.527344 C 490.164062 442.613281 490.917969 443.679688 491.695312 444.730469 C 492.472656 445.78125 493.277344 446.8125 494.105469 447.820312 C 494.933594 448.832031 495.785156 449.820312 496.660156 450.789062 C 497.539062 451.757812 498.4375 452.703125 499.363281 453.628906 C 500.285156 454.550781 501.230469 455.453125 502.199219 456.332031 C 503.164062 457.210938 504.152344 458.0625 505.164062 458.890625 C 506.171875 459.722656 507.199219 460.523438 508.25 461.304688 C 509.296875 462.082031 510.367188 462.835938 511.449219 463.5625 C 512.535156 464.285156 513.640625 464.984375 514.757812 465.65625 C 515.878906 466.328125 517.015625 466.972656 518.167969 467.589844 C 519.316406 468.207031 520.484375 468.792969 521.664062 469.351562 C 522.84375 469.910156 524.039062 470.441406 525.242188 470.941406 C 526.449219 471.441406 527.667969 471.910156 528.898438 472.351562 C 530.125 472.792969 531.367188 473.203125 532.613281 473.582031 C 533.863281 473.960938 535.121094 474.308594 536.390625 474.628906 C 537.65625 474.945312 538.929688 475.230469 540.210938 475.484375 C 541.488281 475.742188 542.777344 475.964844 544.066406 476.15625 C 545.359375 476.347656 546.652344 476.507812 547.953125 476.636719 C 549.253906 476.765625 550.554688 476.859375 551.859375 476.925781 C 553.164062 476.988281 554.46875 477.019531 555.773438 477.019531 C 557.078125 477.019531 558.382812 476.988281 559.6875 476.925781 C 560.992188 476.859375 562.292969 476.765625 563.59375 476.636719 C 564.890625 476.507812 566.1875 476.347656 567.480469 476.15625 C 568.769531 475.964844 570.054688 475.742188 571.335938 475.484375 C 572.617188 475.230469 573.890625 474.945312 575.15625 474.628906 C 576.425781 474.308594 577.683594 473.960938 578.929688 473.582031 C 580.179688 473.203125 581.421875 472.792969 582.648438 472.351562 C 583.878906 471.910156 585.097656 471.441406 586.304688 470.941406 C 587.507812 470.441406 588.703125 469.910156 589.882812 469.351562 C 591.0625 468.792969 592.230469 468.207031 593.378906 467.589844 C 594.53125 466.972656 595.667969 466.328125 596.789062 465.65625 C 597.90625 464.984375 599.011719 464.285156 600.09375 463.5625 C 601.179688 462.835938 602.25 462.082031 603.296875 461.304688 C 604.34375 460.523438 605.375 459.722656 606.382812 458.890625 C 607.394531 458.0625 608.382812 457.210938 609.347656 456.332031 C 610.316406 455.453125 611.261719 454.550781 612.183594 453.628906 C 613.109375 452.703125 614.007812 451.757812 614.886719 450.789062 C 615.761719 449.820312 616.613281 448.832031 617.441406 447.820312 C 618.269531 446.8125 619.074219 445.78125 619.851562 444.730469 C 620.628906 443.679688 621.378906 442.613281 622.105469 441.527344 C 622.832031 440.4375 623.53125 439.335938 624.199219 438.214844 C 624.871094 437.09375 625.515625 435.957031 626.132812 434.804688 C 626.746094 433.652344 627.332031 432.484375 627.890625 431.300781 C 628.449219 430.121094 628.980469 428.925781 629.476562 427.71875 C 629.976562 426.511719 630.449219 425.292969 630.886719 424.0625 C 631.328125 422.832031 631.738281 421.589844 632.117188 420.339844 C 632.496094 419.085938 632.84375 417.828125 633.160156 416.5625 C 633.476562 415.292969 633.761719 414.019531 634.019531 412.734375 C 634.273438 411.453125 634.496094 410.167969 634.6875 408.875 C 634.878906 407.582031 635.039062 406.285156 635.167969 404.984375 C 635.296875 403.683594 635.390625 402.378906 635.457031 401.074219 C 635.519531 399.769531 635.550781 398.460938 635.550781 397.15625 L 635.550781 366.4375 C 635.550781 366.035156 635.589844 365.632812 635.667969 365.238281 C 635.746094 364.84375 635.863281 364.457031 636.019531 364.085938 C 636.171875 363.714844 636.363281 363.359375 636.585938 363.023438 C 636.808594 362.6875 637.0625 362.378906 637.347656 362.09375 C 637.632812 361.808594 637.945312 361.554688 638.277344 361.328125 C 638.613281 361.105469 638.96875 360.914062 639.339844 360.761719 C 639.710938 360.605469 640.09375 360.492188 640.492188 360.410156 C 640.886719 360.332031 641.285156 360.292969 641.6875 360.292969 C 642.089844 360.292969 642.488281 360.332031 642.886719 360.410156 C 643.28125 360.492188 643.664062 360.605469 644.035156 360.761719 C 644.410156 360.914062 644.761719 361.105469 645.097656 361.328125 C 645.433594 361.554688 645.742188 361.808594 646.027344 362.09375 C 646.3125 362.378906 646.566406 362.6875 646.789062 363.023438 C 647.015625 363.359375 647.203125 363.714844 647.359375 364.085938 C 647.511719 364.457031 647.628906 364.84375 647.707031 365.238281 C 647.785156 365.632812 647.824219 366.035156 647.824219 366.4375 L 647.824219 397.15625 C 647.824219 398.664062 647.789062 400.171875 647.714844 401.675781 C 647.640625 403.183594 647.527344 404.6875 647.382812 406.1875 C 647.234375 407.6875 647.050781 409.183594 646.828125 410.675781 C 646.605469 412.167969 646.351562 413.652344 646.054688 415.132812 C 645.761719 416.613281 645.433594 418.082031 645.066406 419.546875 C 644.699219 421.007812 644.296875 422.460938 643.859375 423.90625 C 643.421875 425.347656 642.953125 426.78125 642.445312 428.199219 C 641.9375 429.621094 641.394531 431.027344 640.816406 432.421875 C 640.242188 433.8125 639.632812 435.191406 638.988281 436.554688 C 638.34375 437.917969 637.664062 439.265625 636.957031 440.59375 C 636.246094 441.925781 635.503906 443.238281 634.726562 444.53125 C 633.953125 445.824219 633.148438 447.097656 632.3125 448.351562 C 631.472656 449.605469 630.605469 450.839844 629.710938 452.050781 C 628.8125 453.261719 627.886719 454.449219 626.929688 455.617188 C 625.972656 456.78125 624.992188 457.921875 623.980469 459.039062 C 622.96875 460.160156 621.929688 461.25 620.863281 462.316406 C 619.796875 463.382812 618.707031 464.421875 617.589844 465.433594 C 616.476562 466.449219 615.335938 467.433594 614.171875 468.390625 C 613.003906 469.347656 611.816406 470.273438 610.609375 471.171875 C 609.398438 472.070312 608.167969 472.9375 606.914062 473.777344 C 605.660156 474.613281 604.390625 475.421875 603.097656 476.195312 C 601.804688 476.972656 600.496094 477.714844 599.164062 478.425781 C 597.835938 479.136719 596.492188 479.816406 595.128906 480.460938 C 593.769531 481.105469 592.390625 481.714844 591 482.292969 C 589.609375 482.871094 588.203125 483.414062 586.785156 483.921875 C 585.367188 484.429688 583.9375 484.902344 582.496094 485.339844 C 581.050781 485.777344 579.601562 486.179688 578.140625 486.546875 C 576.679688 486.914062 575.210938 487.242188 573.730469 487.535156 C 572.253906 487.832031 570.769531 488.089844 569.28125 488.308594 C 567.789062 488.53125 566.296875 488.714844 564.796875 488.863281 C 563.296875 489.011719 561.792969 489.121094 560.289062 489.195312 C 558.785156 489.269531 557.28125 489.308594 555.773438 489.308594 Z M 555.773438 489.308594 " fill-opacity="1" fill-rule="nonzero"/><path fill="#000000" d="M 568.046875 446.304688 C 567.445312 446.304688 566.84375 446.273438 566.242188 446.214844 C 565.640625 446.15625 565.046875 446.066406 564.453125 445.949219 C 563.863281 445.832031 563.28125 445.683594 562.703125 445.507812 C 562.125 445.335938 561.558594 445.132812 561 444.898438 C 560.445312 444.667969 559.898438 444.410156 559.367188 444.125 C 558.835938 443.84375 558.320312 443.53125 557.820312 443.195312 C 557.316406 442.863281 556.832031 442.503906 556.367188 442.121094 C 555.902344 441.738281 555.453125 441.332031 555.027344 440.90625 C 554.601562 440.476562 554.199219 440.03125 553.816406 439.566406 C 553.433594 439.097656 553.074219 438.613281 552.738281 438.113281 C 552.402344 437.609375 552.09375 437.09375 551.808594 436.558594 C 551.527344 436.027344 551.269531 435.484375 551.039062 434.925781 C 550.808594 434.367188 550.605469 433.800781 550.429688 433.222656 C 550.253906 432.644531 550.109375 432.058594 549.988281 431.46875 C 549.871094 430.875 549.785156 430.28125 549.726562 429.679688 C 549.664062 429.078125 549.636719 428.476562 549.636719 427.871094 C 549.636719 427.46875 549.675781 427.070312 549.753906 426.675781 C 549.832031 426.277344 549.949219 425.894531 550.105469 425.519531 C 550.257812 425.148438 550.445312 424.792969 550.671875 424.460938 C 550.894531 424.125 551.148438 423.8125 551.433594 423.527344 C 551.71875 423.242188 552.027344 422.988281 552.363281 422.765625 C 552.699219 422.539062 553.050781 422.351562 553.425781 422.195312 C 553.796875 422.042969 554.179688 421.925781 554.574219 421.847656 C 554.972656 421.769531 555.371094 421.730469 555.773438 421.730469 C 556.175781 421.730469 556.574219 421.769531 556.96875 421.847656 C 557.367188 421.925781 557.75 422.042969 558.121094 422.195312 C 558.492188 422.351562 558.847656 422.539062 559.183594 422.765625 C 559.519531 422.988281 559.828125 423.242188 560.113281 423.527344 C 560.398438 423.8125 560.652344 424.125 560.875 424.460938 C 561.097656 424.792969 561.289062 425.148438 561.441406 425.519531 C 561.597656 425.894531 561.714844 426.277344 561.792969 426.675781 C 561.871094 427.070312 561.910156 427.46875 561.910156 427.871094 C 561.910156 428.277344 561.949219 428.675781 562.027344 429.070312 C 562.105469 429.464844 562.222656 429.851562 562.378906 430.222656 C 562.53125 430.597656 562.71875 430.949219 562.945312 431.285156 C 563.167969 431.621094 563.421875 431.929688 563.707031 432.214844 C 563.992188 432.5 564.300781 432.757812 564.636719 432.980469 C 564.972656 433.203125 565.324219 433.394531 565.699219 433.546875 C 566.070312 433.703125 566.453125 433.820312 566.847656 433.898438 C 567.246094 433.976562 567.644531 434.015625 568.046875 434.015625 C 568.449219 434.015625 568.847656 433.976562 569.242188 433.898438 C 569.640625 433.820312 570.023438 433.703125 570.394531 433.546875 C 570.765625 433.394531 571.121094 433.203125 571.457031 432.980469 C 571.792969 432.757812 572.101562 432.5 572.386719 432.214844 C 572.671875 431.929688 572.925781 431.621094 573.148438 431.285156 C 573.375 430.949219 573.5625 430.597656 573.714844 430.222656 C 573.871094 429.851562 573.988281 429.464844 574.066406 429.070312 C 574.144531 428.675781 574.183594 428.277344 574.183594 427.871094 C 574.183594 427.46875 574.222656 427.070312 574.300781 426.675781 C 574.378906 426.277344 574.496094 425.894531 574.652344 425.519531 C 574.804688 425.148438 574.992188 424.792969 575.21875 424.460938 C 575.441406 424.125 575.695312 423.8125 575.980469 423.527344 C 576.265625 423.242188 576.574219 422.988281 576.910156 422.765625 C 577.246094 422.539062 577.597656 422.351562 577.972656 422.195312 C 578.34375 422.042969 578.726562 421.925781 579.121094 421.847656 C 579.519531 421.769531 579.917969 421.730469 580.320312 421.730469 C 580.722656 421.730469 581.121094 421.769531 581.515625 421.847656 C 581.914062 421.925781 582.296875 422.042969 582.667969 422.195312 C 583.039062 422.351562 583.394531 422.539062 583.730469 422.765625 C 584.066406 422.988281 584.375 423.242188 584.660156 423.527344 C 584.945312 423.8125 585.199219 424.125 585.421875 424.460938 C 585.648438 424.792969 585.835938 425.148438 585.988281 425.519531 C 586.144531 425.894531 586.261719 426.277344 586.339844 426.675781 C 586.417969 427.070312 586.457031 427.46875 586.457031 427.871094 C 586.457031 428.476562 586.425781 429.078125 586.367188 429.679688 C 586.308594 430.28125 586.222656 430.875 586.101562 431.46875 C 585.984375 432.058594 585.839844 432.644531 585.664062 433.222656 C 585.488281 433.800781 585.285156 434.367188 585.054688 434.925781 C 584.824219 435.484375 584.566406 436.027344 584.28125 436.558594 C 584 437.09375 583.6875 437.609375 583.355469 438.113281 C 583.019531 438.613281 582.660156 439.097656 582.277344 439.566406 C 581.894531 440.03125 581.492188 440.476562 581.066406 440.90625 C 580.636719 441.332031 580.191406 441.738281 579.726562 442.121094 C 579.261719 442.503906 578.777344 442.863281 578.273438 443.195312 C 577.773438 443.53125 577.257812 443.84375 576.726562 444.125 C 576.195312 444.410156 575.648438 444.667969 575.09375 444.898438 C 574.535156 445.132812 573.96875 445.335938 573.390625 445.507812 C 572.8125 445.683594 572.230469 445.832031 571.636719 445.949219 C 571.046875 446.066406 570.453125 446.15625 569.851562 446.214844 C 569.25 446.273438 568.648438 446.304688 568.046875 446.304688 Z M 568.046875 446.304688 " fill-opacity="1" fill-rule="nonzero"/><path fill="#000000" d="M 604.867188 397.15625 C 604.265625 397.15625 603.664062 397.125 603.0625 397.066406 C 602.460938 397.007812 601.867188 396.917969 601.277344 396.800781 C 600.683594 396.683594 600.101562 396.535156 599.523438 396.359375 C 598.945312 396.1875 598.378906 395.984375 597.820312 395.75 C 597.265625 395.519531 596.71875 395.261719 596.1875 394.980469 C 595.65625 394.695312 595.140625 394.382812 594.640625 394.046875 C 594.136719 393.714844 593.652344 393.355469 593.1875 392.972656 C 592.722656 392.589844 592.277344 392.183594 591.847656 391.757812 C 591.421875 391.328125 591.019531 390.882812 590.636719 390.417969 C 590.253906 389.949219 589.894531 389.464844 589.558594 388.964844 C 589.226562 388.460938 588.914062 387.945312 588.632812 387.414062 C 588.347656 386.878906 588.089844 386.335938 587.859375 385.777344 C 587.628906 385.21875 587.425781 384.652344 587.25 384.074219 C 587.074219 383.496094 586.929688 382.910156 586.8125 382.320312 C 586.691406 381.726562 586.605469 381.132812 586.546875 380.53125 C 586.488281 379.929688 586.457031 379.328125 586.457031 378.722656 C 586.457031 378.320312 586.496094 377.921875 586.574219 377.527344 C 586.652344 377.128906 586.769531 376.746094 586.925781 376.375 C 587.078125 376 587.265625 375.644531 587.492188 375.3125 C 587.714844 374.976562 587.96875 374.664062 588.253906 374.378906 C 588.539062 374.09375 588.847656 373.839844 589.183594 373.617188 C 589.519531 373.390625 589.875 373.203125 590.246094 373.046875 C 590.617188 372.894531 591 372.777344 591.398438 372.699219 C 591.792969 372.621094 592.191406 372.582031 592.59375 372.582031 C 592.996094 372.582031 593.394531 372.621094 593.792969 372.699219 C 594.1875 372.777344 594.570312 372.894531 594.941406 373.046875 C 595.316406 373.203125 595.667969 373.390625 596.003906 373.617188 C 596.339844 373.839844 596.648438 374.09375 596.933594 374.378906 C 597.21875 374.664062 597.472656 374.976562 597.695312 375.3125 C 597.921875 375.644531 598.109375 376 598.261719 376.375 C 598.417969 376.746094 598.535156 377.128906 598.613281 377.527344 C 598.691406 377.921875 598.730469 378.320312 598.730469 378.722656 C 598.730469 379.128906 598.769531 379.527344 598.847656 379.921875 C 598.925781 380.320312 599.042969 380.703125 599.199219 381.074219 C 599.351562 381.449219 599.539062 381.800781 599.765625 382.136719 C 599.988281 382.472656 600.242188 382.78125 600.527344 383.070312 C 600.8125 383.355469 601.121094 383.609375 601.457031 383.832031 C 601.792969 384.054688 602.148438 384.246094 602.519531 384.398438 C 602.890625 384.554688 603.273438 384.671875 603.671875 384.75 C 604.066406 384.828125 604.464844 384.867188 604.867188 384.867188 C 605.269531 384.867188 605.667969 384.828125 606.066406 384.75 C 606.460938 384.671875 606.84375 384.554688 607.214844 384.398438 C 607.589844 384.246094 607.941406 384.054688 608.277344 383.832031 C 608.613281 383.609375 608.921875 383.355469 609.207031 383.070312 C 609.492188 382.78125 609.746094 382.472656 609.96875 382.136719 C 610.195312 381.800781 610.382812 381.449219 610.535156 381.074219 C 610.691406 380.703125 610.808594 380.320312 610.886719 379.921875 C 610.964844 379.527344 611.003906 379.128906 611.003906 378.722656 C 611.003906 378.320312 611.042969 377.921875 611.121094 377.527344 C 611.199219 377.128906 611.316406 376.746094 611.472656 376.375 C 611.625 376 611.816406 375.644531 612.039062 375.3125 C 612.261719 374.976562 612.515625 374.664062 612.800781 374.378906 C 613.085938 374.09375 613.394531 373.839844 613.730469 373.617188 C 614.066406 373.390625 614.421875 373.203125 614.792969 373.046875 C 615.164062 372.894531 615.546875 372.777344 615.945312 372.699219 C 616.339844 372.621094 616.738281 372.582031 617.140625 372.582031 C 617.542969 372.582031 617.941406 372.621094 618.339844 372.699219 C 618.734375 372.777344 619.117188 372.894531 619.488281 373.046875 C 619.863281 373.203125 620.214844 373.390625 620.550781 373.617188 C 620.886719 373.839844 621.195312 374.09375 621.480469 374.378906 C 621.765625 374.664062 622.019531 374.976562 622.242188 375.3125 C 622.46875 375.644531 622.65625 376 622.808594 376.375 C 622.964844 376.746094 623.082031 377.128906 623.160156 377.527344 C 623.238281 377.921875 623.277344 378.320312 623.277344 378.722656 C 623.277344 379.328125 623.25 379.929688 623.1875 380.53125 C 623.128906 381.132812 623.042969 381.726562 622.925781 382.320312 C 622.804688 382.910156 622.660156 383.496094 622.484375 384.074219 C 622.308594 384.652344 622.105469 385.21875 621.875 385.777344 C 621.644531 386.335938 621.386719 386.878906 621.105469 387.414062 C 620.820312 387.945312 620.511719 388.460938 620.175781 388.964844 C 619.839844 389.464844 619.480469 389.949219 619.097656 390.417969 C 618.714844 390.882812 618.3125 391.328125 617.886719 391.757812 C 617.460938 392.183594 617.011719 392.589844 616.546875 392.972656 C 616.082031 393.355469 615.597656 393.714844 615.09375 394.046875 C 614.59375 394.382812 614.078125 394.695312 613.546875 394.980469 C 613.015625 395.261719 612.46875 395.519531 611.914062 395.75 C 611.355469 395.984375 610.789062 396.1875 610.210938 396.359375 C 609.632812 396.535156 609.050781 396.683594 608.460938 396.800781 C 607.867188 396.917969 607.273438 397.007812 606.671875 397.066406 C 606.070312 397.125 605.46875 397.15625 604.867188 397.15625 Z M 604.867188 397.15625 " fill-opacity="1" fill-rule="nonzero"/><path fill="#000000" d="M 525.089844 397.15625 C 524.488281 397.15625 523.886719 397.125 523.285156 397.066406 C 522.683594 397.007812 522.089844 396.917969 521.496094 396.800781 C 520.90625 396.683594 520.320312 396.535156 519.746094 396.359375 C 519.167969 396.1875 518.601562 395.984375 518.042969 395.75 C 517.488281 395.519531 516.941406 395.261719 516.410156 394.980469 C 515.878906 394.695312 515.363281 394.382812 514.859375 394.046875 C 514.359375 393.714844 513.875 393.355469 513.410156 392.972656 C 512.945312 392.589844 512.496094 392.183594 512.070312 391.757812 C 511.644531 391.328125 511.242188 390.882812 510.859375 390.417969 C 510.476562 389.949219 510.117188 389.464844 509.78125 388.964844 C 509.445312 388.460938 509.136719 387.945312 508.851562 387.414062 C 508.570312 386.878906 508.3125 386.335938 508.082031 385.777344 C 507.851562 385.21875 507.648438 384.652344 507.472656 384.074219 C 507.296875 383.496094 507.148438 382.910156 507.03125 382.320312 C 506.914062 381.726562 506.828125 381.132812 506.769531 380.53125 C 506.707031 379.929688 506.679688 379.328125 506.679688 378.722656 C 506.679688 378.320312 506.71875 377.921875 506.796875 377.527344 C 506.875 377.128906 506.992188 376.746094 507.144531 376.375 C 507.300781 376 507.488281 375.644531 507.714844 375.3125 C 507.9375 374.976562 508.191406 374.664062 508.476562 374.378906 C 508.761719 374.09375 509.070312 373.839844 509.40625 373.617188 C 509.742188 373.390625 510.09375 373.203125 510.46875 373.046875 C 510.839844 372.894531 511.222656 372.777344 511.617188 372.699219 C 512.015625 372.621094 512.414062 372.582031 512.816406 372.582031 C 513.21875 372.582031 513.617188 372.621094 514.011719 372.699219 C 514.40625 372.777344 514.792969 372.894531 515.164062 373.046875 C 515.535156 373.203125 515.890625 373.390625 516.226562 373.617188 C 516.558594 373.839844 516.871094 374.09375 517.15625 374.378906 C 517.441406 374.664062 517.695312 374.976562 517.917969 375.3125 C 518.140625 375.644531 518.332031 376 518.484375 376.375 C 518.640625 376.746094 518.757812 377.128906 518.835938 377.527344 C 518.914062 377.921875 518.953125 378.320312 518.953125 378.722656 C 518.953125 379.128906 518.992188 379.527344 519.070312 379.921875 C 519.148438 380.320312 519.265625 380.703125 519.417969 381.074219 C 519.574219 381.449219 519.761719 381.800781 519.988281 382.136719 C 520.210938 382.472656 520.464844 382.78125 520.75 383.070312 C 521.035156 383.355469 521.34375 383.609375 521.679688 383.832031 C 522.015625 384.054688 522.367188 384.246094 522.742188 384.398438 C 523.113281 384.554688 523.496094 384.671875 523.890625 384.75 C 524.289062 384.828125 524.6875 384.867188 525.089844 384.867188 C 525.492188 384.867188 525.890625 384.828125 526.285156 384.75 C 526.683594 384.671875 527.066406 384.554688 527.4375 384.398438 C 527.808594 384.246094 528.164062 384.054688 528.5 383.832031 C 528.832031 383.609375 529.144531 383.355469 529.429688 383.070312 C 529.714844 382.78125 529.96875 382.472656 530.191406 382.136719 C 530.414062 381.800781 530.605469 381.449219 530.757812 381.074219 C 530.914062 380.703125 531.03125 380.320312 531.109375 379.921875 C 531.1875 379.527344 531.226562 379.128906 531.226562 378.722656 C 531.226562 378.320312 531.265625 377.921875 531.34375 377.527344 C 531.421875 377.128906 531.539062 376.746094 531.691406 376.375 C 531.847656 376 532.035156 375.644531 532.261719 375.3125 C 532.484375 374.976562 532.738281 374.664062 533.023438 374.378906 C 533.308594 374.09375 533.617188 373.839844 533.953125 373.617188 C 534.289062 373.390625 534.640625 373.203125 535.015625 373.046875 C 535.386719 372.894531 535.769531 372.777344 536.164062 372.699219 C 536.5625 372.621094 536.960938 372.582031 537.363281 372.582031 C 537.765625 372.582031 538.164062 372.621094 538.558594 372.699219 C 538.957031 372.777344 539.339844 372.894531 539.710938 373.046875 C 540.082031 373.203125 540.4375 373.390625 540.773438 373.617188 C 541.105469 373.839844 541.417969 374.09375 541.703125 374.378906 C 541.988281 374.664062 542.242188 374.976562 542.464844 375.3125 C 542.6875 375.644531 542.878906 376 543.03125 376.375 C 543.1875 376.746094 543.304688 377.128906 543.382812 377.527344 C 543.460938 377.921875 543.5 378.320312 543.5 378.722656 C 543.5 379.328125 543.46875 379.929688 543.410156 380.53125 C 543.351562 381.132812 543.261719 381.726562 543.144531 382.320312 C 543.027344 382.910156 542.882812 383.496094 542.707031 384.074219 C 542.53125 384.652344 542.328125 385.21875 542.097656 385.777344 C 541.867188 386.335938 541.609375 386.878906 541.324219 387.414062 C 541.042969 387.945312 540.730469 388.460938 540.398438 388.964844 C 540.0625 389.464844 539.703125 389.949219 539.320312 390.417969 C 538.9375 390.882812 538.535156 391.328125 538.105469 391.757812 C 537.679688 392.183594 537.234375 392.589844 536.769531 392.972656 C 536.300781 393.355469 535.820312 393.714844 535.316406 394.046875 C 534.816406 394.382812 534.300781 394.695312 533.769531 394.980469 C 533.234375 395.261719 532.691406 395.519531 532.132812 395.75 C 531.578125 395.984375 531.011719 396.1875 530.433594 396.359375 C 529.855469 396.535156 529.273438 396.683594 528.679688 396.800781 C 528.089844 396.917969 527.492188 397.007812 526.894531 397.066406 C 526.292969 397.125 525.691406 397.15625 525.089844 397.15625 Z M 525.089844 397.15625 " fill-opacity="1" fill-rule="nonzero"/><path fill="#000000" d="M 647.824219 372.582031 C 620.824219 372.582031 601.429688 352.738281 598.730469 323.433594 C 571.851562 324.84375 555.035156 335.71875 537.363281 346.902344 C 517.726562 359.1875 497.472656 372.457031 463.722656 372.457031 C 463.320312 372.457031 462.917969 372.417969 462.523438 372.339844 C 462.128906 372.261719 461.746094 372.144531 461.375 371.988281 C 461 371.835938 460.648438 371.648438 460.3125 371.421875 C 459.976562 371.199219 459.667969 370.945312 459.382812 370.660156 C 459.097656 370.375 458.84375 370.0625 458.617188 369.726562 C 458.394531 369.390625 458.207031 369.039062 458.050781 368.664062 C 457.898438 368.292969 457.78125 367.910156 457.703125 367.511719 C 457.625 367.117188 457.585938 366.71875 457.585938 366.3125 C 457.585938 365.910156 457.625 365.511719 457.703125 365.117188 C 457.78125 364.71875 457.898438 364.335938 458.050781 363.964844 C 458.207031 363.589844 458.394531 363.238281 458.617188 362.902344 C 458.84375 362.566406 459.097656 362.253906 459.382812 361.96875 C 459.667969 361.683594 459.976562 361.429688 460.3125 361.207031 C 460.648438 360.980469 461 360.792969 461.375 360.636719 C 461.746094 360.484375 462.128906 360.367188 462.523438 360.289062 C 462.917969 360.210938 463.320312 360.171875 463.722656 360.171875 C 494.40625 360.171875 512.019531 348.683594 531.226562 336.578125 C 550.433594 324.476562 570.871094 311.144531 604.867188 311.144531 C 605.269531 311.144531 605.667969 311.183594 606.066406 311.261719 C 606.460938 311.34375 606.84375 311.457031 607.214844 311.613281 C 607.589844 311.765625 607.941406 311.957031 608.277344 312.179688 C 608.613281 312.40625 608.921875 312.660156 609.207031 312.945312 C 609.492188 313.230469 609.746094 313.539062 609.96875 313.875 C 610.195312 314.210938 610.382812 314.566406 610.535156 314.9375 C 610.691406 315.3125 610.808594 315.695312 610.886719 316.089844 C 610.964844 316.484375 611.003906 316.886719 611.003906 317.289062 C 611.003906 343.398438 625.488281 360.292969 647.824219 360.292969 C 648.226562 360.292969 648.625 360.332031 649.023438 360.410156 C 649.417969 360.492188 649.800781 360.605469 650.171875 360.761719 C 650.546875 360.914062 650.898438 361.105469 651.234375 361.328125 C 651.570312 361.554688 651.878906 361.808594 652.164062 362.09375 C 652.449219 362.378906 652.703125 362.6875 652.925781 363.023438 C 653.152344 363.359375 653.339844 363.714844 653.496094 364.085938 C 653.648438 364.457031 653.765625 364.84375 653.84375 365.238281 C 653.921875 365.632812 653.960938 366.035156 653.960938 366.4375 C 653.960938 366.839844 653.921875 367.238281 653.84375 367.636719 C 653.765625 368.03125 653.648438 368.414062 653.496094 368.789062 C 653.339844 369.160156 653.152344 369.515625 652.925781 369.851562 C 652.703125 370.1875 652.449219 370.496094 652.164062 370.78125 C 651.878906 371.066406 651.570312 371.320312 651.234375 371.546875 C 650.898438 371.769531 650.546875 371.957031 650.171875 372.113281 C 649.800781 372.265625 649.417969 372.382812 649.023438 372.460938 C 648.625 372.542969 648.226562 372.582031 647.824219 372.582031 Z M 647.824219 372.582031 " fill-opacity="1" fill-rule="nonzero"/><path fill="#000000" d="M 641.6875 414.785156 C 641.285156 414.835938 640.882812 414.847656 640.476562 414.816406 C 640.070312 414.789062 639.675781 414.71875 639.28125 414.609375 C 638.890625 414.503906 638.515625 414.355469 638.152344 414.175781 C 637.789062 413.992188 637.449219 413.777344 637.128906 413.527344 C 636.808594 413.277344 636.515625 413 636.25 412.691406 C 635.984375 412.382812 635.75 412.054688 635.550781 411.703125 C 635.351562 411.347656 635.1875 410.980469 635.058594 410.59375 C 634.929688 410.207031 634.84375 409.8125 634.792969 409.410156 C 634.742188 409.007812 634.730469 408.601562 634.757812 408.199219 C 634.789062 407.792969 634.855469 407.394531 634.964844 407.003906 C 635.070312 406.609375 635.214844 406.234375 635.398438 405.871094 C 635.578125 405.507812 635.796875 405.164062 636.042969 404.84375 C 636.292969 404.523438 636.570312 404.230469 636.878906 403.964844 C 637.183594 403.699219 637.515625 403.464844 637.867188 403.261719 C 638.21875 403.0625 638.585938 402.898438 638.972656 402.769531 C 639.359375 402.640625 639.75 402.550781 640.152344 402.5 C 641.125 402.25 642.070312 401.917969 642.992188 401.511719 C 643.910156 401.105469 644.789062 400.628906 645.628906 400.078125 C 646.472656 399.527344 647.261719 398.914062 648 398.230469 C 648.742188 397.550781 649.421875 396.816406 650.042969 396.023438 C 650.660156 395.234375 651.210938 394.398438 651.695312 393.515625 C 652.179688 392.632812 652.585938 391.71875 652.917969 390.769531 C 653.253906 389.820312 653.507812 388.851562 653.683594 387.863281 C 653.855469 386.871094 653.949219 385.875 653.960938 384.867188 C 653.960938 384.464844 653.921875 384.066406 653.84375 383.667969 C 653.765625 383.273438 653.648438 382.890625 653.496094 382.515625 C 653.339844 382.144531 653.152344 381.789062 652.925781 381.453125 C 652.703125 381.121094 652.449219 380.808594 652.164062 380.523438 C 651.878906 380.238281 651.570312 379.984375 651.234375 379.757812 C 650.898438 379.535156 650.546875 379.347656 650.171875 379.191406 C 649.800781 379.039062 649.417969 378.921875 649.023438 378.84375 C 648.625 378.761719 648.226562 378.722656 647.824219 378.722656 C 646.734375 378.734375 645.710938 379 644.757812 379.523438 C 644.40625 379.726562 644.042969 379.894531 643.660156 380.027344 C 643.28125 380.160156 642.890625 380.253906 642.488281 380.308594 C 642.089844 380.363281 641.6875 380.378906 641.285156 380.355469 C 640.882812 380.332031 640.484375 380.265625 640.09375 380.164062 C 639.703125 380.0625 639.328125 379.921875 638.964844 379.746094 C 638.601562 379.566406 638.257812 379.355469 637.9375 379.113281 C 637.617188 378.867188 637.320312 378.59375 637.054688 378.289062 C 636.789062 377.988281 636.550781 377.660156 636.347656 377.3125 C 636.144531 376.960938 635.980469 376.59375 635.847656 376.210938 C 635.71875 375.828125 635.628906 375.433594 635.574219 375.03125 C 635.523438 374.628906 635.507812 374.226562 635.535156 373.824219 C 635.5625 373.417969 635.628906 373.019531 635.734375 372.628906 C 635.839844 372.238281 635.984375 371.863281 636.164062 371.5 C 636.34375 371.136719 636.558594 370.792969 636.804688 370.472656 C 637.050781 370.152344 637.328125 369.859375 637.632812 369.59375 C 637.941406 369.328125 638.269531 369.09375 638.621094 368.894531 C 640.019531 368.085938 641.5 367.472656 643.0625 367.054688 C 644.621094 366.632812 646.210938 366.425781 647.828125 366.425781 C 649.445312 366.425781 651.03125 366.636719 652.59375 367.054688 C 654.15625 367.472656 655.636719 368.089844 657.035156 368.898438 C 658.433594 369.707031 659.707031 370.683594 660.847656 371.828125 C 661.992188 372.972656 662.964844 374.246094 663.773438 375.648438 C 664.582031 377.050781 665.191406 378.53125 665.609375 380.097656 C 666.027344 381.660156 666.234375 383.25 666.234375 384.867188 C 666.234375 386.558594 666.097656 388.238281 665.820312 389.90625 C 665.542969 391.574219 665.128906 393.207031 664.582031 394.804688 C 664.035156 396.40625 663.363281 397.949219 662.558594 399.4375 C 661.757812 400.925781 660.839844 402.335938 659.804688 403.675781 C 658.773438 405.011719 657.636719 406.253906 656.394531 407.402344 C 655.15625 408.550781 653.832031 409.589844 652.421875 410.519531 C 651.011719 411.449219 649.535156 412.253906 647.992188 412.941406 C 646.445312 413.625 644.855469 414.179688 643.222656 414.601562 C 642.71875 414.722656 642.207031 414.785156 641.6875 414.785156 Z M 641.6875 414.785156 " fill-opacity="1" fill-rule="nonzero"/><path fill="#000000" d="M 469.859375 415.585938 C 468.851562 415.585938 467.851562 415.535156 466.851562 415.4375 C 465.851562 415.339844 464.859375 415.191406 463.871094 414.996094 C 462.886719 414.800781 461.914062 414.554688 460.953125 414.261719 C 459.988281 413.96875 459.042969 413.632812 458.117188 413.246094 C 457.1875 412.863281 456.28125 412.433594 455.394531 411.957031 C 454.507812 411.484375 453.648438 410.96875 452.8125 410.410156 C 451.976562 409.851562 451.167969 409.25 450.394531 408.613281 C 449.617188 407.976562 448.871094 407.300781 448.160156 406.589844 C 447.449219 405.878906 446.777344 405.132812 446.140625 404.355469 C 445.5 403.578125 444.902344 402.769531 444.34375 401.933594 C 443.789062 401.097656 443.269531 400.234375 442.796875 399.347656 C 442.324219 398.460938 441.894531 397.550781 441.511719 396.621094 C 441.125 395.695312 440.789062 394.746094 440.496094 393.785156 C 440.203125 392.820312 439.960938 391.847656 439.765625 390.859375 C 439.566406 389.875 439.421875 388.878906 439.324219 387.878906 C 439.222656 386.878906 439.175781 385.875 439.175781 384.867188 C 439.175781 384.265625 439.203125 383.660156 439.261719 383.0625 C 439.324219 382.460938 439.410156 381.863281 439.527344 381.273438 C 439.644531 380.679688 439.792969 380.09375 439.96875 379.519531 C 440.140625 378.941406 440.34375 378.371094 440.574219 377.816406 C 440.808594 377.257812 441.0625 376.710938 441.347656 376.179688 C 441.632812 375.648438 441.941406 375.128906 442.277344 374.628906 C 442.613281 374.125 442.972656 373.640625 443.351562 373.175781 C 443.734375 372.707031 444.140625 372.261719 444.566406 371.835938 C 444.992188 371.410156 445.4375 371.003906 445.90625 370.621094 C 446.371094 370.238281 446.855469 369.878906 447.355469 369.542969 C 447.859375 369.207031 448.375 368.898438 448.90625 368.613281 C 449.4375 368.328125 449.984375 368.070312 450.539062 367.839844 C 451.097656 367.609375 451.664062 367.40625 452.242188 367.230469 C 452.816406 367.054688 453.402344 366.910156 453.992188 366.792969 C 454.585938 366.671875 455.179688 366.585938 455.78125 366.527344 C 456.378906 366.46875 456.980469 366.4375 457.585938 366.4375 C 458.1875 366.4375 458.789062 366.46875 459.390625 366.527344 C 459.988281 366.585938 460.585938 366.671875 461.175781 366.792969 C 461.769531 366.910156 462.351562 367.054688 462.929688 367.230469 C 463.507812 367.40625 464.074219 367.609375 464.628906 367.839844 C 465.1875 368.070312 465.730469 368.328125 466.261719 368.613281 C 466.796875 368.898438 467.3125 369.207031 467.8125 369.542969 C 468.3125 369.878906 468.796875 370.238281 469.265625 370.621094 C 469.730469 371.003906 470.175781 371.410156 470.601562 371.835938 C 471.027344 372.261719 471.433594 372.707031 471.816406 373.175781 C 472.199219 373.640625 472.558594 374.125 472.890625 374.628906 C 473.226562 375.128906 473.535156 375.648438 473.820312 376.179688 C 474.105469 376.710938 474.363281 377.257812 474.59375 377.816406 C 474.824219 378.371094 475.027344 378.941406 475.203125 379.519531 C 475.378906 380.09375 475.523438 380.679688 475.640625 381.273438 C 475.757812 381.863281 475.847656 382.460938 475.90625 383.0625 C 475.964844 383.660156 475.996094 384.265625 475.996094 384.867188 C 475.996094 385.269531 475.957031 385.671875 475.878906 386.066406 C 475.796875 386.460938 475.683594 386.847656 475.527344 387.21875 C 475.375 387.589844 475.183594 387.945312 474.960938 388.28125 C 474.738281 388.617188 474.484375 388.925781 474.199219 389.210938 C 473.914062 389.496094 473.601562 389.75 473.269531 389.976562 C 472.933594 390.199219 472.578125 390.390625 472.207031 390.542969 C 471.835938 390.699219 471.449219 390.816406 471.054688 390.894531 C 470.660156 390.972656 470.261719 391.011719 469.859375 391.011719 C 469.457031 391.011719 469.054688 390.972656 468.660156 390.894531 C 468.265625 390.816406 467.882812 390.699219 467.511719 390.542969 C 467.136719 390.390625 466.785156 390.199219 466.449219 389.976562 C 466.113281 389.75 465.804688 389.496094 465.519531 389.210938 C 465.234375 388.925781 464.980469 388.617188 464.753906 388.28125 C 464.53125 387.945312 464.34375 387.589844 464.1875 387.21875 C 464.035156 386.847656 463.917969 386.460938 463.839844 386.066406 C 463.761719 385.671875 463.722656 385.269531 463.722656 384.867188 C 463.722656 384.464844 463.683594 384.066406 463.605469 383.667969 C 463.523438 383.273438 463.410156 382.890625 463.253906 382.515625 C 463.101562 382.144531 462.910156 381.789062 462.6875 381.453125 C 462.464844 381.121094 462.210938 380.808594 461.925781 380.523438 C 461.640625 380.238281 461.328125 379.984375 460.996094 379.757812 C 460.660156 379.535156 460.304688 379.347656 459.933594 379.191406 C 459.5625 379.039062 459.175781 378.921875 458.78125 378.84375 C 458.386719 378.761719 457.988281 378.722656 457.585938 378.722656 C 457.183594 378.722656 456.78125 378.761719 456.386719 378.84375 C 455.992188 378.921875 455.609375 379.039062 455.238281 379.191406 C 454.863281 379.347656 454.511719 379.535156 454.175781 379.757812 C 453.839844 379.984375 453.53125 380.238281 453.246094 380.523438 C 452.960938 380.808594 452.707031 381.121094 452.480469 381.453125 C 452.257812 381.789062 452.070312 382.144531 451.914062 382.515625 C 451.761719 382.890625 451.644531 383.273438 451.566406 383.667969 C 451.488281 384.066406 451.449219 384.464844 451.449219 384.867188 C 451.449219 385.472656 451.476562 386.074219 451.535156 386.675781 C 451.597656 387.273438 451.683594 387.871094 451.800781 388.464844 C 451.917969 389.054688 452.066406 389.640625 452.242188 390.21875 C 452.414062 390.796875 452.617188 391.363281 452.847656 391.921875 C 453.082031 392.480469 453.335938 393.023438 453.621094 393.554688 C 453.90625 394.089844 454.214844 394.605469 454.550781 395.105469 C 454.886719 395.609375 455.246094 396.09375 455.628906 396.558594 C 456.007812 397.027344 456.414062 397.472656 456.839844 397.898438 C 457.265625 398.328125 457.714844 398.730469 458.179688 399.113281 C 458.644531 399.496094 459.128906 399.855469 459.628906 400.191406 C 460.132812 400.527344 460.648438 400.835938 461.179688 401.121094 C 461.710938 401.40625 462.257812 401.664062 462.8125 401.894531 C 463.371094 402.125 463.9375 402.328125 464.515625 402.503906 C 465.089844 402.679688 465.675781 402.828125 466.265625 402.945312 C 466.859375 403.0625 467.453125 403.152344 468.054688 403.210938 C 468.652344 403.269531 469.253906 403.296875 469.859375 403.296875 C 470.261719 403.296875 470.660156 403.335938 471.054688 403.417969 C 471.449219 403.496094 471.835938 403.613281 472.207031 403.765625 C 472.578125 403.921875 472.933594 404.109375 473.269531 404.332031 C 473.601562 404.558594 473.914062 404.8125 474.199219 405.097656 C 474.484375 405.382812 474.738281 405.691406 474.960938 406.027344 C 475.183594 406.363281 475.375 406.71875 475.527344 407.089844 C 475.683594 407.464844 475.796875 407.847656 475.878906 408.242188 C 475.957031 408.640625 475.996094 409.039062 475.996094 409.441406 C 475.996094 409.84375 475.957031 410.246094 475.878906 410.640625 C 475.796875 411.035156 475.683594 411.421875 475.527344 411.792969 C 475.375 412.164062 475.183594 412.519531 474.960938 412.855469 C 474.738281 413.191406 474.484375 413.5 474.199219 413.785156 C 473.914062 414.070312 473.601562 414.324219 473.269531 414.550781 C 472.933594 414.773438 472.578125 414.964844 472.207031 415.117188 C 471.835938 415.273438 471.449219 415.386719 471.054688 415.46875 C 470.660156 415.546875 470.261719 415.585938 469.859375 415.585938 Z M 469.859375 415.585938 " fill-opacity="1" fill-rule="nonzero"/><g clip-path="url(#0ba522cb0e)"><path fill="#000000" d="M 457.585938 538.457031 C 457.183594 538.457031 456.78125 538.417969 456.386719 538.335938 C 455.992188 538.257812 455.609375 538.140625 455.238281 537.988281 C 454.863281 537.832031 454.511719 537.644531 454.175781 537.421875 C 453.839844 537.195312 453.53125 536.941406 453.246094 536.65625 C 452.960938 536.371094 452.707031 536.0625 452.480469 535.726562 C 452.257812 535.390625 452.070312 535.035156 451.914062 534.664062 C 451.761719 534.289062 451.644531 533.90625 451.566406 533.511719 C 451.488281 533.113281 451.449219 532.714844 451.449219 532.3125 L 451.449219 526.167969 C 451.449219 525.566406 451.476562 524.964844 451.535156 524.363281 C 451.597656 523.761719 451.683594 523.164062 451.800781 522.574219 C 451.917969 521.980469 452.066406 521.394531 452.242188 520.820312 C 452.414062 520.242188 452.617188 519.671875 452.847656 519.117188 C 453.082031 518.558594 453.335938 518.011719 453.621094 517.480469 C 453.90625 516.949219 454.214844 516.429688 454.550781 515.929688 C 454.886719 515.425781 455.246094 514.941406 455.628906 514.476562 C 456.007812 514.011719 456.414062 513.5625 456.839844 513.136719 C 457.265625 512.710938 457.714844 512.304688 458.179688 511.921875 C 458.644531 511.539062 459.128906 511.179688 459.628906 510.84375 C 460.132812 510.507812 460.648438 510.199219 461.179688 509.914062 C 461.710938 509.628906 462.257812 509.371094 462.8125 509.140625 C 463.371094 508.910156 463.9375 508.707031 464.515625 508.53125 C 465.089844 508.355469 465.675781 508.210938 466.265625 508.09375 C 466.859375 507.976562 467.453125 507.886719 468.054688 507.828125 C 468.652344 507.769531 469.253906 507.738281 469.859375 507.738281 L 531.226562 507.738281 C 531.628906 507.738281 532.027344 507.699219 532.421875 507.621094 C 532.820312 507.542969 533.203125 507.425781 533.574219 507.269531 C 533.945312 507.117188 534.300781 506.925781 534.636719 506.703125 C 534.96875 506.480469 535.28125 506.222656 535.566406 505.9375 C 535.851562 505.652344 536.105469 505.34375 536.328125 505.007812 C 536.550781 504.671875 536.742188 504.320312 536.894531 503.945312 C 537.050781 503.574219 537.167969 503.1875 537.246094 502.792969 C 537.324219 502.398438 537.363281 502 537.363281 501.59375 L 537.363281 483.164062 C 537.363281 482.761719 537.402344 482.359375 537.480469 481.964844 C 537.558594 481.570312 537.675781 481.1875 537.828125 480.8125 C 537.984375 480.441406 538.171875 480.085938 538.398438 479.75 C 538.621094 479.414062 538.875 479.105469 539.160156 478.820312 C 539.445312 478.535156 539.753906 478.28125 540.089844 478.054688 C 540.425781 477.832031 540.777344 477.644531 541.152344 477.488281 C 541.523438 477.332031 541.90625 477.21875 542.300781 477.136719 C 542.699219 477.058594 543.097656 477.019531 543.5 477.019531 C 543.902344 477.019531 544.300781 477.058594 544.695312 477.136719 C 545.09375 477.21875 545.476562 477.332031 545.847656 477.488281 C 546.21875 477.644531 546.574219 477.832031 546.910156 478.054688 C 547.242188 478.28125 547.554688 478.535156 547.839844 478.820312 C 548.125 479.105469 548.378906 479.414062 548.601562 479.75 C 548.824219 480.085938 549.015625 480.441406 549.167969 480.8125 C 549.324219 481.1875 549.441406 481.570312 549.519531 481.964844 C 549.597656 482.359375 549.636719 482.761719 549.636719 483.164062 L 549.636719 501.59375 C 549.636719 502.199219 549.605469 502.800781 549.546875 503.402344 C 549.488281 504 549.398438 504.597656 549.28125 505.191406 C 549.164062 505.78125 549.019531 506.367188 548.84375 506.945312 C 548.667969 507.523438 548.464844 508.089844 548.234375 508.648438 C 548.003906 509.207031 547.746094 509.75 547.460938 510.28125 C 547.179688 510.816406 546.867188 511.332031 546.535156 511.835938 C 546.199219 512.335938 545.839844 512.820312 545.457031 513.285156 C 545.074219 513.753906 544.671875 514.199219 544.242188 514.628906 C 543.816406 515.054688 543.371094 515.457031 542.90625 515.839844 C 542.4375 516.226562 541.957031 516.582031 541.453125 516.917969 C 540.953125 517.253906 540.4375 517.566406 539.90625 517.847656 C 539.371094 518.132812 538.828125 518.390625 538.269531 518.621094 C 537.714844 518.851562 537.148438 519.054688 536.570312 519.230469 C 535.992188 519.40625 535.410156 519.554688 534.816406 519.671875 C 534.226562 519.789062 533.628906 519.878906 533.03125 519.9375 C 532.429688 519.996094 531.828125 520.023438 531.226562 520.023438 L 469.859375 520.023438 C 469.457031 520.023438 469.054688 520.066406 468.660156 520.144531 C 468.265625 520.222656 467.882812 520.339844 467.511719 520.492188 C 467.136719 520.648438 466.785156 520.835938 466.449219 521.0625 C 466.113281 521.285156 465.804688 521.539062 465.519531 521.824219 C 465.234375 522.109375 464.980469 522.421875 464.753906 522.753906 C 464.53125 523.089844 464.34375 523.445312 464.1875 523.816406 C 464.035156 524.191406 463.917969 524.574219 463.839844 524.96875 C 463.761719 525.367188 463.722656 525.765625 463.722656 526.167969 L 463.722656 532.3125 C 463.722656 532.714844 463.683594 533.113281 463.605469 533.511719 C 463.523438 533.90625 463.410156 534.289062 463.253906 534.664062 C 463.101562 535.035156 462.910156 535.390625 462.6875 535.726562 C 462.464844 536.0625 462.210938 536.371094 461.925781 536.65625 C 461.640625 536.941406 461.328125 537.195312 460.996094 537.421875 C 460.660156 537.644531 460.304688 537.832031 459.933594 537.988281 C 459.5625 538.140625 459.175781 538.257812 458.78125 538.335938 C 458.386719 538.417969 457.988281 538.457031 457.585938 538.457031 Z M 457.585938 538.457031 " fill-opacity="1" fill-rule="nonzero"/></g><g clip-path="url(#2987d511a6)"><path fill="#000000" d="M 647.824219 538.457031 C 647.421875 538.457031 647.023438 538.417969 646.628906 538.335938 C 646.230469 538.257812 645.847656 538.140625 645.476562 537.988281 C 645.105469 537.832031 644.75 537.644531 644.414062 537.421875 C 644.082031 537.195312 643.769531 536.941406 643.484375 536.65625 C 643.199219 536.371094 642.945312 536.0625 642.722656 535.726562 C 642.5 535.390625 642.308594 535.035156 642.15625 534.664062 C 642 534.289062 641.882812 533.90625 641.804688 533.511719 C 641.726562 533.113281 641.6875 532.714844 641.6875 532.3125 L 641.6875 526.167969 C 641.6875 525.765625 641.648438 525.367188 641.570312 524.96875 C 641.492188 524.574219 641.375 524.191406 641.222656 523.816406 C 641.066406 523.445312 640.878906 523.089844 640.652344 522.753906 C 640.429688 522.421875 640.175781 522.109375 639.890625 521.824219 C 639.605469 521.539062 639.296875 521.285156 638.960938 521.0625 C 638.625 520.835938 638.273438 520.648438 637.898438 520.492188 C 637.527344 520.339844 637.144531 520.222656 636.75 520.144531 C 636.351562 520.066406 635.953125 520.023438 635.550781 520.023438 L 580.320312 520.023438 C 579.71875 520.023438 579.117188 519.996094 578.515625 519.9375 C 577.914062 519.878906 577.320312 519.789062 576.730469 519.671875 C 576.136719 519.554688 575.554688 519.40625 574.976562 519.230469 C 574.398438 519.054688 573.832031 518.851562 573.273438 518.621094 C 572.71875 518.390625 572.171875 518.132812 571.640625 517.847656 C 571.109375 517.566406 570.59375 517.253906 570.09375 516.917969 C 569.589844 516.582031 569.105469 516.226562 568.640625 515.839844 C 568.175781 515.457031 567.730469 515.054688 567.300781 514.628906 C 566.875 514.199219 566.472656 513.753906 566.089844 513.285156 C 565.707031 512.820312 565.347656 512.335938 565.011719 511.835938 C 564.675781 511.332031 564.367188 510.816406 564.082031 510.28125 C 563.800781 509.75 563.542969 509.207031 563.3125 508.648438 C 563.082031 508.089844 562.878906 507.523438 562.703125 506.945312 C 562.527344 506.367188 562.382812 505.78125 562.265625 505.191406 C 562.144531 504.597656 562.058594 504 562 503.402344 C 561.941406 502.800781 561.910156 502.199219 561.910156 501.59375 L 561.910156 483.164062 C 561.910156 482.761719 561.949219 482.359375 562.027344 481.964844 C 562.105469 481.570312 562.222656 481.1875 562.378906 480.8125 C 562.53125 480.441406 562.71875 480.085938 562.945312 479.75 C 563.167969 479.414062 563.421875 479.105469 563.707031 478.820312 C 563.992188 478.535156 564.300781 478.28125 564.636719 478.054688 C 564.972656 477.832031 565.324219 477.644531 565.699219 477.488281 C 566.070312 477.332031 566.453125 477.21875 566.847656 477.136719 C 567.246094 477.058594 567.644531 477.019531 568.046875 477.019531 C 568.449219 477.019531 568.847656 477.058594 569.242188 477.136719 C 569.640625 477.21875 570.023438 477.332031 570.394531 477.488281 C 570.765625 477.644531 571.121094 477.832031 571.457031 478.054688 C 571.792969 478.28125 572.101562 478.535156 572.386719 478.820312 C 572.671875 479.105469 572.925781 479.414062 573.148438 479.75 C 573.375 480.085938 573.5625 480.441406 573.714844 480.8125 C 573.871094 481.1875 573.988281 481.570312 574.066406 481.964844 C 574.144531 482.359375 574.183594 482.761719 574.183594 483.164062 L 574.183594 501.59375 C 574.183594 502 574.222656 502.398438 574.300781 502.792969 C 574.378906 503.1875 574.496094 503.574219 574.652344 503.945312 C 574.804688 504.320312 574.992188 504.671875 575.21875 505.007812 C 575.441406 505.34375 575.695312 505.652344 575.980469 505.9375 C 576.265625 506.222656 576.574219 506.480469 576.910156 506.703125 C 577.246094 506.925781 577.597656 507.117188 577.972656 507.269531 C 578.34375 507.425781 578.726562 507.542969 579.121094 507.621094 C 579.519531 507.699219 579.917969 507.738281 580.320312 507.738281 L 635.550781 507.738281 C 636.152344 507.738281 636.753906 507.769531 637.355469 507.828125 C 637.957031 507.886719 638.550781 507.976562 639.144531 508.09375 C 639.734375 508.210938 640.320312 508.355469 640.894531 508.53125 C 641.472656 508.707031 642.039062 508.910156 642.597656 509.140625 C 643.152344 509.371094 643.699219 509.628906 644.230469 509.914062 C 644.761719 510.199219 645.277344 510.507812 645.78125 510.84375 C 646.28125 511.179688 646.765625 511.539062 647.230469 511.921875 C 647.695312 512.304688 648.144531 512.710938 648.570312 513.136719 C 648.996094 513.5625 649.398438 514.011719 649.78125 514.476562 C 650.164062 514.941406 650.523438 515.425781 650.859375 515.929688 C 651.195312 516.429688 651.503906 516.949219 651.789062 517.480469 C 652.070312 518.011719 652.328125 518.558594 652.558594 519.117188 C 652.789062 519.671875 652.992188 520.242188 653.167969 520.820312 C 653.34375 521.394531 653.488281 521.980469 653.609375 522.574219 C 653.726562 523.164062 653.8125 523.761719 653.871094 524.363281 C 653.933594 524.964844 653.960938 525.566406 653.960938 526.167969 L 653.960938 532.3125 C 653.960938 532.714844 653.921875 533.113281 653.84375 533.511719 C 653.765625 533.90625 653.648438 534.289062 653.496094 534.664062 C 653.339844 535.035156 653.152344 535.390625 652.925781 535.726562 C 652.703125 536.0625 652.449219 536.371094 652.164062 536.65625 C 651.878906 536.941406 651.570312 537.195312 651.234375 537.421875 C 650.898438 537.644531 650.546875 537.832031 650.171875 537.988281 C 649.800781 538.140625 649.417969 538.257812 649.023438 538.335938 C 648.625 538.417969 648.226562 538.457031 647.824219 538.457031 Z M 647.824219 538.457031 " fill-opacity="1" fill-rule="nonzero"/></g><g clip-path="url(#73ac1a5af2)"><path fill="#000000" d="M 433.039062 341.863281 C 431.429688 341.863281 429.824219 341.824219 428.21875 341.746094 C 426.613281 341.664062 425.011719 341.546875 423.414062 341.390625 C 421.8125 341.230469 420.21875 341.035156 418.628906 340.800781 C 417.039062 340.5625 415.457031 340.289062 413.882812 339.972656 C 412.304688 339.660156 410.738281 339.308594 409.179688 338.917969 C 407.621094 338.527344 406.074219 338.097656 404.535156 337.628906 C 402.996094 337.164062 401.472656 336.660156 399.960938 336.117188 C 398.445312 335.574219 396.949219 334.996094 395.460938 334.378906 C 393.976562 333.765625 392.507812 333.113281 391.058594 332.425781 C 389.605469 331.738281 388.167969 331.015625 386.753906 330.257812 C 385.335938 329.5 383.9375 328.707031 382.558594 327.878906 C 381.179688 327.050781 379.824219 326.191406 378.488281 325.296875 C 377.152344 324.402344 375.835938 323.476562 374.546875 322.519531 C 373.257812 321.5625 371.988281 320.570312 370.746094 319.550781 C 369.503906 318.53125 368.289062 317.480469 367.097656 316.398438 C 365.90625 315.320312 364.746094 314.210938 363.609375 313.074219 C 362.472656 311.933594 361.363281 310.769531 360.285156 309.578125 C 359.207031 308.386719 358.15625 307.167969 357.136719 305.925781 C 356.117188 304.683594 355.128906 303.414062 354.171875 302.121094 C 353.214844 300.828125 352.289062 299.515625 351.398438 298.175781 C 350.503906 296.839844 349.644531 295.480469 348.820312 294.101562 C 347.992188 292.722656 347.199219 291.320312 346.441406 289.902344 C 345.6875 288.484375 344.964844 287.046875 344.277344 285.59375 C 343.589844 284.140625 342.9375 282.667969 342.324219 281.183594 C 341.707031 279.695312 341.128906 278.195312 340.589844 276.683594 C 340.046875 275.167969 339.542969 273.640625 339.078125 272.101562 C 338.609375 270.5625 338.183594 269.011719 337.792969 267.449219 C 337.402344 265.890625 337.050781 264.320312 336.734375 262.742188 C 336.421875 261.164062 336.148438 259.582031 335.914062 257.988281 C 335.675781 256.398438 335.480469 254.800781 335.320312 253.203125 C 335.164062 251.601562 335.046875 249.996094 334.96875 248.390625 C 334.890625 246.785156 334.847656 245.175781 334.847656 243.566406 C 334.847656 241.957031 334.890625 240.351562 334.96875 238.742188 C 335.046875 237.136719 335.164062 235.53125 335.320312 233.933594 C 335.480469 232.332031 335.675781 230.734375 335.914062 229.144531 C 336.148438 227.550781 336.421875 225.96875 336.734375 224.390625 C 337.050781 222.8125 337.402344 221.242188 337.792969 219.683594 C 338.183594 218.121094 338.609375 216.574219 339.078125 215.03125 C 339.542969 213.492188 340.046875 211.964844 340.589844 210.453125 C 341.128906 208.9375 341.707031 207.4375 342.324219 205.949219 C 342.9375 204.464844 343.589844 202.992188 344.277344 201.539062 C 344.964844 200.085938 345.6875 198.648438 346.441406 197.230469 C 347.199219 195.8125 347.992188 194.414062 348.820312 193.03125 C 349.644531 191.652344 350.503906 190.292969 351.398438 188.957031 C 352.289062 187.617188 353.214844 186.304688 354.171875 185.011719 C 355.128906 183.71875 356.117188 182.453125 357.136719 181.207031 C 358.15625 179.964844 359.207031 178.746094 360.285156 177.554688 C 361.363281 176.363281 362.472656 175.199219 363.609375 174.0625 C 364.746094 172.921875 365.90625 171.8125 367.097656 170.734375 C 368.289062 169.652344 369.503906 168.601562 370.746094 167.582031 C 371.988281 166.5625 373.257812 165.574219 374.546875 164.613281 C 375.835938 163.65625 377.152344 162.730469 378.488281 161.835938 C 379.824219 160.941406 381.179688 160.082031 382.558594 159.253906 C 383.9375 158.429688 385.335938 157.636719 386.753906 156.878906 C 388.167969 156.117188 389.605469 155.394531 391.058594 154.707031 C 392.507812 154.019531 393.976562 153.367188 395.460938 152.753906 C 396.949219 152.136719 398.445312 151.558594 399.960938 151.015625 C 401.472656 150.472656 402.996094 149.96875 404.535156 149.503906 C 406.074219 149.035156 407.621094 148.605469 409.179688 148.214844 C 410.738281 147.824219 412.304688 147.472656 413.882812 147.160156 C 415.457031 146.84375 417.039062 146.570312 418.628906 146.335938 C 420.21875 146.097656 421.8125 145.902344 423.414062 145.742188 C 425.011719 145.585938 426.613281 145.46875 428.21875 145.390625 C 429.824219 145.308594 431.429688 145.269531 433.039062 145.269531 C 434.644531 145.269531 436.25 145.308594 437.855469 145.390625 C 439.460938 145.46875 441.0625 145.585938 442.660156 145.742188 C 444.261719 145.902344 445.855469 146.097656 447.445312 146.335938 C 449.035156 146.570312 450.617188 146.84375 452.191406 147.160156 C 453.769531 147.472656 455.335938 147.824219 456.894531 148.214844 C 458.453125 148.605469 460.003906 149.035156 461.539062 149.503906 C 463.078125 149.96875 464.601562 150.472656 466.117188 151.015625 C 467.628906 151.558594 469.128906 152.136719 470.613281 152.753906 C 472.097656 153.367188 473.566406 154.019531 475.019531 154.707031 C 476.472656 155.394531 477.90625 156.117188 479.324219 156.878906 C 480.742188 157.636719 482.136719 158.429688 483.515625 159.253906 C 484.894531 160.082031 486.253906 160.941406 487.589844 161.835938 C 488.925781 162.730469 490.238281 163.65625 491.527344 164.613281 C 492.820312 165.574219 494.085938 166.5625 495.328125 167.582031 C 496.570312 168.601562 497.785156 169.652344 498.976562 170.734375 C 500.167969 171.8125 501.332031 172.921875 502.46875 174.0625 C 503.605469 175.199219 504.710938 176.363281 505.789062 177.554688 C 506.871094 178.746094 507.917969 179.964844 508.9375 181.207031 C 509.957031 182.453125 510.945312 183.71875 511.902344 185.011719 C 512.859375 186.304688 513.785156 187.617188 514.679688 188.957031 C 515.570312 190.292969 516.429688 191.652344 517.257812 193.03125 C 518.082031 194.414062 518.875 195.8125 519.632812 197.230469 C 520.390625 198.648438 521.113281 200.085938 521.800781 201.539062 C 522.484375 202.992188 523.136719 204.464844 523.75 205.949219 C 524.367188 207.4375 524.945312 208.9375 525.488281 210.453125 C 526.027344 211.964844 526.53125 213.492188 527 215.03125 C 527.464844 216.574219 527.894531 218.121094 528.285156 219.683594 C 528.675781 221.242188 529.027344 222.8125 529.339844 224.390625 C 529.652344 225.96875 529.925781 227.550781 530.164062 229.144531 C 530.398438 230.734375 530.597656 232.332031 530.753906 233.933594 C 530.910156 235.53125 531.027344 237.136719 531.109375 238.742188 C 531.1875 240.351562 531.226562 241.957031 531.226562 243.566406 C 531.226562 245.175781 531.1875 246.785156 531.109375 248.390625 C 531.027344 249.996094 530.910156 251.601562 530.753906 253.203125 C 530.597656 254.800781 530.398438 256.398438 530.164062 257.988281 C 529.925781 259.582031 529.652344 261.164062 529.339844 262.742188 C 529.027344 264.320312 528.675781 265.890625 528.285156 267.449219 C 527.894531 269.011719 527.464844 270.5625 527 272.101562 C 526.53125 273.640625 526.027344 275.167969 525.488281 276.683594 C 524.945312 278.195312 524.367188 279.695312 523.75 281.183594 C 523.136719 282.667969 522.484375 284.140625 521.800781 285.59375 C 521.113281 287.046875 520.390625 288.484375 519.632812 289.902344 C 518.875 291.320312 518.082031 292.722656 517.257812 294.101562 C 516.429688 295.480469 515.570312 296.839844 514.679688 298.175781 C 513.785156 299.515625 512.859375 300.828125 511.902344 302.121094 C 510.945312 303.414062 509.957031 304.683594 508.9375 305.925781 C 507.917969 307.167969 506.871094 308.386719 505.789062 309.578125 C 504.710938 310.769531 503.605469 311.933594 502.46875 313.074219 C 501.332031 314.210938 500.167969 315.320312 498.976562 316.398438 C 497.785156 317.480469 496.570312 318.53125 495.328125 319.550781 C 494.085938 320.570312 492.820312 321.5625 491.527344 322.519531 C 490.238281 323.476562 488.925781 324.402344 487.589844 325.296875 C 486.253906 326.191406 484.894531 327.050781 483.515625 327.878906 C 482.136719 328.707031 480.742188 329.5 479.324219 330.257812 C 477.90625 331.015625 476.472656 331.738281 475.019531 332.425781 C 473.566406 333.113281 472.097656 333.765625 470.613281 334.378906 C 469.128906 334.996094 467.628906 335.574219 466.117188 336.117188 C 464.601562 336.660156 463.078125 337.164062 461.539062 337.628906 C 460.003906 338.097656 458.453125 338.527344 456.894531 338.917969 C 455.335938 339.308594 453.769531 339.660156 452.191406 339.972656 C 450.617188 340.289062 449.035156 340.5625 447.445312 340.800781 C 445.855469 341.035156 444.261719 341.230469 442.660156 341.390625 C 441.0625 341.546875 439.460938 341.664062 437.855469 341.746094 C 436.25 341.824219 434.644531 341.863281 433.039062 341.863281 Z M 433.039062 157.558594 C 431.632812 157.558594 430.226562 157.59375 428.820312 157.660156 C 427.417969 157.730469 426.015625 157.832031 424.617188 157.972656 C 423.21875 158.109375 421.820312 158.28125 420.429688 158.488281 C 419.039062 158.695312 417.65625 158.9375 416.277344 159.210938 C 414.898438 159.484375 413.527344 159.792969 412.164062 160.136719 C 410.796875 160.476562 409.445312 160.851562 408.097656 161.261719 C 406.753906 161.667969 405.417969 162.109375 404.09375 162.585938 C 402.769531 163.058594 401.457031 163.566406 400.160156 164.105469 C 398.859375 164.644531 397.574219 165.214844 396.304688 165.816406 C 395.035156 166.417969 393.777344 167.050781 392.539062 167.714844 C 391.296875 168.375 390.074219 169.070312 388.867188 169.792969 C 387.664062 170.519531 386.476562 171.269531 385.304688 172.050781 C 384.136719 172.835938 382.988281 173.644531 381.859375 174.484375 C 380.730469 175.320312 379.621094 176.1875 378.535156 177.082031 C 377.445312 177.972656 376.382812 178.894531 375.339844 179.839844 C 374.300781 180.785156 373.28125 181.753906 372.285156 182.75 C 371.292969 183.746094 370.324219 184.761719 369.378906 185.804688 C 368.433594 186.847656 367.515625 187.914062 366.625 189.003906 C 365.734375 190.089844 364.867188 191.199219 364.03125 192.332031 C 363.191406 193.460938 362.382812 194.613281 361.601562 195.78125 C 360.820312 196.953125 360.070312 198.140625 359.347656 199.347656 C 358.625 200.554688 357.929688 201.78125 357.269531 203.023438 C 356.605469 204.265625 355.972656 205.519531 355.371094 206.792969 C 354.769531 208.066406 354.199219 209.351562 353.664062 210.652344 C 353.125 211.953125 352.617188 213.265625 352.144531 214.589844 C 351.671875 215.917969 351.230469 217.253906 350.824219 218.601562 C 350.414062 219.945312 350.039062 221.304688 349.699219 222.667969 C 349.355469 224.035156 349.046875 225.40625 348.773438 226.789062 C 348.5 228.167969 348.257812 229.554688 348.054688 230.945312 C 347.847656 232.339844 347.675781 233.734375 347.535156 235.136719 C 347.398438 236.539062 347.296875 237.941406 347.226562 239.347656 C 347.15625 240.753906 347.121094 242.160156 347.121094 243.566406 C 347.121094 244.972656 347.15625 246.382812 347.226562 247.785156 C 347.296875 249.191406 347.398438 250.597656 347.535156 251.996094 C 347.675781 253.398438 347.847656 254.792969 348.054688 256.1875 C 348.257812 257.578125 348.5 258.964844 348.773438 260.347656 C 349.046875 261.726562 349.355469 263.101562 349.699219 264.464844 C 350.039062 265.832031 350.414062 267.1875 350.824219 268.535156 C 351.230469 269.882812 351.671875 271.21875 352.144531 272.542969 C 352.617188 273.867188 353.125 275.179688 353.664062 276.480469 C 354.199219 277.78125 354.769531 279.066406 355.371094 280.339844 C 355.972656 281.613281 356.605469 282.871094 357.269531 284.109375 C 357.929688 285.351562 358.625 286.578125 359.347656 287.785156 C 360.070312 288.992188 360.820312 290.179688 361.601562 291.351562 C 362.382812 292.519531 363.191406 293.671875 364.03125 294.800781 C 364.867188 295.933594 365.734375 297.042969 366.625 298.128906 C 367.515625 299.21875 368.433594 300.285156 369.378906 301.328125 C 370.324219 302.371094 371.292969 303.390625 372.285156 304.382812 C 373.28125 305.378906 374.300781 306.351562 375.339844 307.296875 C 376.382812 308.242188 377.445312 309.160156 378.535156 310.054688 C 379.621094 310.945312 380.730469 311.8125 381.859375 312.648438 C 382.988281 313.488281 384.136719 314.300781 385.304688 315.082031 C 386.476562 315.863281 387.664062 316.617188 388.867188 317.339844 C 390.074219 318.0625 391.296875 318.757812 392.539062 319.421875 C 393.777344 320.082031 395.035156 320.714844 396.304688 321.316406 C 397.574219 321.921875 398.859375 322.492188 400.160156 323.027344 C 401.457031 323.566406 402.769531 324.074219 404.09375 324.546875 C 405.417969 325.023438 406.753906 325.464844 408.097656 325.871094 C 409.445312 326.28125 410.796875 326.65625 412.164062 327 C 413.527344 327.339844 414.898438 327.648438 416.277344 327.921875 C 417.65625 328.199219 419.039062 328.4375 420.429688 328.644531 C 421.820312 328.851562 423.21875 329.023438 424.617188 329.160156 C 426.015625 329.300781 427.417969 329.402344 428.820312 329.472656 C 430.226562 329.542969 431.632812 329.574219 433.039062 329.574219 C 434.445312 329.574219 435.847656 329.542969 437.253906 329.472656 C 438.65625 329.402344 440.058594 329.300781 441.457031 329.160156 C 442.859375 329.023438 444.253906 328.851562 445.644531 328.644531 C 447.035156 328.4375 448.417969 328.199219 449.800781 327.921875 C 451.179688 327.648438 452.550781 327.339844 453.914062 327 C 455.277344 326.65625 456.632812 326.28125 457.976562 325.871094 C 459.324219 325.464844 460.65625 325.023438 461.980469 324.546875 C 463.304688 324.074219 464.617188 323.566406 465.914062 323.027344 C 467.214844 322.492188 468.5 321.921875 469.769531 321.316406 C 471.042969 320.714844 472.296875 320.082031 473.539062 319.421875 C 474.777344 318.757812 476 318.0625 477.207031 317.339844 C 478.414062 316.617188 479.601562 315.863281 480.769531 315.082031 C 481.9375 314.300781 483.085938 313.488281 484.21875 312.648438 C 485.347656 311.8125 486.453125 310.945312 487.542969 310.054688 C 488.628906 309.160156 489.691406 308.242188 490.734375 307.296875 C 491.777344 306.351562 492.792969 305.378906 493.789062 304.382812 C 494.78125 303.390625 495.753906 302.371094 496.695312 301.328125 C 497.640625 300.285156 498.558594 299.21875 499.449219 298.128906 C 500.34375 297.042969 501.207031 295.933594 502.046875 294.800781 C 502.882812 293.671875 503.691406 292.519531 504.472656 291.351562 C 505.253906 290.179688 506.007812 288.992188 506.730469 287.785156 C 507.453125 286.578125 508.144531 285.351562 508.808594 284.109375 C 509.46875 282.871094 510.101562 281.613281 510.703125 280.339844 C 511.304688 279.066406 511.875 277.78125 512.414062 276.480469 C 512.949219 275.179688 513.457031 273.867188 513.929688 272.542969 C 514.402344 271.21875 514.84375 269.882812 515.253906 268.535156 C 515.660156 267.1875 516.035156 265.832031 516.378906 264.464844 C 516.71875 263.101562 517.027344 261.726562 517.300781 260.347656 C 517.574219 258.964844 517.816406 257.578125 518.023438 256.1875 C 518.230469 254.792969 518.402344 253.398438 518.539062 251.996094 C 518.675781 250.597656 518.78125 249.191406 518.847656 247.785156 C 518.917969 246.382812 518.953125 244.972656 518.953125 243.566406 C 518.953125 242.160156 518.917969 240.753906 518.847656 239.347656 C 518.78125 237.941406 518.675781 236.539062 518.539062 235.136719 C 518.402344 233.734375 518.230469 232.339844 518.023438 230.945312 C 517.816406 229.554688 517.574219 228.167969 517.300781 226.789062 C 517.027344 225.40625 516.71875 224.035156 516.378906 222.667969 C 516.035156 221.304688 515.660156 219.945312 515.253906 218.601562 C 514.84375 217.253906 514.402344 215.917969 513.929688 214.589844 C 513.457031 213.265625 512.949219 211.953125 512.414062 210.652344 C 511.875 209.351562 511.304688 208.066406 510.703125 206.792969 C 510.101562 205.519531 509.46875 204.265625 508.808594 203.023438 C 508.144531 201.78125 507.453125 200.554688 506.730469 199.347656 C 506.007812 198.140625 505.253906 196.953125 504.472656 195.78125 C 503.691406 194.613281 502.882812 193.460938 502.046875 192.332031 C 501.207031 191.199219 500.34375 190.089844 499.449219 189.003906 C 498.558594 187.914062 497.640625 186.847656 496.695312 185.804688 C 495.753906 184.761719 494.78125 183.746094 493.789062 182.75 C 492.792969 181.753906 491.777344 180.785156 490.734375 179.839844 C 489.691406 178.894531 488.628906 177.972656 487.542969 177.082031 C 486.453125 176.1875 485.347656 175.320312 484.21875 174.484375 C 483.085938 173.644531 481.9375 172.835938 480.769531 172.050781 C 479.601562 171.269531 478.414062 170.519531 477.207031 169.792969 C 476 169.070312 474.777344 168.375 473.539062 167.714844 C 472.296875 167.050781 471.042969 166.417969 469.769531 165.816406 C 468.5 165.214844 467.214844 164.644531 465.914062 164.105469 C 464.617188 163.566406 463.304688 163.058594 461.980469 162.585938 C 460.65625 162.109375 459.324219 161.667969 457.976562 161.261719 C 456.632812 160.851562 455.277344 160.476562 453.914062 160.136719 C 452.550781 159.792969 451.179688 159.484375 449.800781 159.210938 C 448.417969 158.9375 447.035156 158.695312 445.644531 158.488281 C 444.253906 158.28125 442.859375 158.109375 441.457031 157.972656 C 440.058594 157.832031 438.65625 157.730469 437.253906 157.660156 C 435.847656 157.59375 434.445312 157.558594 433.039062 157.558594 Z M 433.039062 157.558594 " fill-opacity="1" fill-rule="nonzero"/></g><path fill="#000000" d="M 482.132812 298.859375 L 383.945312 298.859375 C 383.539062 298.859375 383.140625 298.820312 382.746094 298.742188 C 382.351562 298.660156 381.96875 298.546875 381.59375 298.390625 C 381.222656 298.238281 380.871094 298.046875 380.535156 297.824219 C 380.199219 297.597656 379.890625 297.34375 379.605469 297.058594 C 379.320312 296.773438 379.066406 296.464844 378.839844 296.128906 C 378.617188 295.792969 378.429688 295.4375 378.273438 295.066406 C 378.121094 294.691406 378.003906 294.308594 377.925781 293.914062 C 377.847656 293.519531 377.808594 293.117188 377.808594 292.714844 L 377.808594 212.847656 C 377.800781 212.03125 377.953125 211.246094 378.261719 210.492188 C 378.570312 209.734375 379.011719 209.066406 379.585938 208.488281 L 397.996094 190.058594 C 398.574219 189.480469 399.242188 189.039062 399.996094 188.730469 C 400.753906 188.421875 401.539062 188.269531 402.355469 188.273438 L 420.765625 188.273438 C 421.167969 188.273438 421.566406 188.316406 421.960938 188.394531 C 422.355469 188.472656 422.742188 188.589844 423.113281 188.742188 C 423.484375 188.898438 423.839844 189.085938 424.171875 189.308594 C 424.507812 189.535156 424.820312 189.789062 425.105469 190.074219 C 425.386719 190.359375 425.644531 190.671875 425.867188 191.003906 C 426.089844 191.339844 426.28125 191.695312 426.433594 192.066406 C 426.589844 192.441406 426.703125 192.824219 426.78125 193.21875 C 426.863281 193.617188 426.902344 194.015625 426.902344 194.417969 C 426.902344 194.820312 426.863281 195.222656 426.78125 195.617188 C 426.703125 196.011719 426.589844 196.398438 426.433594 196.769531 C 426.28125 197.140625 426.089844 197.496094 425.867188 197.832031 C 425.644531 198.167969 425.386719 198.476562 425.105469 198.761719 C 424.820312 199.046875 424.507812 199.300781 424.171875 199.527344 C 423.839844 199.75 423.484375 199.941406 423.113281 200.09375 C 422.742188 200.25 422.355469 200.367188 421.960938 200.445312 C 421.566406 200.523438 421.167969 200.5625 420.765625 200.5625 L 404.871094 200.5625 L 390.082031 215.367188 L 390.082031 286.570312 L 475.996094 286.570312 L 475.996094 200.5625 L 445.3125 200.5625 C 444.910156 200.5625 444.507812 200.523438 444.113281 200.445312 C 443.71875 200.367188 443.335938 200.25 442.960938 200.09375 C 442.589844 199.941406 442.238281 199.75 441.902344 199.527344 C 441.566406 199.300781 441.257812 199.046875 440.972656 198.761719 C 440.6875 198.476562 440.433594 198.167969 440.207031 197.832031 C 439.984375 197.496094 439.796875 197.140625 439.640625 196.769531 C 439.488281 196.398438 439.371094 196.011719 439.292969 195.617188 C 439.214844 195.222656 439.175781 194.820312 439.175781 194.417969 C 439.175781 194.015625 439.214844 193.617188 439.292969 193.21875 C 439.371094 192.824219 439.488281 192.441406 439.640625 192.066406 C 439.796875 191.695312 439.984375 191.339844 440.207031 191.003906 C 440.433594 190.671875 440.6875 190.359375 440.972656 190.074219 C 441.257812 189.789062 441.566406 189.535156 441.902344 189.308594 C 442.238281 189.085938 442.589844 188.898438 442.960938 188.742188 C 443.335938 188.589844 443.71875 188.472656 444.113281 188.394531 C 444.507812 188.316406 444.910156 188.273438 445.3125 188.273438 L 482.132812 188.273438 C 482.535156 188.273438 482.933594 188.316406 483.328125 188.394531 C 483.722656 188.472656 484.109375 188.589844 484.480469 188.742188 C 484.851562 188.898438 485.207031 189.085938 485.542969 189.308594 C 485.875 189.535156 486.1875 189.789062 486.472656 190.074219 C 486.757812 190.359375 487.011719 190.671875 487.234375 191.003906 C 487.457031 191.339844 487.648438 191.695312 487.800781 192.066406 C 487.957031 192.441406 488.070312 192.824219 488.152344 193.21875 C 488.230469 193.617188 488.269531 194.015625 488.269531 194.417969 L 488.269531 292.714844 C 488.269531 293.117188 488.230469 293.519531 488.152344 293.914062 C 488.070312 294.308594 487.957031 294.691406 487.800781 295.066406 C 487.648438 295.4375 487.457031 295.792969 487.234375 296.128906 C 487.011719 296.464844 486.757812 296.773438 486.472656 297.058594 C 486.1875 297.34375 485.875 297.597656 485.542969 297.824219 C 485.207031 298.046875 484.851562 298.238281 484.480469 298.390625 C 484.109375 298.546875 483.722656 298.660156 483.328125 298.742188 C 482.933594 298.820312 482.535156 298.859375 482.132812 298.859375 Z M 482.132812 298.859375 " fill-opacity="1" fill-rule="nonzero"/><path fill="#000000" d="M 433.039062 243.566406 C 432.222656 243.570312 431.4375 243.417969 430.683594 243.109375 C 429.925781 242.800781 429.257812 242.359375 428.679688 241.785156 L 404.132812 217.210938 C 403.707031 216.777344 403.355469 216.292969 403.070312 215.757812 C 402.789062 215.21875 402.589844 214.652344 402.476562 214.058594 C 402.359375 213.460938 402.335938 212.863281 402.398438 212.257812 C 402.460938 211.65625 402.609375 211.074219 402.84375 210.515625 C 403.074219 209.953125 403.382812 209.4375 403.765625 208.96875 C 404.148438 208.496094 404.589844 208.09375 405.089844 207.753906 C 405.59375 207.414062 406.132812 207.15625 406.714844 206.976562 C 407.292969 206.800781 407.886719 206.707031 408.492188 206.707031 L 414.628906 206.707031 L 414.628906 175.988281 C 414.628906 175.585938 414.667969 175.183594 414.746094 174.789062 C 414.824219 174.394531 414.941406 174.007812 415.09375 173.636719 C 415.25 173.265625 415.4375 172.910156 415.660156 172.574219 C 415.886719 172.238281 416.140625 171.929688 416.425781 171.644531 C 416.710938 171.359375 417.019531 171.105469 417.355469 170.878906 C 417.691406 170.65625 418.042969 170.464844 418.414062 170.3125 C 418.789062 170.15625 419.171875 170.042969 419.566406 169.960938 C 419.960938 169.882812 420.359375 169.84375 420.765625 169.84375 L 445.3125 169.84375 C 445.714844 169.84375 446.113281 169.882812 446.507812 169.960938 C 446.902344 170.042969 447.289062 170.15625 447.660156 170.3125 C 448.03125 170.464844 448.386719 170.65625 448.722656 170.878906 C 449.054688 171.105469 449.367188 171.359375 449.652344 171.644531 C 449.9375 171.929688 450.191406 172.238281 450.414062 172.574219 C 450.636719 172.910156 450.828125 173.265625 450.980469 173.636719 C 451.136719 174.007812 451.25 174.394531 451.332031 174.789062 C 451.410156 175.183594 451.449219 175.585938 451.449219 175.988281 L 451.449219 206.707031 L 457.585938 206.707031 C 458.191406 206.707031 458.78125 206.800781 459.363281 206.976562 C 459.941406 207.15625 460.480469 207.414062 460.984375 207.753906 C 461.484375 208.09375 461.929688 208.496094 462.3125 208.96875 C 462.695312 209.4375 463 209.953125 463.230469 210.515625 C 463.464844 211.074219 463.613281 211.65625 463.675781 212.257812 C 463.742188 212.863281 463.714844 213.460938 463.601562 214.058594 C 463.484375 214.652344 463.285156 215.21875 463.003906 215.757812 C 462.722656 216.292969 462.367188 216.777344 461.941406 217.210938 L 437.394531 241.785156 C 436.816406 242.359375 436.148438 242.800781 435.394531 243.109375 C 434.636719 243.417969 433.851562 243.570312 433.039062 243.566406 Z M 422.910156 218.625 L 433.039062 228.761719 L 443.164062 218.625 C 442.574219 218.40625 442.035156 218.101562 441.539062 217.714844 C 441.046875 217.332031 440.621094 216.878906 440.265625 216.363281 C 439.90625 215.847656 439.636719 215.289062 439.449219 214.691406 C 439.265625 214.089844 439.171875 213.476562 439.175781 212.847656 L 439.175781 182.132812 L 426.902344 182.132812 L 426.902344 212.847656 C 426.902344 213.476562 426.8125 214.089844 426.625 214.691406 C 426.441406 215.289062 426.167969 215.847656 425.8125 216.363281 C 425.457031 216.878906 425.03125 217.332031 424.535156 217.714844 C 424.039062 218.101562 423.5 218.40625 422.910156 218.625 Z M 422.910156 218.625 " fill-opacity="1" fill-rule="nonzero"/><path fill="#000000" d="M 457.585938 298.859375 C 457.183594 298.859375 456.78125 298.820312 456.386719 298.742188 C 455.992188 298.660156 455.609375 298.546875 455.238281 298.390625 C 454.863281 298.238281 454.511719 298.046875 454.175781 297.824219 C 453.839844 297.597656 453.53125 297.34375 453.246094 297.058594 C 452.960938 296.773438 452.707031 296.464844 452.480469 296.128906 C 452.257812 295.792969 452.070312 295.4375 451.914062 295.066406 C 451.761719 294.691406 451.644531 294.308594 451.566406 293.914062 C 451.488281 293.519531 451.449219 293.117188 451.449219 292.714844 L 451.449219 274.285156 L 414.628906 274.285156 L 414.628906 292.714844 C 414.628906 293.117188 414.589844 293.519531 414.507812 293.914062 C 414.429688 294.308594 414.316406 294.691406 414.160156 295.066406 C 414.007812 295.4375 413.816406 295.792969 413.59375 296.128906 C 413.371094 296.464844 413.113281 296.773438 412.828125 297.058594 C 412.546875 297.34375 412.234375 297.597656 411.898438 297.824219 C 411.566406 298.046875 411.210938 298.238281 410.839844 298.390625 C 410.46875 298.546875 410.082031 298.660156 409.6875 298.742188 C 409.292969 298.820312 408.894531 298.859375 408.492188 298.859375 C 408.085938 298.859375 407.6875 298.820312 407.292969 298.742188 C 406.898438 298.660156 406.515625 298.546875 406.140625 298.390625 C 405.769531 298.238281 405.417969 298.046875 405.082031 297.824219 C 404.746094 297.597656 404.4375 297.34375 404.152344 297.058594 C 403.867188 296.773438 403.613281 296.464844 403.386719 296.128906 C 403.164062 295.792969 402.976562 295.4375 402.820312 295.066406 C 402.667969 294.691406 402.550781 294.308594 402.472656 293.914062 C 402.394531 293.519531 402.355469 293.117188 402.355469 292.714844 L 402.355469 268.140625 C 402.355469 267.738281 402.394531 267.339844 402.472656 266.941406 C 402.550781 266.546875 402.667969 266.164062 402.820312 265.789062 C 402.976562 265.417969 403.164062 265.0625 403.386719 264.726562 C 403.613281 264.390625 403.867188 264.082031 404.152344 263.796875 C 404.4375 263.511719 404.746094 263.257812 405.082031 263.03125 C 405.417969 262.808594 405.769531 262.621094 406.140625 262.464844 C 406.515625 262.3125 406.898438 262.195312 407.292969 262.117188 C 407.6875 262.035156 408.085938 261.996094 408.492188 261.996094 L 457.585938 261.996094 C 457.988281 261.996094 458.386719 262.035156 458.78125 262.117188 C 459.175781 262.195312 459.5625 262.3125 459.933594 262.464844 C 460.304688 262.621094 460.660156 262.808594 460.996094 263.03125 C 461.328125 263.257812 461.640625 263.511719 461.925781 263.796875 C 462.210938 264.082031 462.464844 264.390625 462.6875 264.726562 C 462.910156 265.0625 463.101562 265.417969 463.253906 265.789062 C 463.410156 266.164062 463.523438 266.546875 463.605469 266.941406 C 463.683594 267.339844 463.722656 267.738281 463.722656 268.140625 L 463.722656 292.714844 C 463.722656 293.117188 463.683594 293.519531 463.605469 293.914062 C 463.523438 294.308594 463.410156 294.691406 463.253906 295.066406 C 463.101562 295.4375 462.910156 295.792969 462.6875 296.128906 C 462.464844 296.464844 462.210938 296.773438 461.925781 297.058594 C 461.640625 297.34375 461.328125 297.597656 460.996094 297.824219 C 460.660156 298.046875 460.304688 298.238281 459.933594 298.390625 C 459.5625 298.546875 459.175781 298.660156 458.78125 298.742188 C 458.386719 298.820312 457.988281 298.859375 457.585938 298.859375 Z M 457.585938 298.859375 " fill-opacity="1" fill-rule="nonzero"/></svg>