<svg xmlns="http://www.w3.org/2000/svg" xmlns:xlink="http://www.w3.org/1999/xlink" width="1366" zoomAndPan="magnify" viewBox="0 0 1024.5 576" height="768" preserveAspectRatio="xMidYMid meet" version="1.0"><defs><clipPath id="b065d90fcd"><path d="M 189.109375 39 L 430 39 L 430 212 L 189.109375 212 Z M 189.109375 39 " clip-rule="nonzero"/></clipPath><clipPath id="f97e749a8b"><path d="M 486 169 L 727.347656 169 L 727.347656 342 L 486 342 Z M 486 169 " clip-rule="nonzero"/></clipPath></defs><g clip-path="url(#b065d90fcd)"><path fill="#000000" d="M 212.351562 211.464844 L 406.261719 211.464844 C 419.082031 211.464844 429.503906 201.015625 429.503906 188.191406 L 429.503906 62.519531 C 429.503906 49.695312 419.070312 39.257812 406.261719 39.257812 L 212.351562 39.257812 C 199.53125 39.257812 189.109375 49.707031 189.109375 62.519531 L 189.109375 188.191406 C 189.109375 201.027344 199.542969 211.464844 212.351562 211.464844 Z M 201.339844 62.519531 C 201.339844 56.441406 206.285156 51.507812 212.351562 51.507812 L 406.261719 51.507812 C 412.34375 51.507812 417.273438 56.441406 417.273438 62.519531 L 417.273438 188.191406 C 417.273438 194.289062 412.332031 199.214844 406.261719 199.214844 L 212.351562 199.214844 C 206.269531 199.214844 201.339844 194.265625 201.339844 188.191406 Z M 201.339844 62.519531 " fill-opacity="1" fill-rule="nonzero"/></g><g clip-path="url(#f97e749a8b)"><path fill="#000000" d="M 704.105469 169.671875 L 510.191406 169.671875 C 497.371094 169.671875 486.949219 180.117188 486.949219 192.929688 L 486.949219 318.601562 C 486.949219 331.441406 497.398438 341.875 510.191406 341.875 L 704.105469 341.875 C 716.9375 341.875 727.347656 331.425781 727.347656 318.601562 L 727.347656 192.929688 C 727.347656 180.105469 716.898438 169.671875 704.105469 169.671875 Z M 715.113281 318.601562 C 715.113281 324.691406 710.171875 329.625 704.105469 329.625 L 510.191406 329.625 C 504.113281 329.625 499.183594 324.679688 499.183594 318.601562 L 499.183594 192.929688 C 499.183594 186.84375 504.125 181.917969 510.191406 181.917969 L 704.105469 181.917969 C 710.195312 181.917969 715.113281 186.855469 715.113281 192.929688 Z M 715.113281 318.601562 " fill-opacity="1" fill-rule="nonzero"/></g><path fill="#000000" d="M 223.484375 95.222656 L 245.941406 77.878906 C 247.738281 76.492188 250.273438 76.480469 252.070312 77.878906 L 267.726562 89.957031 C 273.917969 94.746094 282.589844 94.746094 288.792969 89.957031 L 304.464844 77.878906 C 306.25 76.480469 308.78125 76.492188 310.578125 77.878906 L 326.238281 89.957031 C 332.425781 94.746094 341.101562 94.746094 347.300781 89.957031 L 362.960938 77.878906 C 364.757812 76.492188 367.289062 76.492188 369.089844 77.878906 L 391.546875 95.222656 C 392.660156 96.066406 393.96875 96.496094 395.277344 96.496094 C 397.113281 96.496094 398.921875 95.6875 400.121094 94.109375 C 402.175781 91.4375 401.6875 87.605469 399.007812 85.519531 L 376.5625 68.175781 C 370.371094 63.386719 361.699219 63.386719 355.496094 68.175781 L 339.839844 80.265625 C 338.042969 81.652344 335.507812 81.652344 333.710938 80.265625 L 318.054688 68.175781 C 311.851562 63.386719 303.179688 63.386719 296.988281 68.175781 L 281.332031 80.265625 C 279.53125 81.652344 277 81.652344 275.203125 80.265625 L 259.542969 68.175781 C 253.34375 63.386719 244.667969 63.386719 238.480469 68.175781 L 216.019531 85.507812 C 213.34375 87.589844 212.851562 91.425781 214.90625 94.09375 C 216.960938 96.777344 220.804688 97.253906 223.484375 95.222656 Z M 223.484375 95.222656 " fill-opacity="1" fill-rule="nonzero"/><path fill="#000000" d="M 223.484375 142.820312 L 245.941406 125.476562 C 247.738281 124.09375 250.273438 124.082031 252.070312 125.476562 L 267.726562 137.566406 C 273.917969 142.355469 282.589844 142.355469 288.792969 137.566406 L 304.464844 125.476562 C 306.25 124.082031 308.78125 124.09375 310.578125 125.476562 L 326.238281 137.566406 C 332.425781 142.355469 341.101562 142.355469 347.300781 137.566406 L 362.960938 125.476562 C 364.757812 124.09375 367.289062 124.09375 369.089844 125.476562 L 391.546875 142.820312 C 392.660156 143.667969 393.96875 144.09375 395.277344 144.09375 C 397.113281 144.09375 398.921875 143.261719 400.121094 141.707031 C 402.175781 139.023438 401.6875 135.191406 399.007812 133.121094 L 376.5625 115.777344 C 370.371094 110.988281 361.699219 110.988281 355.496094 115.777344 L 339.839844 127.851562 C 338.042969 129.238281 335.507812 129.238281 333.710938 127.851562 L 318.054688 115.777344 C 311.851562 110.988281 303.179688 110.988281 296.988281 115.777344 L 281.332031 127.851562 C 279.53125 129.238281 277 129.238281 275.203125 127.851562 L 259.542969 115.777344 C 253.34375 110.988281 244.667969 110.988281 238.480469 115.777344 L 216.019531 133.121094 C 213.328125 135.191406 212.839844 139.023438 214.894531 141.707031 C 216.960938 144.375 220.804688 144.878906 223.484375 142.820312 Z M 223.484375 142.820312 " fill-opacity="1" fill-rule="nonzero"/><path fill="#000000" d="M 458.152344 82.226562 C 458.152344 82.347656 458.082031 82.445312 458.082031 82.558594 C 458.082031 82.59375 458.117188 82.617188 458.117188 82.667969 C 458.214844 83.683594 458.605469 84.628906 459.195312 85.472656 C 459.339844 85.71875 459.511719 85.863281 459.707031 86.074219 C 459.953125 86.328125 460.113281 86.671875 460.429688 86.894531 C 460.675781 87.078125 460.980469 87.027344 461.210938 87.164062 C 461.519531 87.359375 461.738281 87.691406 462.09375 87.824219 L 505.554688 103.453125 C 508.710938 104.582031 512.234375 102.925781 513.382812 99.742188 C 514.523438 96.558594 512.871094 93.066406 509.691406 91.902344 L 480.332031 81.34375 C 504.96875 72.132812 531.734375 73.039062 555.734375 83.90625 C 579.820312 94.816406 598.242188 114.453125 607.589844 139.257812 C 608.519531 141.707031 610.855469 143.214844 613.3125 143.214844 C 614.035156 143.214844 614.769531 143.089844 615.492188 142.820312 C 618.648438 141.609375 620.25 138.09375 619.050781 134.910156 C 598.316406 79.910156 538.535156 50.980469 483.121094 67.636719 L 497.347656 49.265625 C 499.414062 46.605469 498.9375 42.761719 496.269531 40.679688 C 493.59375 38.597656 489.761719 39.097656 487.683594 41.757812 L 459.378906 78.257812 C 459.242188 78.453125 459.207031 78.664062 459.082031 78.859375 C 458.9375 79.101562 458.839844 79.3125 458.742188 79.582031 C 458.324219 80.460938 458.128906 81.34375 458.152344 82.226562 Z M 458.152344 82.226562 " fill-opacity="1" fill-rule="nonzero"/><path fill="#000000" d="M 223.484375 190.40625 L 245.941406 173.0625 C 247.738281 171.679688 250.273438 171.679688 252.070312 173.0625 L 267.726562 185.152344 C 273.917969 189.929688 282.589844 189.941406 288.792969 185.152344 L 304.464844 173.0625 C 306.25 171.679688 308.78125 171.679688 310.578125 173.0625 L 326.238281 185.152344 C 332.425781 189.929688 341.101562 189.941406 347.300781 185.152344 L 362.960938 173.0625 C 364.757812 171.679688 367.289062 171.679688 369.089844 173.0625 L 391.546875 190.40625 C 392.660156 191.265625 393.96875 191.679688 395.277344 191.679688 C 397.113281 191.679688 398.921875 190.871094 400.121094 189.304688 C 402.175781 186.636719 401.6875 182.789062 399.007812 180.71875 L 376.5625 163.375 C 370.371094 158.574219 361.699219 158.574219 355.496094 163.375 L 339.839844 175.464844 C 338.042969 176.847656 335.507812 176.847656 333.710938 175.464844 L 318.054688 163.375 C 311.851562 158.574219 303.179688 158.574219 296.988281 163.375 L 281.332031 175.464844 C 279.53125 176.847656 277 176.847656 275.203125 175.464844 L 259.542969 163.375 C 253.34375 158.574219 244.667969 158.574219 238.480469 163.375 L 216.019531 180.707031 C 213.34375 182.777344 212.851562 186.621094 214.90625 189.292969 C 216.960938 191.976562 220.804688 192.464844 223.484375 190.40625 Z M 223.484375 190.40625 " fill-opacity="1" fill-rule="nonzero"/><path fill="#000000" d="M 693.132812 219.191406 L 517.59375 219.191406 C 514.214844 219.191406 511.476562 221.949219 511.476562 225.316406 C 511.476562 228.695312 514.214844 231.441406 517.59375 231.441406 L 693.132812 231.441406 C 696.496094 231.441406 699.246094 228.695312 699.246094 225.316406 C 699.246094 221.949219 696.507812 219.191406 693.132812 219.191406 Z M 693.132812 219.191406 " fill-opacity="1" fill-rule="nonzero"/><path fill="#000000" d="M 693.132812 249.640625 L 517.59375 249.640625 C 514.214844 249.640625 511.476562 252.398438 511.476562 255.765625 C 511.476562 259.148438 514.214844 261.890625 517.59375 261.890625 L 693.132812 261.890625 C 696.496094 261.890625 699.246094 259.148438 699.246094 255.765625 C 699.246094 252.398438 696.507812 249.640625 693.132812 249.640625 Z M 693.132812 249.640625 " fill-opacity="1" fill-rule="nonzero"/><path fill="#000000" d="M 693.132812 280.105469 L 517.59375 280.105469 C 514.214844 280.105469 511.476562 282.847656 511.476562 286.230469 C 511.476562 289.597656 514.214844 292.355469 517.59375 292.355469 L 693.132812 292.355469 C 696.496094 292.355469 699.246094 289.597656 699.246094 286.230469 C 699.246094 282.835938 696.507812 280.105469 693.132812 280.105469 Z M 693.132812 280.105469 " fill-opacity="1" fill-rule="nonzero"/><path fill="#000000" d="M 410.898438 277.65625 C 407.707031 276.480469 404.21875 278.167969 403.070312 281.355469 C 401.921875 284.550781 403.585938 288.042969 406.765625 289.195312 L 436.097656 299.765625 C 385.101562 318.785156 328.109375 292.878906 308.878906 241.851562 C 307.691406 238.679688 304.167969 237.074219 300.988281 238.289062 C 297.832031 239.488281 296.230469 243.015625 297.429688 246.199219 C 314.226562 290.75 356.671875 318.261719 401.652344 318.261719 C 412.160156 318.261719 422.8125 316.679688 433.308594 313.542969 L 419.132812 331.820312 C 417.066406 334.5 417.542969 338.335938 420.207031 340.417969 C 421.320312 341.289062 422.644531 341.691406 423.953125 341.691406 C 425.773438 341.691406 427.585938 340.894531 428.796875 339.339844 L 457.089844 302.851562 L 457.113281 302.828125 C 457.152344 302.777344 457.152344 302.714844 457.175781 302.667969 C 457.675781 301.980469 457.996094 301.246094 458.179688 300.425781 C 458.238281 300.15625 458.226562 299.875 458.253906 299.605469 C 458.300781 299.003906 458.289062 298.417969 458.167969 297.816406 C 458.128906 297.644531 458.179688 297.511719 458.140625 297.339844 C 458.09375 297.15625 457.921875 297.046875 457.886719 296.859375 C 457.773438 296.605469 457.761719 296.335938 457.628906 296.089844 C 457.46875 295.808594 457.222656 295.625 457.015625 295.378906 C 456.808594 295.109375 456.636719 294.863281 456.394531 294.609375 C 455.914062 294.167969 455.390625 293.835938 454.816406 293.578125 C 454.632812 293.492188 454.507812 293.320312 454.3125 293.261719 Z M 410.898438 277.65625 " fill-opacity="1" fill-rule="nonzero"/></svg>