<svg xmlns="http://www.w3.org/2000/svg" xmlns:xlink="http://www.w3.org/1999/xlink" width="1366" zoomAndPan="magnify" viewBox="0 0 1024.5 576" height="768" preserveAspectRatio="xMidYMid meet" version="1.0"><defs><clipPath id="d2ef77f26a"><path d="M 345 89.871094 L 676 89.871094 L 676 436.949219 L 345 436.949219 Z M 345 89.871094 " clip-rule="nonzero"/></clipPath></defs><g clip-path="url(#d2ef77f26a)"><path fill="#000000" d="M 345.289062 95.855469 L 345.289062 430.96875 C 345.289062 431.359375 345.324219 431.75 345.402344 432.132812 C 345.480469 432.519531 345.59375 432.894531 345.742188 433.257812 C 345.894531 433.621094 346.078125 433.964844 346.296875 434.292969 C 346.515625 434.617188 346.761719 434.921875 347.039062 435.199219 C 347.316406 435.476562 347.621094 435.722656 347.945312 435.941406 C 348.273438 436.160156 348.617188 436.34375 348.980469 436.496094 C 349.34375 436.644531 349.71875 436.757812 350.105469 436.835938 C 350.488281 436.914062 350.878906 436.949219 351.269531 436.949219 L 614.566406 436.949219 C 614.960938 436.949219 615.347656 436.914062 615.734375 436.835938 C 616.121094 436.757812 616.496094 436.644531 616.855469 436.496094 C 617.21875 436.34375 617.566406 436.160156 617.890625 435.941406 C 618.21875 435.722656 618.519531 435.476562 618.796875 435.199219 C 619.078125 434.921875 619.324219 434.617188 619.542969 434.292969 C 619.761719 433.964844 619.945312 433.621094 620.097656 433.257812 C 620.246094 432.894531 620.359375 432.519531 620.4375 432.132812 C 620.511719 431.75 620.550781 431.359375 620.550781 430.96875 L 620.550781 330.792969 L 664.472656 263.410156 L 671.414062 252.820312 C 671.855469 252.144531 672.257812 251.453125 672.628906 250.738281 C 673 250.023438 673.335938 249.296875 673.632812 248.550781 C 673.933594 247.804688 674.195312 247.042969 674.421875 246.273438 C 674.644531 245.5 674.832031 244.71875 674.980469 243.929688 C 675.128906 243.140625 675.238281 242.34375 675.308594 241.542969 C 675.378906 240.742188 675.410156 239.941406 675.398438 239.136719 C 675.390625 238.332031 675.34375 237.53125 675.257812 236.730469 C 675.167969 235.933594 675.042969 235.140625 674.878906 234.351562 C 674.714844 233.566406 674.511719 232.789062 674.269531 232.023438 C 674.027344 231.253906 673.75 230.5 673.4375 229.761719 C 673.121094 229.023438 672.769531 228.300781 672.386719 227.59375 C 672 226.890625 671.582031 226.203125 671.128906 225.539062 C 670.675781 224.875 670.191406 224.234375 669.675781 223.617188 C 669.160156 223 668.613281 222.410156 668.039062 221.847656 C 667.46875 221.285156 666.867188 220.75 666.242188 220.246094 C 665.617188 219.742188 664.964844 219.269531 664.292969 218.828125 L 662.976562 217.992188 C 662.304688 217.550781 661.613281 217.144531 660.898438 216.769531 C 660.1875 216.398438 659.457031 216.0625 658.710938 215.761719 C 657.964844 215.460938 657.207031 215.195312 656.433594 214.972656 C 655.660156 214.746094 654.878906 214.558594 654.089844 214.40625 C 653.300781 214.257812 652.503906 214.148438 651.703125 214.078125 C 650.902344 214.007812 650.097656 213.976562 649.292969 213.984375 C 648.488281 213.992188 647.6875 214.039062 646.886719 214.125 C 646.085938 214.210938 645.292969 214.339844 644.507812 214.503906 C 643.71875 214.667969 642.941406 214.871094 642.175781 215.113281 C 641.40625 215.355469 640.652344 215.632812 639.914062 215.949219 C 639.175781 216.265625 638.453125 216.613281 637.746094 217 C 637.039062 217.386719 636.355469 217.808594 635.691406 218.261719 C 635.027344 218.714844 634.386719 219.203125 633.769531 219.71875 C 633.15625 220.234375 632.566406 220.78125 632.003906 221.355469 C 631.441406 221.933594 630.90625 222.53125 630.402344 223.160156 C 629.898438 223.789062 629.429688 224.4375 628.988281 225.113281 L 623.542969 233.488281 L 620.433594 238.277344 L 620.433594 139.058594 C 620.421875 138.300781 620.269531 137.570312 619.980469 136.867188 C 619.691406 136.164062 619.285156 135.539062 618.757812 134.992188 L 575.492188 91.605469 C 574.960938 91.050781 574.339844 90.621094 573.636719 90.320312 C 572.929688 90.019531 572.191406 89.871094 571.421875 89.871094 L 351.089844 89.871094 C 350.707031 89.882812 350.324219 89.929688 349.949219 90.015625 C 349.574219 90.101562 349.210938 90.222656 348.855469 90.375 C 348.503906 90.53125 348.167969 90.71875 347.851562 90.941406 C 347.535156 91.160156 347.246094 91.410156 346.976562 91.683594 C 346.707031 91.960938 346.46875 92.261719 346.257812 92.585938 C 346.046875 92.90625 345.871094 93.246094 345.726562 93.605469 C 345.582031 93.960938 345.472656 94.332031 345.398438 94.707031 C 345.324219 95.085938 345.289062 95.46875 345.289062 95.855469 Z M 590.632812 355.507812 L 567.59375 340.425781 L 630.066406 244.621094 L 653.105469 259.699219 Z M 564.242188 352.035156 L 580.816406 362.867188 L 562.328125 373.039062 Z M 656.695312 227.503906 L 658.011719 228.34375 C 658.726562 228.808594 659.390625 229.335938 660 229.929688 C 660.613281 230.527344 661.15625 231.175781 661.640625 231.878906 C 662.121094 232.582031 662.53125 233.324219 662.867188 234.109375 C 663.203125 234.890625 663.457031 235.699219 663.632812 236.535156 C 663.808594 237.371094 663.898438 238.214844 663.90625 239.066406 C 663.917969 239.917969 663.839844 240.761719 663.683594 241.601562 C 663.523438 242.4375 663.285156 243.253906 662.964844 244.042969 C 662.644531 244.832031 662.25 245.582031 661.78125 246.296875 L 659.386719 249.945312 L 636.347656 234.925781 L 638.742188 231.214844 C 639.210938 230.507812 639.746094 229.847656 640.34375 229.242188 C 640.941406 228.636719 641.589844 228.097656 642.296875 227.621094 C 643 227.140625 643.742188 226.738281 644.527344 226.40625 C 645.3125 226.074219 646.121094 225.824219 646.953125 225.652344 C 647.785156 225.480469 648.628906 225.390625 649.476562 225.382812 C 650.328125 225.378906 651.171875 225.453125 652.007812 225.613281 C 652.84375 225.769531 653.65625 226.011719 654.445312 226.328125 C 655.234375 226.648438 655.984375 227.039062 656.695312 227.503906 Z M 602.839844 135.410156 L 575.191406 135.410156 L 575.191406 107.824219 Z M 356.894531 101.417969 L 563.582031 101.417969 L 563.582031 141.273438 C 563.582031 141.667969 563.621094 142.054688 563.699219 142.441406 C 563.773438 142.828125 563.890625 143.203125 564.039062 143.5625 C 564.191406 143.925781 564.375 144.273438 564.59375 144.597656 C 564.808594 144.925781 565.058594 145.226562 565.335938 145.503906 C 565.613281 145.785156 565.917969 146.03125 566.242188 146.25 C 566.570312 146.46875 566.914062 146.652344 567.277344 146.804688 C 567.640625 146.953125 568.015625 147.066406 568.398438 147.144531 C 568.785156 147.21875 569.175781 147.257812 569.566406 147.257812 L 609.003906 147.257812 L 609.003906 255.929688 L 554.667969 338.75 C 554.492188 339.074219 554.351562 339.414062 554.25 339.769531 C 554.101562 340.140625 553.980469 340.519531 553.890625 340.90625 L 550.058594 383.09375 C 550.019531 383.617188 550.046875 384.132812 550.144531 384.648438 C 550.242188 385.164062 550.402344 385.65625 550.628906 386.128906 C 550.851562 386.601562 551.136719 387.039062 551.476562 387.4375 C 551.816406 387.835938 552.203125 388.183594 552.632812 388.480469 C 553.085938 388.742188 553.570312 388.941406 554.078125 389.078125 C 554.582031 389.214844 555.101562 389.28125 555.625 389.28125 C 556.148438 389.28125 556.667969 389.214844 557.171875 389.078125 C 557.679688 388.941406 558.164062 388.742188 558.617188 388.480469 L 594.941406 368.492188 C 595.535156 368.191406 596.035156 367.769531 596.4375 367.234375 L 596.734375 366.875 L 608.703125 348.925781 L 608.703125 425.402344 L 356.894531 425.402344 Z M 356.894531 101.417969 " fill-opacity="1" fill-rule="nonzero"/></g><path fill="#000000" d="M 394.238281 175.921875 L 573.757812 176.519531 C 574.199219 176.632812 574.644531 176.691406 575.101562 176.699219 C 575.554688 176.707031 576.003906 176.664062 576.449219 176.570312 C 576.894531 176.476562 577.324219 176.332031 577.734375 176.140625 C 578.148438 175.949219 578.535156 175.714844 578.890625 175.433594 C 579.25 175.152344 579.574219 174.835938 579.859375 174.484375 C 580.144531 174.132812 580.390625 173.75 580.589844 173.339844 C 580.789062 172.933594 580.9375 172.507812 581.042969 172.0625 C 581.144531 171.621094 581.195312 171.171875 581.195312 170.714844 C 581.195312 170.261719 581.144531 169.8125 581.042969 169.371094 C 580.9375 168.925781 580.789062 168.5 580.589844 168.089844 C 580.390625 167.683594 580.144531 167.300781 579.859375 166.949219 C 579.574219 166.59375 579.25 166.277344 578.890625 166 C 578.535156 165.71875 578.148438 165.484375 577.734375 165.289062 C 577.324219 165.097656 576.894531 164.957031 576.449219 164.863281 C 576.003906 164.765625 575.554688 164.726562 575.101562 164.734375 C 574.644531 164.742188 574.199219 164.800781 573.757812 164.910156 L 394.238281 164.375 C 393.792969 164.253906 393.339844 164.183594 392.882812 164.167969 C 392.421875 164.152344 391.964844 164.1875 391.515625 164.277344 C 391.0625 164.363281 390.628906 164.503906 390.210938 164.691406 C 389.789062 164.878906 389.398438 165.113281 389.03125 165.394531 C 388.667969 165.671875 388.339844 165.988281 388.046875 166.34375 C 387.753906 166.699219 387.507812 167.085938 387.300781 167.496094 C 387.097656 167.910156 386.945312 168.339844 386.839844 168.785156 C 386.734375 169.234375 386.683594 169.6875 386.683594 170.148438 C 386.683594 170.609375 386.734375 171.0625 386.839844 171.507812 C 386.945312 171.957031 387.097656 172.386719 387.300781 172.800781 C 387.507812 173.210938 387.753906 173.59375 388.046875 173.949219 C 388.339844 174.304688 388.667969 174.621094 389.03125 174.902344 C 389.398438 175.179688 389.789062 175.414062 390.210938 175.605469 C 390.628906 175.792969 391.0625 175.929688 391.515625 176.019531 C 391.964844 176.109375 392.421875 176.144531 392.882812 176.128906 C 393.339844 176.113281 393.792969 176.042969 394.238281 175.921875 Z M 394.238281 175.921875 " fill-opacity="1" fill-rule="nonzero"/><path fill="#000000" d="M 394.238281 230.796875 L 573.757812 231.394531 C 574.148438 231.394531 574.539062 231.355469 574.925781 231.28125 C 575.308594 231.203125 575.683594 231.089844 576.046875 230.941406 C 576.410156 230.789062 576.753906 230.605469 577.082031 230.386719 C 577.40625 230.167969 577.710938 229.921875 577.988281 229.644531 C 578.265625 229.363281 578.515625 229.0625 578.730469 228.734375 C 578.949219 228.410156 579.132812 228.0625 579.285156 227.703125 C 579.433594 227.339844 579.550781 226.964844 579.625 226.578125 C 579.703125 226.195312 579.742188 225.804688 579.742188 225.410156 C 579.742188 225.019531 579.703125 224.628906 579.625 224.242188 C 579.550781 223.859375 579.433594 223.484375 579.285156 223.121094 C 579.132812 222.757812 578.949219 222.414062 578.730469 222.085938 C 578.515625 221.761719 578.265625 221.457031 577.988281 221.179688 C 577.710938 220.902344 577.40625 220.652344 577.082031 220.4375 C 576.753906 220.21875 576.410156 220.03125 576.046875 219.882812 C 575.683594 219.730469 575.308594 219.617188 574.925781 219.542969 C 574.539062 219.464844 574.148438 219.425781 573.757812 219.425781 L 394.238281 218.828125 C 393.792969 218.707031 393.339844 218.640625 392.882812 218.625 C 392.421875 218.605469 391.964844 218.644531 391.515625 218.730469 C 391.0625 218.820312 390.628906 218.957031 390.210938 219.148438 C 389.789062 219.335938 389.398438 219.570312 389.03125 219.847656 C 388.667969 220.128906 388.339844 220.445312 388.046875 220.800781 C 387.753906 221.15625 387.507812 221.539062 387.300781 221.953125 C 387.097656 222.363281 386.945312 222.792969 386.839844 223.242188 C 386.734375 223.691406 386.683594 224.144531 386.683594 224.601562 C 386.683594 225.0625 386.734375 225.515625 386.839844 225.964844 C 386.945312 226.414062 387.097656 226.84375 387.300781 227.253906 C 387.507812 227.667969 387.753906 228.050781 388.046875 228.40625 C 388.339844 228.761719 388.667969 229.078125 389.03125 229.359375 C 389.398438 229.636719 389.789062 229.871094 390.210938 230.058594 C 390.628906 230.25 391.0625 230.386719 391.515625 230.476562 C 391.964844 230.5625 392.421875 230.601562 392.882812 230.582031 C 393.339844 230.566406 393.792969 230.5 394.238281 230.378906 Z M 394.238281 230.796875 " fill-opacity="1" fill-rule="nonzero"/><path fill="#000000" d="M 536.777344 274.722656 L 394.238281 274.121094 C 393.796875 274.011719 393.347656 273.953125 392.890625 273.945312 C 392.4375 273.933594 391.988281 273.976562 391.542969 274.074219 C 391.097656 274.167969 390.667969 274.308594 390.257812 274.5 C 389.84375 274.695312 389.460938 274.929688 389.101562 275.210938 C 388.742188 275.488281 388.417969 275.804688 388.132812 276.160156 C 387.847656 276.511719 387.605469 276.894531 387.402344 277.300781 C 387.203125 277.710938 387.054688 278.136719 386.953125 278.578125 C 386.847656 279.023438 386.796875 279.472656 386.796875 279.925781 C 386.796875 280.382812 386.847656 280.832031 386.953125 281.273438 C 387.054688 281.71875 387.203125 282.144531 387.402344 282.550781 C 387.605469 282.960938 387.847656 283.339844 388.132812 283.695312 C 388.417969 284.046875 388.742188 284.363281 389.101562 284.644531 C 389.460938 284.925781 389.84375 285.160156 390.257812 285.351562 C 390.667969 285.542969 391.097656 285.6875 391.542969 285.78125 C 391.988281 285.875 392.4375 285.917969 392.890625 285.910156 C 393.347656 285.902344 393.796875 285.84375 394.238281 285.730469 L 536.777344 286.269531 C 537.21875 286.390625 537.671875 286.460938 538.128906 286.476562 C 538.589844 286.492188 539.046875 286.457031 539.496094 286.367188 C 539.949219 286.277344 540.382812 286.140625 540.800781 285.953125 C 541.222656 285.761719 541.613281 285.527344 541.980469 285.25 C 542.34375 284.96875 542.671875 284.652344 542.964844 284.296875 C 543.257812 283.941406 543.503906 283.558594 543.710938 283.148438 C 543.914062 282.734375 544.066406 282.304688 544.171875 281.855469 C 544.277344 281.410156 544.328125 280.957031 544.328125 280.496094 C 544.328125 280.035156 544.277344 279.582031 544.171875 279.132812 C 544.066406 278.6875 543.914062 278.257812 543.710938 277.84375 C 543.503906 277.433594 543.257812 277.046875 542.964844 276.691406 C 542.671875 276.339844 542.34375 276.019531 541.980469 275.742188 C 541.613281 275.460938 541.222656 275.226562 540.800781 275.039062 C 540.382812 274.851562 539.949219 274.710938 539.496094 274.625 C 539.046875 274.535156 538.589844 274.5 538.128906 274.515625 C 537.671875 274.53125 537.21875 274.601562 536.777344 274.722656 Z M 536.777344 274.722656 " fill-opacity="1" fill-rule="nonzero"/><path fill="#000000" d="M 517.6875 359.15625 L 396.691406 358.378906 C 396.054688 358.550781 395.464844 358.820312 394.921875 359.1875 C 394.375 359.554688 393.902344 359.996094 393.503906 360.519531 C 393.105469 361.042969 392.800781 361.613281 392.589844 362.234375 C 392.378906 362.859375 392.273438 363.496094 392.273438 364.152344 C 392.273438 364.8125 392.378906 365.449219 392.589844 366.074219 C 392.800781 366.695312 393.105469 367.265625 393.503906 367.789062 C 393.902344 368.308594 394.375 368.753906 394.921875 369.121094 C 395.464844 369.488281 396.054688 369.757812 396.691406 369.929688 L 517.804688 370.527344 C 518.246094 370.636719 518.695312 370.695312 519.148438 370.707031 C 519.605469 370.714844 520.054688 370.671875 520.5 370.578125 C 520.945312 370.484375 521.375 370.339844 521.785156 370.148438 C 522.199219 369.957031 522.582031 369.71875 522.941406 369.441406 C 523.300781 369.160156 523.625 368.84375 523.910156 368.492188 C 524.195312 368.136719 524.4375 367.757812 524.636719 367.347656 C 524.839844 366.9375 524.988281 366.511719 525.089844 366.070312 C 525.195312 365.625 525.246094 365.175781 525.246094 364.722656 C 525.246094 364.265625 525.195312 363.820312 525.089844 363.375 C 524.988281 362.933594 524.839844 362.507812 524.636719 362.097656 C 524.4375 361.6875 524.195312 361.308594 523.910156 360.953125 C 523.625 360.601562 523.300781 360.285156 522.941406 360.003906 C 522.582031 359.726562 522.199219 359.488281 521.785156 359.296875 C 521.375 359.105469 520.945312 358.960938 520.5 358.867188 C 520.054688 358.773438 519.605469 358.730469 519.148438 358.738281 C 518.695312 358.746094 518.246094 358.808594 517.804688 358.917969 Z M 517.6875 359.15625 " fill-opacity="1" fill-rule="nonzero"/></svg>